G04 #@! TF.GenerationSoftware,KiCad,Pcbnew,8.0.8*
G04 #@! TF.CreationDate,2025-05-06T09:20:43+01:00*
G04 #@! TF.ProjectId,main_wired,6d61696e-5f77-4697-9265-642e6b696361,0.1*
G04 #@! TF.SameCoordinates,Original*
G04 #@! TF.FileFunction,Soldermask,Bot*
G04 #@! TF.FilePolarity,Negative*
%FSLAX46Y46*%
G04 Gerber Fmt 4.6, Leading zero omitted, Abs format (unit mm)*
G04 Created by KiCad (PCBNEW 8.0.8) date 2025-05-06 09:20:43*
%MOMM*%
%LPD*%
G01*
G04 APERTURE LIST*
%ADD10C,2.200000*%
%ADD11C,1.900000*%
%ADD12C,3.450000*%
%ADD13C,5.700000*%
%ADD14R,2.000000X2.000000*%
%ADD15C,2.000000*%
%ADD16R,3.200000X2.000000*%
%ADD17C,1.752600*%
G04 APERTURE END LIST*
D10*
G04 #@! TO.C,S17*
X145998631Y-150781510D03*
X142018410Y-147098055D03*
D11*
X145168800Y-154523352D03*
D12*
X140000491Y-152642241D03*
D11*
X134832182Y-150761130D03*
G04 #@! TD*
D13*
G04 #@! TO.C,H4*
X166600000Y-155000000D03*
G04 #@! TD*
D11*
G04 #@! TO.C,S21*
X290639318Y-96034639D03*
D12*
X296109188Y-96609546D03*
D11*
X301579058Y-97184453D03*
D10*
X296725906Y-90741867D03*
X301479006Y-93353005D03*
G04 #@! TD*
D13*
G04 #@! TO.C,H3*
X145600000Y-86100000D03*
G04 #@! TD*
D11*
G04 #@! TO.C,S35*
X201480985Y-154544628D03*
D12*
X206649294Y-152663517D03*
D11*
X211817603Y-150782406D03*
D10*
X204631375Y-147119331D03*
X210048081Y-147382584D03*
G04 #@! TD*
D11*
G04 #@! TO.C,S19*
X286682834Y-133830254D03*
D12*
X292152704Y-134405161D03*
D11*
X297622574Y-134980068D03*
D10*
X292769422Y-128537482D03*
X297522522Y-131148620D03*
G04 #@! TD*
D13*
G04 #@! TO.C,H7*
X286000000Y-86700000D03*
G04 #@! TD*
D11*
G04 #@! TO.C,S26*
X247148889Y-105636296D03*
D12*
X252648889Y-105636296D03*
D11*
X258148889Y-105636296D03*
D10*
X252648889Y-99736296D03*
X257648889Y-101836296D03*
G04 #@! TD*
D11*
G04 #@! TO.C,S24*
X268287777Y-92149822D03*
D12*
X273784427Y-92341769D03*
D11*
X279281077Y-92533716D03*
D10*
X273990334Y-86445363D03*
X278913999Y-88718581D03*
G04 #@! TD*
D11*
G04 #@! TO.C,S18*
X155092406Y-160390121D03*
D12*
X159305650Y-163925453D03*
D11*
X163518894Y-167460785D03*
D10*
X163098097Y-159405791D03*
X165578465Y-164228422D03*
G04 #@! TD*
D13*
G04 #@! TO.C,H5*
X201000000Y-86100000D03*
G04 #@! TD*
D11*
G04 #@! TO.C,S23*
X267690832Y-111131399D03*
D12*
X273187482Y-111323346D03*
D11*
X278684132Y-111515293D03*
D10*
X273393389Y-105426940D03*
X278317054Y-107700158D03*
G04 #@! TD*
D11*
G04 #@! TO.C,S30*
X227158901Y-91626313D03*
D12*
X232658901Y-91626313D03*
D11*
X238158901Y-91626313D03*
D10*
X232658901Y-85726313D03*
X237658901Y-87826313D03*
G04 #@! TD*
D11*
G04 #@! TO.C,S20*
X288668883Y-114934351D03*
D12*
X294138753Y-115509258D03*
D11*
X299608623Y-116084165D03*
D10*
X294755471Y-109641579D03*
X299508571Y-112252717D03*
G04 #@! TD*
G04 #@! TO.C,S15*
X139729235Y-82935866D03*
X134766646Y-80748924D03*
D11*
X140162839Y-86744013D03*
D12*
X134663677Y-86648025D03*
D11*
X129164515Y-86552037D03*
G04 #@! TD*
G04 #@! TO.C,S31*
X207132732Y-125011852D03*
D12*
X212631894Y-124915864D03*
D11*
X218131056Y-124819876D03*
D10*
X212528925Y-119016763D03*
X217564813Y-121029181D03*
G04 #@! TD*
D11*
G04 #@! TO.C,S14*
X128832935Y-105549147D03*
D12*
X134332097Y-105645135D03*
D11*
X139831259Y-105741123D03*
D10*
X134435066Y-99746034D03*
X139397655Y-101932976D03*
G04 #@! TD*
D11*
G04 #@! TO.C,S25*
X247148901Y-124636309D03*
D12*
X252648901Y-124636309D03*
D11*
X258148901Y-124636309D03*
D10*
X252648901Y-118736309D03*
X257648901Y-120836309D03*
G04 #@! TD*
D13*
G04 #@! TO.C,H6*
X180000000Y-155000000D03*
G04 #@! TD*
D11*
G04 #@! TO.C,S22*
X267027765Y-130119831D03*
D12*
X272524415Y-130311778D03*
D11*
X278021065Y-130503725D03*
D10*
X272730322Y-124415372D03*
X277653987Y-126688590D03*
G04 #@! TD*
D11*
G04 #@! TO.C,S27*
X247168901Y-86626316D03*
D12*
X252668901Y-86626316D03*
D11*
X258168901Y-86626316D03*
D10*
X252668901Y-80726316D03*
X257668901Y-82826316D03*
G04 #@! TD*
D11*
G04 #@! TO.C,S28*
X227148896Y-129616322D03*
D12*
X232648896Y-129616322D03*
D11*
X238148896Y-129616322D03*
D10*
X232648896Y-123716322D03*
X237648896Y-125816322D03*
G04 #@! TD*
D11*
G04 #@! TO.C,S29*
X227148894Y-110616314D03*
D12*
X232648894Y-110616314D03*
D11*
X238148894Y-110616314D03*
D10*
X232648894Y-104716314D03*
X237648894Y-106816314D03*
G04 #@! TD*
D11*
G04 #@! TO.C,S36*
X183145695Y-167460815D03*
D12*
X187358939Y-163925483D03*
D11*
X191572183Y-160390151D03*
D10*
X183566492Y-159405821D03*
X188746568Y-157800576D03*
G04 #@! TD*
D11*
G04 #@! TO.C,S33*
X206459011Y-86982304D03*
D12*
X211958173Y-86886316D03*
D11*
X217457335Y-86790328D03*
D10*
X211855204Y-80987215D03*
X216891092Y-82999633D03*
G04 #@! TD*
D14*
G04 #@! TO.C,EC11*
X151274610Y-132459595D03*
D15*
X151274610Y-137459595D03*
X151274610Y-134959595D03*
D16*
X158774610Y-129359595D03*
X158774610Y-140559595D03*
D15*
X165774610Y-137459595D03*
X165774610Y-132459595D03*
G04 #@! TD*
D11*
G04 #@! TO.C,S32*
X206830577Y-105998291D03*
D12*
X212329739Y-105902303D03*
D11*
X217828901Y-105806315D03*
D10*
X212226770Y-100003202D03*
X217262658Y-102015620D03*
G04 #@! TD*
D17*
G04 #@! TO.C,MCU2*
X179665190Y-82826752D03*
X179665190Y-85366752D03*
X179665190Y-87906752D03*
X179665190Y-90446752D03*
X179665190Y-92986752D03*
X179665190Y-95526752D03*
X179665190Y-98066752D03*
X179665190Y-100606752D03*
X179665190Y-103146752D03*
X179665190Y-105686752D03*
X179665190Y-108226752D03*
X179665190Y-110766752D03*
X194905190Y-110766752D03*
X194905190Y-108226752D03*
X194905190Y-105686752D03*
X194905190Y-103146752D03*
X194905190Y-100606752D03*
X194905190Y-98066752D03*
X194905190Y-95526752D03*
X194905190Y-92986752D03*
X194905190Y-90446752D03*
X194905190Y-87906752D03*
X194905190Y-85366752D03*
X194905190Y-82826752D03*
X182205190Y-105686752D03*
X184745190Y-105686752D03*
X187285190Y-105686752D03*
G04 #@! TD*
D11*
G04 #@! TO.C,S34*
X223168905Y-148646300D03*
D12*
X228668905Y-148646300D03*
D11*
X234168905Y-148646300D03*
D10*
X228668905Y-142746300D03*
X233668905Y-144846300D03*
G04 #@! TD*
D17*
G04 #@! TO.C,MCU1*
X167055438Y-82805626D03*
X167055438Y-85345626D03*
X167055438Y-87885626D03*
X167055438Y-90425626D03*
X167055438Y-92965626D03*
X167055439Y-95505626D03*
X167055438Y-98045626D03*
X167055438Y-100585626D03*
X167055438Y-103125626D03*
X167055438Y-105665626D03*
X167055438Y-108205626D03*
X167055438Y-110745626D03*
X151815438Y-110745626D03*
X151815438Y-108205626D03*
X151815438Y-105665626D03*
X151815438Y-103125626D03*
X151815438Y-100585626D03*
X151815438Y-98045626D03*
X151815438Y-95505626D03*
X151815438Y-92965626D03*
X151815438Y-90425626D03*
X151815438Y-87885626D03*
X151815439Y-85345626D03*
X151815438Y-82805626D03*
X164515438Y-105665626D03*
X161975438Y-105665626D03*
X159435438Y-105665626D03*
G04 #@! TD*
D13*
G04 #@! TO.C,H8*
X280500000Y-142500000D03*
G04 #@! TD*
D11*
G04 #@! TO.C,S5*
X68027419Y-111540702D03*
D12*
X73524069Y-111348755D03*
D11*
X79020719Y-111156808D03*
D10*
X73318162Y-105452349D03*
X78388405Y-107376572D03*
G04 #@! TD*
D11*
G04 #@! TO.C,S2*
X47049888Y-116095792D03*
D12*
X52519758Y-115520885D03*
D11*
X57989628Y-114945978D03*
D10*
X51903040Y-109653206D03*
X57095159Y-111219056D03*
G04 #@! TD*
D11*
G04 #@! TO.C,S11*
X108500497Y-110642237D03*
D12*
X114000497Y-110642237D03*
D11*
X119500497Y-110642237D03*
D10*
X114000497Y-104742237D03*
X119000497Y-106842237D03*
G04 #@! TD*
D11*
G04 #@! TO.C,S13*
X128501333Y-124546248D03*
D12*
X134000495Y-124642236D03*
D11*
X139499657Y-124738224D03*
D10*
X134103464Y-118743135D03*
X139066053Y-120930077D03*
G04 #@! TD*
D11*
G04 #@! TO.C,S6*
X67364343Y-92552272D03*
D12*
X72860993Y-92360325D03*
D11*
X78357643Y-92168378D03*
D10*
X72655086Y-86463919D03*
X77725329Y-88388142D03*
G04 #@! TD*
D11*
G04 #@! TO.C,S1*
X49035919Y-134991699D03*
D12*
X54505789Y-134416792D03*
D11*
X59975659Y-133841885D03*
D10*
X53889071Y-128549113D03*
X59081190Y-130114963D03*
G04 #@! TD*
D13*
G04 #@! TO.C,H2*
X66100000Y-142500000D03*
G04 #@! TD*
D10*
G04 #@! TO.C,S9*
X99000480Y-82842230D03*
X94000480Y-80742230D03*
D11*
X99500480Y-86642230D03*
D12*
X94000480Y-86642230D03*
D11*
X88500480Y-86642230D03*
G04 #@! TD*
D13*
G04 #@! TO.C,H1*
X60600000Y-86700000D03*
G04 #@! TD*
D11*
G04 #@! TO.C,S7*
X88500498Y-124642242D03*
D12*
X94000498Y-124642242D03*
D11*
X99500498Y-124642242D03*
D10*
X94000498Y-118742242D03*
X99000498Y-120842242D03*
G04 #@! TD*
D11*
G04 #@! TO.C,S3*
X45063842Y-97199873D03*
D12*
X50533712Y-96624966D03*
D11*
X56003582Y-96050059D03*
D10*
X49916994Y-90757287D03*
X55109113Y-92323137D03*
G04 #@! TD*
D11*
G04 #@! TO.C,S16*
X112500496Y-148642232D03*
D12*
X118000496Y-148642232D03*
D11*
X123500496Y-148642232D03*
D10*
X118000496Y-142742232D03*
X123000496Y-144842232D03*
G04 #@! TD*
D11*
G04 #@! TO.C,S8*
X88500489Y-105642233D03*
D12*
X94000489Y-105642233D03*
D11*
X99500489Y-105642233D03*
D10*
X94000489Y-99742233D03*
X99000489Y-101842233D03*
G04 #@! TD*
D11*
G04 #@! TO.C,S4*
X68690534Y-130529130D03*
D12*
X74187184Y-130337183D03*
D11*
X79683834Y-130145236D03*
D10*
X73981277Y-124440777D03*
X79051520Y-126365000D03*
G04 #@! TD*
D11*
G04 #@! TO.C,S10*
X108500498Y-129642244D03*
D12*
X114000498Y-129642244D03*
D11*
X119500498Y-129642244D03*
D10*
X114000498Y-123742244D03*
X119000498Y-125842244D03*
G04 #@! TD*
D11*
G04 #@! TO.C,S12*
X108500494Y-91642235D03*
D12*
X114000494Y-91642235D03*
D11*
X119500494Y-91642235D03*
D10*
X114000494Y-85742235D03*
X119000494Y-87842235D03*
G04 #@! TD*
M02*
