M48
; DRILL file {KiCad 8.0.8} date 2025-05-06T09:20:43+0100
; FORMAT={-:-/ absolute / metric / decimal}
; #@! TF.CreationDate,2025-05-06T09:20:43+01:00
; #@! TF.GenerationSoftware,Kicad,Pcbnew,8.0.8
; #@! TF.FileFunction,Plated,1,2,PTH
FMAT,2
METRIC
; #@! TA.AperFunction,Plated,PTH,ViaDrill
T1C0.300
; #@! TA.AperFunction,Plated,PTH,ComponentDrill
T2C1.000
; #@! TA.AperFunction,Plated,PTH,ComponentDrill
T3C1.092
; #@! TA.AperFunction,Plated,PTH,ComponentDrill
T4C1.200
; #@! TA.AperFunction,Plated,PTH,ComponentDrill
T5C1.500
; #@! TA.AperFunction,Plated,PTH,ComponentDrill
T6C3.200
%
G90
G05
T1
X128.334Y-141.572
X142.018Y-142.257
X143.219Y-137.457
X147.5Y-125.221
X152.8Y-80.642
X156.5Y-88.842
X181.029Y-113.663
X181.679Y-116.663
X189.5Y-88.5
X196.407Y-81.007
X202.545Y-142.738
X216.404Y-141.096
T2
X151.275Y-132.46
X151.275Y-134.96
X151.275Y-137.46
X165.775Y-132.46
X165.775Y-137.46
T3
X151.815Y-82.806
X151.815Y-87.886
X151.815Y-90.426
X151.815Y-92.966
X151.815Y-95.506
X151.815Y-98.046
X151.815Y-100.586
X151.815Y-103.126
X151.815Y-105.666
X151.815Y-108.206
X151.815Y-110.746
X151.815Y-85.346
X159.435Y-105.666
X161.975Y-105.666
X164.515Y-105.666
X167.055Y-82.806
X167.055Y-85.346
X167.055Y-87.886
X167.055Y-90.426
X167.055Y-92.966
X167.055Y-98.046
X167.055Y-100.586
X167.055Y-103.126
X167.055Y-105.666
X167.055Y-108.206
X167.055Y-110.746
X167.055Y-95.506
X179.665Y-82.827
X179.665Y-85.367
X179.665Y-87.907
X179.665Y-90.447
X179.665Y-92.987
X179.665Y-95.527
X179.665Y-98.067
X179.665Y-100.607
X179.665Y-103.147
X179.665Y-105.687
X179.665Y-108.227
X179.665Y-110.767
X182.205Y-105.687
X184.745Y-105.687
X187.285Y-105.687
X194.905Y-82.827
X194.905Y-85.367
X194.905Y-87.907
X194.905Y-90.447
X194.905Y-92.987
X194.905Y-95.527
X194.905Y-98.067
X194.905Y-100.607
X194.905Y-103.147
X194.905Y-105.687
X194.905Y-108.227
X194.905Y-110.767
T4
X49.917Y-90.757
X51.903Y-109.653
X53.889Y-128.549
X55.109Y-92.323
X57.095Y-111.219
X59.081Y-130.115
X72.655Y-86.464
X73.318Y-105.452
X73.981Y-124.441
X77.725Y-88.388
X78.388Y-107.377
X79.052Y-126.365
X94.0Y-80.742
X94.0Y-99.742
X94.0Y-118.742
X99.0Y-82.842
X99.0Y-101.842
X99.0Y-120.842
X114.0Y-85.742
X114.0Y-104.742
X114.0Y-123.742
X118.0Y-142.742
X119.0Y-87.842
X119.0Y-106.842
X119.0Y-125.842
X123.0Y-144.842
X134.103Y-118.743
X134.435Y-99.746
X134.767Y-80.749
X139.066Y-120.93
X139.398Y-101.933
X139.729Y-82.936
X142.018Y-147.098
X145.999Y-150.782
X163.098Y-159.406
X165.578Y-164.228
X183.566Y-159.406
X188.747Y-157.801
X204.631Y-147.119
X210.048Y-147.383
X211.855Y-80.987
X212.227Y-100.003
X212.529Y-119.017
X216.891Y-83.0
X217.263Y-102.016
X217.565Y-121.029
X228.669Y-142.746
X232.649Y-104.716
X232.649Y-123.716
X232.659Y-85.726
X233.669Y-144.846
X237.649Y-106.816
X237.649Y-125.816
X237.659Y-87.826
X252.649Y-99.736
X252.649Y-118.736
X252.669Y-80.726
X257.649Y-101.836
X257.649Y-120.836
X257.669Y-82.826
X272.73Y-124.415
X273.393Y-105.427
X273.99Y-86.445
X277.654Y-126.689
X278.317Y-107.7
X278.914Y-88.719
X292.769Y-128.537
X294.755Y-109.642
X296.726Y-90.742
X297.523Y-131.149
X299.509Y-112.253
X301.479Y-93.353
T6
X60.6Y-86.7
X66.1Y-142.5
X145.6Y-86.1
X166.6Y-155.0
X180.0Y-155.0
X201.0Y-86.1
X280.5Y-142.5
X286.0Y-86.7
T5
G00X158.125Y-129.36
M15
G01X159.425Y-129.36
M16
G05
G00X158.125Y-140.56
M15
G01X159.425Y-140.56
M16
G05
M30
