G04 #@! TF.GenerationSoftware,KiCad,Pcbnew,8.0.8*
G04 #@! TF.CreationDate,2025-05-06T09:20:42+01:00*
G04 #@! TF.ProjectId,main_wired,6d61696e-5f77-4697-9265-642e6b696361,0.1*
G04 #@! TF.SameCoordinates,Original*
G04 #@! TF.FileFunction,Paste,Top*
G04 #@! TF.FilePolarity,Positive*
%FSLAX46Y46*%
G04 Gerber Fmt 4.6, Leading zero omitted, Abs format (unit mm)*
G04 Created by KiCad (PCBNEW 8.0.8) date 2025-05-06 09:20:42*
%MOMM*%
%LPD*%
G01*
G04 APERTURE LIST*
G04 Aperture macros list*
%AMRoundRect*
0 Rectangle with rounded corners*
0 $1 Rounding radius*
0 $2 $3 $4 $5 $6 $7 $8 $9 X,Y pos of 4 corners*
0 Add a 4 corners polygon primitive as box body*
4,1,4,$2,$3,$4,$5,$6,$7,$8,$9,$2,$3,0*
0 Add four circle primitives for the rounded corners*
1,1,$1+$1,$2,$3*
1,1,$1+$1,$4,$5*
1,1,$1+$1,$6,$7*
1,1,$1+$1,$8,$9*
0 Add four rect primitives between the rounded corners*
20,1,$1+$1,$2,$3,$4,$5,0*
20,1,$1+$1,$4,$5,$6,$7,0*
20,1,$1+$1,$6,$7,$8,$9,0*
20,1,$1+$1,$8,$9,$2,$3,0*%
G04 Aperture macros list end*
%ADD10RoundRect,0.135000X0.315000X0.365000X-0.315000X0.365000X-0.315000X-0.365000X0.315000X-0.365000X0*%
%ADD11RoundRect,0.082500X0.767500X0.192500X-0.767500X0.192500X-0.767500X-0.192500X0.767500X-0.192500X0*%
%ADD12RoundRect,0.225000X-0.218421X-0.378870X0.231510X-0.371016X0.218421X0.378870X-0.231510X0.371016X0*%
%ADD13RoundRect,0.250000X0.250000X1.500000X-0.250000X1.500000X-0.250000X-1.500000X0.250000X-1.500000X0*%
%ADD14RoundRect,0.250001X0.499999X1.449999X-0.499999X1.449999X-0.499999X-1.449999X0.499999X-1.449999X0*%
%ADD15RoundRect,0.225000X-0.225000X-0.375000X0.225000X-0.375000X0.225000X0.375000X-0.225000X0.375000X0*%
%ADD16RoundRect,0.225000X-0.083173X-0.429339X0.339688X-0.275430X0.083173X0.429339X-0.339688X0.275430X0*%
%ADD17RoundRect,0.225000X-0.231510X-0.371016X0.218421X-0.378870X0.231510X0.371016X-0.218421X0.378870X0*%
%ADD18RoundRect,0.225000X-0.262966X-0.349427X0.184569X-0.396465X0.262966X0.349427X-0.184569X0.396465X0*%
%ADD19RoundRect,0.225000X-0.237950X-0.366919X0.211776X-0.382624X0.237950X0.366919X-0.211776X0.382624X0*%
%ADD20RoundRect,0.225000X0.068685X-0.431894X0.413405X-0.142639X-0.068685X0.431894X-0.413405X0.142639X0*%
%ADD21RoundRect,0.225000X-0.413405X-0.142639X-0.068685X-0.431894X0.413405X0.142639X0.068685X0.431894X0*%
%ADD22R,0.300000X1.300000*%
%ADD23R,1.800000X2.200000*%
%ADD24RoundRect,0.225000X-0.339688X-0.275430X0.083173X-0.429339X0.339688X0.275430X-0.083173X0.429339X0*%
%ADD25RoundRect,0.225000X-0.211776X-0.382624X0.237950X-0.366919X0.211776X0.382624X-0.237950X0.366919X0*%
%ADD26RoundRect,0.225000X-0.184569X-0.396465X0.262966X-0.349427X0.184569X0.396465X-0.262966X0.349427X0*%
G04 APERTURE END LIST*
D10*
G04 #@! TO.C,SR2*
X202450000Y-80663199D03*
X198350000Y-80663199D03*
X202450000Y-79063199D03*
X198350000Y-79063199D03*
D11*
X200400000Y-81288199D03*
G04 #@! TD*
D12*
G04 #@! TO.C,D31*
X211069403Y-134528796D03*
X214368901Y-134471204D03*
G04 #@! TD*
D13*
G04 #@! TO.C,J2*
X190500000Y-121000000D03*
X188500000Y-121000000D03*
D14*
X192850000Y-115250000D03*
X186150000Y-115250000D03*
G04 #@! TD*
D15*
G04 #@! TO.C,D25*
X250998901Y-134221203D03*
X254298901Y-134221203D03*
G04 #@! TD*
D16*
G04 #@! TO.C,D35*
X194949507Y-157926312D03*
X198050493Y-156797646D03*
G04 #@! TD*
D15*
G04 #@! TO.C,D29*
X230998890Y-120201213D03*
X234298890Y-120201213D03*
G04 #@! TD*
D17*
G04 #@! TO.C,D13*
X135562978Y-134028040D03*
X132263480Y-133970448D03*
G04 #@! TD*
D15*
G04 #@! TO.C,D30*
X231008910Y-101211208D03*
X234308910Y-101211208D03*
G04 #@! TD*
D12*
G04 #@! TO.C,D33*
X210395693Y-96499234D03*
X213695191Y-96441642D03*
G04 #@! TD*
D18*
G04 #@! TO.C,D19*
X289989108Y-143790189D03*
X293271030Y-144135133D03*
G04 #@! TD*
D12*
G04 #@! TO.C,D32*
X210767244Y-115515222D03*
X214066742Y-115457630D03*
G04 #@! TD*
D15*
G04 #@! TO.C,D28*
X230998902Y-139201203D03*
X234298902Y-139201203D03*
G04 #@! TD*
G04 #@! TO.C,D26*
X250998894Y-115221186D03*
X254298894Y-115221186D03*
G04 #@! TD*
D19*
G04 #@! TO.C,D23*
X271364002Y-120847617D03*
X274661992Y-120962785D03*
G04 #@! TD*
D20*
G04 #@! TO.C,D36*
X192236027Y-154060600D03*
X194763973Y-151939400D03*
G04 #@! TD*
D15*
G04 #@! TO.C,D16*
X126850000Y-150000000D03*
X130150000Y-150000000D03*
G04 #@! TD*
D21*
G04 #@! TO.C,D18*
X148236027Y-157939400D03*
X150763973Y-160060600D03*
G04 #@! TD*
D19*
G04 #@! TO.C,D22*
X270700912Y-139836033D03*
X273998902Y-139951201D03*
G04 #@! TD*
D17*
G04 #@! TO.C,D14*
X132595082Y-114973341D03*
X135894580Y-115030933D03*
G04 #@! TD*
D22*
G04 #@! TO.C,C1*
X186750000Y-128700000D03*
X186250000Y-128700000D03*
X185750000Y-128700000D03*
X185250000Y-128700000D03*
X184750000Y-128700000D03*
X184250000Y-128700000D03*
X183750000Y-128700000D03*
X183250000Y-128700000D03*
X182750000Y-128700000D03*
X182250000Y-128700000D03*
X181750000Y-128700000D03*
X181250000Y-128700000D03*
D23*
X179350000Y-131950000D03*
X188650000Y-131950000D03*
G04 #@! TD*
D13*
G04 #@! TO.C,J1*
X158650500Y-120792243D03*
X156650500Y-120792243D03*
D14*
X161000500Y-115042243D03*
X154300500Y-115042243D03*
G04 #@! TD*
D15*
G04 #@! TO.C,D27*
X251018906Y-96211215D03*
X254318906Y-96211215D03*
G04 #@! TD*
D18*
G04 #@! TO.C,D21*
X293945589Y-105994583D03*
X297227511Y-106339527D03*
G04 #@! TD*
D24*
G04 #@! TO.C,D17*
X150449507Y-152935667D03*
X153550493Y-154064333D03*
G04 #@! TD*
D19*
G04 #@! TO.C,D24*
X271960910Y-101866033D03*
X275258900Y-101981201D03*
G04 #@! TD*
D17*
G04 #@! TO.C,D15*
X132926672Y-95871204D03*
X136226170Y-95928796D03*
G04 #@! TD*
D18*
G04 #@! TO.C,D20*
X291975143Y-124894276D03*
X295257065Y-125239220D03*
G04 #@! TD*
D10*
G04 #@! TO.C,SRL1*
X148550500Y-80642243D03*
X144450500Y-80642243D03*
X148550500Y-79042243D03*
X144450500Y-79042243D03*
D11*
X146500500Y-81267243D03*
G04 #@! TD*
D15*
G04 #@! TO.C,D34*
X216350000Y-148000000D03*
X219650000Y-148000000D03*
G04 #@! TD*
G04 #@! TO.C,D8*
X92350491Y-114999997D03*
X95650491Y-114999997D03*
G04 #@! TD*
G04 #@! TO.C,D7*
X95650497Y-134000013D03*
X92350497Y-134000013D03*
G04 #@! TD*
D25*
G04 #@! TO.C,D4*
X76010666Y-139634316D03*
X72712676Y-139749484D03*
G04 #@! TD*
G04 #@! TO.C,D6*
X71386475Y-102057584D03*
X74684465Y-101942416D03*
G04 #@! TD*
D15*
G04 #@! TO.C,D10*
X115650506Y-139000000D03*
X112350506Y-139000000D03*
G04 #@! TD*
G04 #@! TO.C,D9*
X92350488Y-96000000D03*
X95650488Y-96000000D03*
G04 #@! TD*
G04 #@! TO.C,D11*
X112350497Y-120000012D03*
X115650497Y-120000012D03*
G04 #@! TD*
D25*
G04 #@! TO.C,D5*
X72049586Y-120761067D03*
X75347576Y-120645899D03*
G04 #@! TD*
D26*
G04 #@! TO.C,D1*
X56669402Y-143574692D03*
X53387480Y-143919636D03*
G04 #@! TD*
G04 #@! TO.C,D3*
X50218078Y-106344944D03*
X53500000Y-106000000D03*
G04 #@! TD*
G04 #@! TO.C,D2*
X54683352Y-124678780D03*
X51401430Y-125023724D03*
G04 #@! TD*
D15*
G04 #@! TO.C,D12*
X112350504Y-101000000D03*
X115650504Y-101000000D03*
G04 #@! TD*
M02*
