G04 #@! TF.GenerationSoftware,KiCad,Pcbnew,8.0.8*
G04 #@! TF.CreationDate,2025-05-06T09:20:43+01:00*
G04 #@! TF.ProjectId,main_wired,6d61696e-5f77-4697-9265-642e6b696361,0.1*
G04 #@! TF.SameCoordinates,Original*
G04 #@! TF.FileFunction,Profile,NP*
%FSLAX46Y46*%
G04 Gerber Fmt 4.6, Leading zero omitted, Abs format (unit mm)*
G04 Created by KiCad (PCBNEW 8.0.8) date 2025-05-06 09:20:43*
%MOMM*%
%LPD*%
G01*
G04 APERTURE LIST*
G04 #@! TA.AperFunction,Profile*
%ADD10C,0.050000*%
G04 #@! TD*
G04 #@! TA.AperFunction,Profile*
%ADD11C,0.150000*%
G04 #@! TD*
G04 APERTURE END LIST*
D10*
X172000000Y-124250000D02*
G75*
G02*
X171000000Y-124250000I-500000J0D01*
G01*
X171000000Y-124250000D02*
G75*
G02*
X172000000Y-124250000I500000J0D01*
G01*
X175750000Y-154850000D02*
G75*
G02*
X174750000Y-154850000I-500000J0D01*
G01*
X174750000Y-154850000D02*
G75*
G02*
X175750000Y-154850000I500000J0D01*
G01*
D11*
X170800000Y-114750000D02*
X175800000Y-114750000D01*
X175859549Y-163556753D02*
X175800000Y-159400000D01*
D10*
X175750000Y-121750000D02*
G75*
G02*
X174750000Y-121750000I-500000J0D01*
G01*
X174750000Y-121750000D02*
G75*
G02*
X175750000Y-121750000I500000J0D01*
G01*
D11*
X170800000Y-149100000D02*
X170800000Y-125000000D01*
D10*
X172000000Y-80500000D02*
G75*
G02*
X171000000Y-80500000I-500000J0D01*
G01*
X171000000Y-80500000D02*
G75*
G02*
X172000000Y-80500000I500000J0D01*
G01*
D11*
X84252917Y-77143896D02*
X168994803Y-77143897D01*
D10*
X175750000Y-86750000D02*
G75*
G02*
X174750000Y-86750000I-500000J0D01*
G01*
X174750000Y-86750000D02*
G75*
G02*
X175750000Y-86750000I500000J0D01*
G01*
D11*
X175859551Y-78854723D02*
G75*
G02*
X177677374Y-77124881I1731949J23D01*
G01*
D10*
X172000000Y-157350000D02*
G75*
G02*
X171000000Y-157350000I-500000J0D01*
G01*
X171000000Y-157350000D02*
G75*
G02*
X172000000Y-157350000I500000J0D01*
G01*
X175750000Y-116750000D02*
G75*
G02*
X174750000Y-116750000I-500000J0D01*
G01*
X174750000Y-116750000D02*
G75*
G02*
X175750000Y-116750000I500000J0D01*
G01*
X172000000Y-118000000D02*
G75*
G02*
X171000000Y-118000000I-500000J0D01*
G01*
X171000000Y-118000000D02*
G75*
G02*
X172000000Y-118000000I500000J0D01*
G01*
X172000000Y-158600000D02*
G75*
G02*
X171000000Y-158600000I-500000J0D01*
G01*
X171000000Y-158600000D02*
G75*
G02*
X172000000Y-158600000I500000J0D01*
G01*
D11*
X97272181Y-146182286D02*
X50550622Y-146182327D01*
X97272181Y-146182286D02*
X109274611Y-158459596D01*
D10*
X175750000Y-83000000D02*
G75*
G02*
X174750000Y-83000000I-500000J0D01*
G01*
X174750000Y-83000000D02*
G75*
G02*
X175750000Y-83000000I500000J0D01*
G01*
X175750000Y-149850000D02*
G75*
G02*
X174750000Y-149850000I-500000J0D01*
G01*
X174750000Y-149850000D02*
G75*
G02*
X175750000Y-149850000I500000J0D01*
G01*
D11*
X305609260Y-87837144D02*
X262916596Y-77184268D01*
D10*
X172000000Y-156100000D02*
G75*
G02*
X171000000Y-156100000I-500000J0D01*
G01*
X171000000Y-156100000D02*
G75*
G02*
X172000000Y-156100000I500000J0D01*
G01*
D11*
X262419395Y-77124809D02*
G75*
G02*
X262916596Y-77184267I13105J-1998991D01*
G01*
D10*
X172000000Y-81750000D02*
G75*
G02*
X171000000Y-81750000I-500000J0D01*
G01*
X171000000Y-81750000D02*
G75*
G02*
X172000000Y-81750000I500000J0D01*
G01*
X175750000Y-124250000D02*
G75*
G02*
X174750000Y-124250000I-500000J0D01*
G01*
X174750000Y-124250000D02*
G75*
G02*
X175750000Y-124250000I500000J0D01*
G01*
X175750000Y-81750000D02*
G75*
G02*
X174750000Y-81750000I-500000J0D01*
G01*
X174750000Y-81750000D02*
G75*
G02*
X175750000Y-81750000I500000J0D01*
G01*
X172000000Y-152350000D02*
G75*
G02*
X171000000Y-152350000I-500000J0D01*
G01*
X171000000Y-152350000D02*
G75*
G02*
X172000000Y-152350000I500000J0D01*
G01*
X175750000Y-89250000D02*
G75*
G02*
X174750000Y-89250000I-500000J0D01*
G01*
X174750000Y-89250000D02*
G75*
G02*
X175750000Y-89250000I500000J0D01*
G01*
X172000000Y-119250000D02*
G75*
G02*
X171000000Y-119250000I-500000J0D01*
G01*
X171000000Y-119250000D02*
G75*
G02*
X172000000Y-119250000I500000J0D01*
G01*
D11*
X170800000Y-90000000D02*
X175800000Y-90000000D01*
X175859551Y-78854723D02*
X175800000Y-79750000D01*
D10*
X172000000Y-154850000D02*
G75*
G02*
X171000000Y-154850000I-500000J0D01*
G01*
X171000000Y-154850000D02*
G75*
G02*
X172000000Y-154850000I500000J0D01*
G01*
X172000000Y-151100000D02*
G75*
G02*
X171000000Y-151100000I-500000J0D01*
G01*
X171000000Y-151100000D02*
G75*
G02*
X172000000Y-151100000I500000J0D01*
G01*
D11*
X186015085Y-176113013D02*
X175859549Y-163556753D01*
D10*
X172000000Y-83000000D02*
G75*
G02*
X171000000Y-83000000I-500000J0D01*
G01*
X171000000Y-83000000D02*
G75*
G02*
X172000000Y-83000000I500000J0D01*
G01*
D11*
X50550622Y-146182327D02*
G75*
G02*
X45600915Y-141889426I-22J4999927D01*
G01*
D10*
X175750000Y-157350000D02*
G75*
G02*
X174750000Y-157350000I-500000J0D01*
G01*
X174750000Y-157350000D02*
G75*
G02*
X175750000Y-157350000I500000J0D01*
G01*
X175750000Y-158600000D02*
G75*
G02*
X174750000Y-158600000I-500000J0D01*
G01*
X174750000Y-158600000D02*
G75*
G02*
X175750000Y-158600000I500000J0D01*
G01*
X175750000Y-84250000D02*
G75*
G02*
X174750000Y-84250000I-500000J0D01*
G01*
X174750000Y-84250000D02*
G75*
G02*
X175750000Y-84250000I500000J0D01*
G01*
D11*
X41062920Y-87856229D02*
X83755586Y-77203353D01*
X45600873Y-141889432D02*
X39558091Y-90005799D01*
D10*
X172000000Y-115500000D02*
G75*
G02*
X171000000Y-115500000I-500000J0D01*
G01*
X171000000Y-115500000D02*
G75*
G02*
X172000000Y-115500000I500000J0D01*
G01*
X175750000Y-119250000D02*
G75*
G02*
X174750000Y-119250000I-500000J0D01*
G01*
X174750000Y-119250000D02*
G75*
G02*
X175750000Y-119250000I500000J0D01*
G01*
D11*
X237397569Y-158440510D02*
X233897511Y-158450589D01*
X188916539Y-176403154D02*
G75*
G02*
X233897511Y-158450565I44606021J-46435116D01*
G01*
D10*
X172000000Y-116750000D02*
G75*
G02*
X171000000Y-116750000I-500000J0D01*
G01*
X171000000Y-116750000D02*
G75*
G02*
X172000000Y-116750000I500000J0D01*
G01*
D11*
X249400000Y-146163199D02*
X296121560Y-146163242D01*
X170800000Y-79750000D02*
X175800000Y-79750000D01*
X249400000Y-146163199D02*
X237397569Y-158440510D01*
X160657099Y-176132097D02*
G75*
G02*
X157755648Y-176422234I-1570799J1055697D01*
G01*
D10*
X175750000Y-85500000D02*
G75*
G02*
X174750000Y-85500000I-500000J0D01*
G01*
X174750000Y-85500000D02*
G75*
G02*
X175750000Y-85500000I500000J0D01*
G01*
D11*
X170800000Y-159400000D02*
X175800000Y-159400000D01*
D10*
X172000000Y-120500000D02*
G75*
G02*
X171000000Y-120500000I-500000J0D01*
G01*
X171000000Y-120500000D02*
G75*
G02*
X172000000Y-120500000I500000J0D01*
G01*
D11*
X109274611Y-158459596D02*
X112774672Y-158469675D01*
D10*
X172000000Y-86750000D02*
G75*
G02*
X171000000Y-86750000I-500000J0D01*
G01*
X171000000Y-86750000D02*
G75*
G02*
X172000000Y-86750000I500000J0D01*
G01*
X175750000Y-123000000D02*
G75*
G02*
X174750000Y-123000000I-500000J0D01*
G01*
X174750000Y-123000000D02*
G75*
G02*
X175750000Y-123000000I500000J0D01*
G01*
X175750000Y-152350000D02*
G75*
G02*
X174750000Y-152350000I-500000J0D01*
G01*
X174750000Y-152350000D02*
G75*
G02*
X175750000Y-152350000I500000J0D01*
G01*
X175750000Y-115500000D02*
G75*
G02*
X174750000Y-115500000I-500000J0D01*
G01*
X174750000Y-115500000D02*
G75*
G02*
X175750000Y-115500000I500000J0D01*
G01*
D11*
X112774672Y-158469646D02*
G75*
G02*
X157755641Y-176422241I374898J-64387814D01*
G01*
D10*
X172000000Y-121750000D02*
G75*
G02*
X171000000Y-121750000I-500000J0D01*
G01*
X171000000Y-121750000D02*
G75*
G02*
X172000000Y-121750000I500000J0D01*
G01*
D11*
X170800000Y-149100000D02*
X175800000Y-149100000D01*
D10*
X175750000Y-120500000D02*
G75*
G02*
X174750000Y-120500000I-500000J0D01*
G01*
X174750000Y-120500000D02*
G75*
G02*
X175750000Y-120500000I500000J0D01*
G01*
D11*
X170766582Y-78914974D02*
X170800000Y-79750000D01*
X305609260Y-87837144D02*
G75*
G02*
X307114008Y-89986701I-484260J-1940456D01*
G01*
X160657099Y-176132097D02*
X170812630Y-163575838D01*
X175800000Y-114750000D02*
X175800000Y-90000000D01*
X170800000Y-125000000D02*
X175800000Y-125000000D01*
X170800000Y-114750000D02*
X170800000Y-90000000D01*
X262419395Y-77124809D02*
X177677378Y-77124809D01*
D10*
X172000000Y-123000000D02*
G75*
G02*
X171000000Y-123000000I-500000J0D01*
G01*
X171000000Y-123000000D02*
G75*
G02*
X172000000Y-123000000I500000J0D01*
G01*
X172000000Y-84250000D02*
G75*
G02*
X171000000Y-84250000I-500000J0D01*
G01*
X171000000Y-84250000D02*
G75*
G02*
X172000000Y-84250000I500000J0D01*
G01*
D11*
X188916539Y-176403154D02*
G75*
G02*
X186015087Y-176113012I-1330639J1345954D01*
G01*
D10*
X172000000Y-153600000D02*
G75*
G02*
X171000000Y-153600000I-500000J0D01*
G01*
X171000000Y-153600000D02*
G75*
G02*
X172000000Y-153600000I500000J0D01*
G01*
D11*
X301071306Y-141870349D02*
G75*
G02*
X296121560Y-146163264I-4949806J707149D01*
G01*
D10*
X172000000Y-88000000D02*
G75*
G02*
X171000000Y-88000000I-500000J0D01*
G01*
X171000000Y-88000000D02*
G75*
G02*
X172000000Y-88000000I500000J0D01*
G01*
X175750000Y-88000000D02*
G75*
G02*
X174750000Y-88000000I-500000J0D01*
G01*
X174750000Y-88000000D02*
G75*
G02*
X175750000Y-88000000I500000J0D01*
G01*
X175750000Y-80500000D02*
G75*
G02*
X174750000Y-80500000I-500000J0D01*
G01*
X174750000Y-80500000D02*
G75*
G02*
X175750000Y-80500000I500000J0D01*
G01*
X175750000Y-156100000D02*
G75*
G02*
X174750000Y-156100000I-500000J0D01*
G01*
X174750000Y-156100000D02*
G75*
G02*
X175750000Y-156100000I500000J0D01*
G01*
X172000000Y-89250000D02*
G75*
G02*
X171000000Y-89250000I-500000J0D01*
G01*
X171000000Y-89250000D02*
G75*
G02*
X172000000Y-89250000I500000J0D01*
G01*
D11*
X175800000Y-149100000D02*
X175800000Y-125000000D01*
X83755586Y-77203353D02*
G75*
G02*
X84252917Y-77143897I484214J-1940547D01*
G01*
D10*
X175750000Y-151100000D02*
G75*
G02*
X174750000Y-151100000I-500000J0D01*
G01*
X174750000Y-151100000D02*
G75*
G02*
X175750000Y-151100000I500000J0D01*
G01*
X175750000Y-153600000D02*
G75*
G02*
X174750000Y-153600000I-500000J0D01*
G01*
X174750000Y-153600000D02*
G75*
G02*
X175750000Y-153600000I500000J0D01*
G01*
D11*
X39558091Y-90005799D02*
G75*
G02*
X41062927Y-87856255I1989109J208999D01*
G01*
X170812630Y-163575838D02*
X170800000Y-159400000D01*
D10*
X172000000Y-149850000D02*
G75*
G02*
X171000000Y-149850000I-500000J0D01*
G01*
X171000000Y-149850000D02*
G75*
G02*
X172000000Y-149850000I500000J0D01*
G01*
D11*
X301071306Y-141870349D02*
X307114092Y-89986710D01*
X168994803Y-77143898D02*
G75*
G02*
X170766534Y-78914972I85897J-1685802D01*
G01*
D10*
X172000000Y-85500000D02*
G75*
G02*
X171000000Y-85500000I-500000J0D01*
G01*
X171000000Y-85500000D02*
G75*
G02*
X172000000Y-85500000I500000J0D01*
G01*
X175750000Y-118000000D02*
G75*
G02*
X174750000Y-118000000I-500000J0D01*
G01*
X174750000Y-118000000D02*
G75*
G02*
X175750000Y-118000000I500000J0D01*
G01*
M02*
