M48
; DRILL file {KiCad 8.0.8} date 2025-05-06T09:20:43+0100
; FORMAT={-:-/ absolute / metric / decimal}
; #@! TF.CreationDate,2025-05-06T09:20:43+01:00
; #@! TF.GenerationSoftware,Kicad,Pcbnew,8.0.8
; #@! TF.FileFunction,NonPlated,1,2,NPTH
FMAT,2
METRIC
; #@! TA.AperFunction,NonPlated,NPTH,ComponentDrill
T1C1.900
; #@! TA.AperFunction,NonPlated,NPTH,ComponentDrill
T2C3.450
%
G90
G05
T1
X45.064Y-97.2
X47.05Y-116.096
X49.036Y-134.992
X56.004Y-96.05
X57.99Y-114.946
X59.976Y-133.842
X67.364Y-92.552
X68.027Y-111.541
X68.691Y-130.529
X78.358Y-92.168
X79.021Y-111.157
X79.684Y-130.145
X88.5Y-86.642
X88.5Y-105.642
X88.5Y-124.642
X99.5Y-86.642
X99.5Y-105.642
X99.5Y-124.642
X108.5Y-91.642
X108.5Y-110.642
X108.5Y-129.642
X112.5Y-148.642
X119.5Y-91.642
X119.5Y-110.642
X119.5Y-129.642
X123.5Y-148.642
X128.501Y-124.546
X128.833Y-105.549
X129.165Y-86.552
X134.832Y-150.761
X139.5Y-124.738
X139.831Y-105.741
X140.163Y-86.744
X145.169Y-154.523
X155.092Y-160.39
X163.519Y-167.461
X183.146Y-167.461
X191.572Y-160.39
X201.481Y-154.545
X206.459Y-86.982
X206.831Y-105.998
X207.133Y-125.012
X211.818Y-150.782
X217.457Y-86.79
X217.829Y-105.806
X218.131Y-124.82
X223.169Y-148.646
X227.149Y-110.616
X227.149Y-129.616
X227.159Y-91.626
X234.169Y-148.646
X238.149Y-110.616
X238.149Y-129.616
X238.159Y-91.626
X247.149Y-105.636
X247.149Y-124.636
X247.169Y-86.626
X258.149Y-105.636
X258.149Y-124.636
X258.169Y-86.626
X267.028Y-130.12
X267.691Y-111.131
X268.288Y-92.15
X278.021Y-130.504
X278.684Y-111.515
X279.281Y-92.534
X286.683Y-133.83
X288.669Y-114.934
X290.639Y-96.035
X297.623Y-134.98
X299.609Y-116.084
X301.579Y-97.184
T2
X50.534Y-96.625
X52.52Y-115.521
X54.506Y-134.417
X72.861Y-92.36
X73.524Y-111.349
X74.187Y-130.337
X94.0Y-86.642
X94.0Y-105.642
X94.0Y-124.642
X114.0Y-91.642
X114.0Y-110.642
X114.0Y-129.642
X118.0Y-148.642
X134.0Y-124.642
X134.332Y-105.645
X134.664Y-86.648
X140.0Y-152.642
X159.306Y-163.925
X187.359Y-163.925
X206.649Y-152.664
X211.958Y-86.886
X212.33Y-105.902
X212.632Y-124.916
X228.669Y-148.646
X232.649Y-110.616
X232.649Y-129.616
X232.659Y-91.626
X252.649Y-105.636
X252.649Y-124.636
X252.669Y-86.626
X272.524Y-130.312
X273.187Y-111.323
X273.784Y-92.342
X292.153Y-134.405
X294.139Y-115.509
X296.109Y-96.61
M30
