G04 #@! TF.GenerationSoftware,KiCad,Pcbnew,8.0.8*
G04 #@! TF.CreationDate,2025-05-06T09:20:42+01:00*
G04 #@! TF.ProjectId,main_wired,6d61696e-5f77-4697-9265-642e6b696361,0.1*
G04 #@! TF.SameCoordinates,Original*
G04 #@! TF.FileFunction,Legend,Bot*
G04 #@! TF.FilePolarity,Positive*
%FSLAX46Y46*%
G04 Gerber Fmt 4.6, Leading zero omitted, Abs format (unit mm)*
G04 Created by KiCad (PCBNEW 8.0.8) date 2025-05-06 09:20:42*
%MOMM*%
%LPD*%
G01*
G04 APERTURE LIST*
%ADD10C,0.300000*%
%ADD11C,0.200000*%
%ADD12C,0.000000*%
%ADD13C,2.200000*%
%ADD14C,1.900000*%
%ADD15C,3.450000*%
%ADD16C,5.700000*%
%ADD17R,2.000000X2.000000*%
%ADD18C,2.000000*%
%ADD19R,3.200000X2.000000*%
%ADD20C,1.752600*%
G04 APERTURE END LIST*
D10*
X84660274Y-144643071D02*
X84160274Y-143143071D01*
X84160274Y-143143071D02*
X83660274Y-144643071D01*
X83660274Y-144643071D02*
X84660274Y-144643071D01*
X82303132Y-143643071D02*
X82517418Y-144357357D01*
X82517418Y-144357357D02*
X82588846Y-144500214D01*
X82588846Y-144500214D02*
X82660275Y-144571643D01*
X82660275Y-144571643D02*
X82803132Y-144643071D01*
X82803132Y-144643071D02*
X82945989Y-144643071D01*
X82945989Y-144643071D02*
X83088846Y-144571643D01*
X83088846Y-144571643D02*
X83160275Y-144500214D01*
X83160275Y-144500214D02*
X83231703Y-144285928D01*
X83231703Y-144285928D02*
X83231703Y-144000214D01*
X83231703Y-144000214D02*
X83160275Y-143785928D01*
X83160275Y-143785928D02*
X83088846Y-143714500D01*
X83088846Y-143714500D02*
X82945989Y-143643071D01*
X82945989Y-143643071D02*
X82803132Y-143643071D01*
X82803132Y-143643071D02*
X82660275Y-143714500D01*
X82660275Y-143714500D02*
X82588846Y-143785928D01*
X82588846Y-143785928D02*
X82517418Y-143928785D01*
X82517418Y-143928785D02*
X82445989Y-144428785D01*
X82445989Y-144428785D02*
X82374560Y-144571643D01*
X82374560Y-144571643D02*
X82231703Y-144643071D01*
X81660275Y-143643071D02*
X81660275Y-144428785D01*
X81660275Y-144428785D02*
X81588846Y-144571643D01*
X81588846Y-144571643D02*
X81445989Y-144643071D01*
X81517418Y-143071643D02*
X81731703Y-143285928D01*
X80445989Y-143643071D02*
X80660275Y-143643071D01*
X80660275Y-143643071D02*
X80803132Y-143714500D01*
X80803132Y-143714500D02*
X80874561Y-143785928D01*
X80874561Y-143785928D02*
X80945989Y-143928785D01*
X80945989Y-143928785D02*
X80945989Y-144357357D01*
X80945989Y-144357357D02*
X80874561Y-144500214D01*
X80874561Y-144500214D02*
X80803132Y-144571643D01*
X80803132Y-144571643D02*
X80660275Y-144643071D01*
X80660275Y-144643071D02*
X80445989Y-144643071D01*
X80445989Y-144643071D02*
X80303132Y-144571643D01*
X80303132Y-144571643D02*
X80231704Y-144500214D01*
X80231704Y-144500214D02*
X80160275Y-144357357D01*
X80160275Y-144357357D02*
X80160275Y-143928785D01*
X80160275Y-143928785D02*
X80231704Y-143785928D01*
X80231704Y-143785928D02*
X80303132Y-143714500D01*
X80303132Y-143714500D02*
X80445989Y-143643071D01*
X80445989Y-143643071D02*
X80660275Y-143571643D01*
X80660275Y-143571643D02*
X80803132Y-143500214D01*
X80803132Y-143500214D02*
X80874561Y-143357357D01*
X80874561Y-143357357D02*
X80803132Y-143214500D01*
X80803132Y-143214500D02*
X80660275Y-143143071D01*
X80660275Y-143143071D02*
X80374561Y-143143071D01*
X80374561Y-143143071D02*
X80231704Y-143214500D01*
X78660275Y-143643071D02*
X78874561Y-144357357D01*
X78874561Y-144357357D02*
X78945989Y-144500214D01*
X78945989Y-144500214D02*
X79017418Y-144571643D01*
X79017418Y-144571643D02*
X79160275Y-144643071D01*
X79160275Y-144643071D02*
X79303132Y-144643071D01*
X79303132Y-144643071D02*
X79445989Y-144571643D01*
X79445989Y-144571643D02*
X79517418Y-144500214D01*
X79517418Y-144500214D02*
X79588846Y-144285928D01*
X79588846Y-144285928D02*
X79588846Y-144000214D01*
X79588846Y-144000214D02*
X79517418Y-143785928D01*
X79517418Y-143785928D02*
X79445989Y-143714500D01*
X79445989Y-143714500D02*
X79303132Y-143643071D01*
X79303132Y-143643071D02*
X79160275Y-143643071D01*
X79160275Y-143643071D02*
X79017418Y-143714500D01*
X79017418Y-143714500D02*
X78945989Y-143785928D01*
X78945989Y-143785928D02*
X78874561Y-143928785D01*
X78874561Y-143928785D02*
X78803132Y-144428785D01*
X78803132Y-144428785D02*
X78731703Y-144571643D01*
X78731703Y-144571643D02*
X78588846Y-144643071D01*
X77803132Y-143643071D02*
X78160275Y-144643071D01*
X78160275Y-143143071D02*
X78017418Y-143143071D01*
X78017418Y-143143071D02*
X77945989Y-143214500D01*
X77945989Y-143214500D02*
X77803132Y-143643071D01*
X77803132Y-143643071D02*
X77445989Y-144643071D01*
X76660275Y-144643071D02*
X76803132Y-144571643D01*
X76803132Y-144571643D02*
X76874561Y-144500214D01*
X76874561Y-144500214D02*
X76945989Y-144357357D01*
X76945989Y-144357357D02*
X76945989Y-143928785D01*
X76945989Y-143928785D02*
X76874561Y-143785928D01*
X76874561Y-143785928D02*
X76803132Y-143714500D01*
X76803132Y-143714500D02*
X76660275Y-143643071D01*
X76660275Y-143643071D02*
X76445989Y-143643071D01*
X76445989Y-143643071D02*
X76303132Y-143714500D01*
X76303132Y-143714500D02*
X76231704Y-143785928D01*
X76231704Y-143785928D02*
X76160275Y-143928785D01*
X76160275Y-143928785D02*
X76160275Y-144357357D01*
X76160275Y-144357357D02*
X76231704Y-144500214D01*
X76231704Y-144500214D02*
X76303132Y-144571643D01*
X76303132Y-144571643D02*
X76445989Y-144643071D01*
X76445989Y-144643071D02*
X76660275Y-144643071D01*
X74874561Y-143714500D02*
X75017418Y-143643071D01*
X75017418Y-143643071D02*
X75303132Y-143643071D01*
X75303132Y-143643071D02*
X75445989Y-143714500D01*
X75445989Y-143714500D02*
X75517418Y-143785928D01*
X75517418Y-143785928D02*
X75588846Y-143928785D01*
X75588846Y-143928785D02*
X75588846Y-144357357D01*
X75588846Y-144357357D02*
X75517418Y-144500214D01*
X75517418Y-144500214D02*
X75445989Y-144571643D01*
X75445989Y-144571643D02*
X75303132Y-144643071D01*
X75303132Y-144643071D02*
X75088846Y-144643071D01*
X75088846Y-144643071D02*
X74945989Y-144714500D01*
X74945989Y-144714500D02*
X74874561Y-144857357D01*
X74874561Y-144857357D02*
X74874561Y-144928785D01*
X74874561Y-144928785D02*
X74945989Y-145071643D01*
X74945989Y-145071643D02*
X75088846Y-145143071D01*
X272559774Y-144464027D02*
X272059774Y-142964027D01*
X272059774Y-142964027D02*
X271559774Y-144464027D01*
X271559774Y-144464027D02*
X272559774Y-144464027D01*
X270202632Y-143464027D02*
X270416918Y-144178313D01*
X270416918Y-144178313D02*
X270488346Y-144321170D01*
X270488346Y-144321170D02*
X270559775Y-144392599D01*
X270559775Y-144392599D02*
X270702632Y-144464027D01*
X270702632Y-144464027D02*
X270845489Y-144464027D01*
X270845489Y-144464027D02*
X270988346Y-144392599D01*
X270988346Y-144392599D02*
X271059775Y-144321170D01*
X271059775Y-144321170D02*
X271131203Y-144106884D01*
X271131203Y-144106884D02*
X271131203Y-143821170D01*
X271131203Y-143821170D02*
X271059775Y-143606884D01*
X271059775Y-143606884D02*
X270988346Y-143535456D01*
X270988346Y-143535456D02*
X270845489Y-143464027D01*
X270845489Y-143464027D02*
X270702632Y-143464027D01*
X270702632Y-143464027D02*
X270559775Y-143535456D01*
X270559775Y-143535456D02*
X270488346Y-143606884D01*
X270488346Y-143606884D02*
X270416918Y-143749741D01*
X270416918Y-143749741D02*
X270345489Y-144249741D01*
X270345489Y-144249741D02*
X270274060Y-144392599D01*
X270274060Y-144392599D02*
X270131203Y-144464027D01*
X269559775Y-143464027D02*
X269559775Y-144249741D01*
X269559775Y-144249741D02*
X269488346Y-144392599D01*
X269488346Y-144392599D02*
X269345489Y-144464027D01*
X269416918Y-142892599D02*
X269631203Y-143106884D01*
X268345489Y-143464027D02*
X268559775Y-143464027D01*
X268559775Y-143464027D02*
X268702632Y-143535456D01*
X268702632Y-143535456D02*
X268774061Y-143606884D01*
X268774061Y-143606884D02*
X268845489Y-143749741D01*
X268845489Y-143749741D02*
X268845489Y-144178313D01*
X268845489Y-144178313D02*
X268774061Y-144321170D01*
X268774061Y-144321170D02*
X268702632Y-144392599D01*
X268702632Y-144392599D02*
X268559775Y-144464027D01*
X268559775Y-144464027D02*
X268345489Y-144464027D01*
X268345489Y-144464027D02*
X268202632Y-144392599D01*
X268202632Y-144392599D02*
X268131204Y-144321170D01*
X268131204Y-144321170D02*
X268059775Y-144178313D01*
X268059775Y-144178313D02*
X268059775Y-143749741D01*
X268059775Y-143749741D02*
X268131204Y-143606884D01*
X268131204Y-143606884D02*
X268202632Y-143535456D01*
X268202632Y-143535456D02*
X268345489Y-143464027D01*
X268345489Y-143464027D02*
X268559775Y-143392599D01*
X268559775Y-143392599D02*
X268702632Y-143321170D01*
X268702632Y-143321170D02*
X268774061Y-143178313D01*
X268774061Y-143178313D02*
X268702632Y-143035456D01*
X268702632Y-143035456D02*
X268559775Y-142964027D01*
X268559775Y-142964027D02*
X268274061Y-142964027D01*
X268274061Y-142964027D02*
X268131204Y-143035456D01*
X266559775Y-143464027D02*
X266774061Y-144178313D01*
X266774061Y-144178313D02*
X266845489Y-144321170D01*
X266845489Y-144321170D02*
X266916918Y-144392599D01*
X266916918Y-144392599D02*
X267059775Y-144464027D01*
X267059775Y-144464027D02*
X267202632Y-144464027D01*
X267202632Y-144464027D02*
X267345489Y-144392599D01*
X267345489Y-144392599D02*
X267416918Y-144321170D01*
X267416918Y-144321170D02*
X267488346Y-144106884D01*
X267488346Y-144106884D02*
X267488346Y-143821170D01*
X267488346Y-143821170D02*
X267416918Y-143606884D01*
X267416918Y-143606884D02*
X267345489Y-143535456D01*
X267345489Y-143535456D02*
X267202632Y-143464027D01*
X267202632Y-143464027D02*
X267059775Y-143464027D01*
X267059775Y-143464027D02*
X266916918Y-143535456D01*
X266916918Y-143535456D02*
X266845489Y-143606884D01*
X266845489Y-143606884D02*
X266774061Y-143749741D01*
X266774061Y-143749741D02*
X266702632Y-144249741D01*
X266702632Y-144249741D02*
X266631203Y-144392599D01*
X266631203Y-144392599D02*
X266488346Y-144464027D01*
X265702632Y-143464027D02*
X266059775Y-144464027D01*
X266059775Y-142964027D02*
X265916918Y-142964027D01*
X265916918Y-142964027D02*
X265845489Y-143035456D01*
X265845489Y-143035456D02*
X265702632Y-143464027D01*
X265702632Y-143464027D02*
X265345489Y-144464027D01*
X264559775Y-144464027D02*
X264702632Y-144392599D01*
X264702632Y-144392599D02*
X264774061Y-144321170D01*
X264774061Y-144321170D02*
X264845489Y-144178313D01*
X264845489Y-144178313D02*
X264845489Y-143749741D01*
X264845489Y-143749741D02*
X264774061Y-143606884D01*
X264774061Y-143606884D02*
X264702632Y-143535456D01*
X264702632Y-143535456D02*
X264559775Y-143464027D01*
X264559775Y-143464027D02*
X264345489Y-143464027D01*
X264345489Y-143464027D02*
X264202632Y-143535456D01*
X264202632Y-143535456D02*
X264131204Y-143606884D01*
X264131204Y-143606884D02*
X264059775Y-143749741D01*
X264059775Y-143749741D02*
X264059775Y-144178313D01*
X264059775Y-144178313D02*
X264131204Y-144321170D01*
X264131204Y-144321170D02*
X264202632Y-144392599D01*
X264202632Y-144392599D02*
X264345489Y-144464027D01*
X264345489Y-144464027D02*
X264559775Y-144464027D01*
X262774061Y-143535456D02*
X262916918Y-143464027D01*
X262916918Y-143464027D02*
X263202632Y-143464027D01*
X263202632Y-143464027D02*
X263345489Y-143535456D01*
X263345489Y-143535456D02*
X263416918Y-143606884D01*
X263416918Y-143606884D02*
X263488346Y-143749741D01*
X263488346Y-143749741D02*
X263488346Y-144178313D01*
X263488346Y-144178313D02*
X263416918Y-144321170D01*
X263416918Y-144321170D02*
X263345489Y-144392599D01*
X263345489Y-144392599D02*
X263202632Y-144464027D01*
X263202632Y-144464027D02*
X262988346Y-144464027D01*
X262988346Y-144464027D02*
X262845489Y-144535456D01*
X262845489Y-144535456D02*
X262774061Y-144678313D01*
X262774061Y-144678313D02*
X262774061Y-144749741D01*
X262774061Y-144749741D02*
X262845489Y-144892599D01*
X262845489Y-144892599D02*
X262988346Y-144964027D01*
D11*
X176803135Y-92534209D02*
X176755516Y-92486590D01*
X176755516Y-92486590D02*
X176660278Y-92438971D01*
X176660278Y-92438971D02*
X176422183Y-92438971D01*
X176422183Y-92438971D02*
X176326945Y-92486590D01*
X176326945Y-92486590D02*
X176279326Y-92534209D01*
X176279326Y-92534209D02*
X176231707Y-92629447D01*
X176231707Y-92629447D02*
X176231707Y-92724685D01*
X176231707Y-92724685D02*
X176279326Y-92867542D01*
X176279326Y-92867542D02*
X176850754Y-93438971D01*
X176850754Y-93438971D02*
X176231707Y-93438971D01*
X192506517Y-84663037D02*
X192601755Y-84615418D01*
X192601755Y-84615418D02*
X192744612Y-84615418D01*
X192744612Y-84615418D02*
X192887469Y-84663037D01*
X192887469Y-84663037D02*
X192982707Y-84758275D01*
X192982707Y-84758275D02*
X193030326Y-84853513D01*
X193030326Y-84853513D02*
X193077945Y-85043989D01*
X193077945Y-85043989D02*
X193077945Y-85186846D01*
X193077945Y-85186846D02*
X193030326Y-85377322D01*
X193030326Y-85377322D02*
X192982707Y-85472560D01*
X192982707Y-85472560D02*
X192887469Y-85567799D01*
X192887469Y-85567799D02*
X192744612Y-85615418D01*
X192744612Y-85615418D02*
X192649374Y-85615418D01*
X192649374Y-85615418D02*
X192506517Y-85567799D01*
X192506517Y-85567799D02*
X192458898Y-85520179D01*
X192458898Y-85520179D02*
X192458898Y-85186846D01*
X192458898Y-85186846D02*
X192649374Y-85186846D01*
X192030326Y-85615418D02*
X192030326Y-84615418D01*
X192030326Y-84615418D02*
X191458898Y-85615418D01*
X191458898Y-85615418D02*
X191458898Y-84615418D01*
X190982707Y-85615418D02*
X190982707Y-84615418D01*
X190982707Y-84615418D02*
X190744612Y-84615418D01*
X190744612Y-84615418D02*
X190601755Y-84663037D01*
X190601755Y-84663037D02*
X190506517Y-84758275D01*
X190506517Y-84758275D02*
X190458898Y-84853513D01*
X190458898Y-84853513D02*
X190411279Y-85043989D01*
X190411279Y-85043989D02*
X190411279Y-85186846D01*
X190411279Y-85186846D02*
X190458898Y-85377322D01*
X190458898Y-85377322D02*
X190506517Y-85472560D01*
X190506517Y-85472560D02*
X190601755Y-85567799D01*
X190601755Y-85567799D02*
X190744612Y-85615418D01*
X190744612Y-85615418D02*
X190982707Y-85615418D01*
X192436340Y-88358971D02*
X192769673Y-87882780D01*
X193007768Y-88358971D02*
X193007768Y-87358971D01*
X193007768Y-87358971D02*
X192626816Y-87358971D01*
X192626816Y-87358971D02*
X192531578Y-87406590D01*
X192531578Y-87406590D02*
X192483959Y-87454209D01*
X192483959Y-87454209D02*
X192436340Y-87549447D01*
X192436340Y-87549447D02*
X192436340Y-87692304D01*
X192436340Y-87692304D02*
X192483959Y-87787542D01*
X192483959Y-87787542D02*
X192531578Y-87835161D01*
X192531578Y-87835161D02*
X192626816Y-87882780D01*
X192626816Y-87882780D02*
X193007768Y-87882780D01*
X192055387Y-88311352D02*
X191912530Y-88358971D01*
X191912530Y-88358971D02*
X191674435Y-88358971D01*
X191674435Y-88358971D02*
X191579197Y-88311352D01*
X191579197Y-88311352D02*
X191531578Y-88263732D01*
X191531578Y-88263732D02*
X191483959Y-88168494D01*
X191483959Y-88168494D02*
X191483959Y-88073256D01*
X191483959Y-88073256D02*
X191531578Y-87978018D01*
X191531578Y-87978018D02*
X191579197Y-87930399D01*
X191579197Y-87930399D02*
X191674435Y-87882780D01*
X191674435Y-87882780D02*
X191864911Y-87835161D01*
X191864911Y-87835161D02*
X191960149Y-87787542D01*
X191960149Y-87787542D02*
X192007768Y-87739923D01*
X192007768Y-87739923D02*
X192055387Y-87644685D01*
X192055387Y-87644685D02*
X192055387Y-87549447D01*
X192055387Y-87549447D02*
X192007768Y-87454209D01*
X192007768Y-87454209D02*
X191960149Y-87406590D01*
X191960149Y-87406590D02*
X191864911Y-87358971D01*
X191864911Y-87358971D02*
X191626816Y-87358971D01*
X191626816Y-87358971D02*
X191483959Y-87406590D01*
X191198244Y-87358971D02*
X190626816Y-87358971D01*
X190912530Y-88358971D02*
X190912530Y-87358971D01*
X176850754Y-94978971D02*
X176231707Y-94978971D01*
X176231707Y-94978971D02*
X176565040Y-95359923D01*
X176565040Y-95359923D02*
X176422183Y-95359923D01*
X176422183Y-95359923D02*
X176326945Y-95407542D01*
X176326945Y-95407542D02*
X176279326Y-95455161D01*
X176279326Y-95455161D02*
X176231707Y-95550399D01*
X176231707Y-95550399D02*
X176231707Y-95788494D01*
X176231707Y-95788494D02*
X176279326Y-95883732D01*
X176279326Y-95883732D02*
X176326945Y-95931352D01*
X176326945Y-95931352D02*
X176422183Y-95978971D01*
X176422183Y-95978971D02*
X176707897Y-95978971D01*
X176707897Y-95978971D02*
X176803135Y-95931352D01*
X176803135Y-95931352D02*
X176850754Y-95883732D01*
X198719624Y-108678971D02*
X199291052Y-108678971D01*
X199005338Y-108678971D02*
X199005338Y-107678971D01*
X199005338Y-107678971D02*
X199100576Y-107821828D01*
X199100576Y-107821828D02*
X199195814Y-107917066D01*
X199195814Y-107917066D02*
X199291052Y-107964685D01*
X197862481Y-107678971D02*
X198052957Y-107678971D01*
X198052957Y-107678971D02*
X198148195Y-107726590D01*
X198148195Y-107726590D02*
X198195814Y-107774209D01*
X198195814Y-107774209D02*
X198291052Y-107917066D01*
X198291052Y-107917066D02*
X198338671Y-108107542D01*
X198338671Y-108107542D02*
X198338671Y-108488494D01*
X198338671Y-108488494D02*
X198291052Y-108583732D01*
X198291052Y-108583732D02*
X198243433Y-108631352D01*
X198243433Y-108631352D02*
X198148195Y-108678971D01*
X198148195Y-108678971D02*
X197957719Y-108678971D01*
X197957719Y-108678971D02*
X197862481Y-108631352D01*
X197862481Y-108631352D02*
X197814862Y-108583732D01*
X197814862Y-108583732D02*
X197767243Y-108488494D01*
X197767243Y-108488494D02*
X197767243Y-108250399D01*
X197767243Y-108250399D02*
X197814862Y-108155161D01*
X197814862Y-108155161D02*
X197862481Y-108107542D01*
X197862481Y-108107542D02*
X197957719Y-108059923D01*
X197957719Y-108059923D02*
X198148195Y-108059923D01*
X198148195Y-108059923D02*
X198243433Y-108107542D01*
X198243433Y-108107542D02*
X198291052Y-108155161D01*
X198291052Y-108155161D02*
X198338671Y-108250399D01*
X176612659Y-108107542D02*
X176707897Y-108059923D01*
X176707897Y-108059923D02*
X176755516Y-108012304D01*
X176755516Y-108012304D02*
X176803135Y-107917066D01*
X176803135Y-107917066D02*
X176803135Y-107869447D01*
X176803135Y-107869447D02*
X176755516Y-107774209D01*
X176755516Y-107774209D02*
X176707897Y-107726590D01*
X176707897Y-107726590D02*
X176612659Y-107678971D01*
X176612659Y-107678971D02*
X176422183Y-107678971D01*
X176422183Y-107678971D02*
X176326945Y-107726590D01*
X176326945Y-107726590D02*
X176279326Y-107774209D01*
X176279326Y-107774209D02*
X176231707Y-107869447D01*
X176231707Y-107869447D02*
X176231707Y-107917066D01*
X176231707Y-107917066D02*
X176279326Y-108012304D01*
X176279326Y-108012304D02*
X176326945Y-108059923D01*
X176326945Y-108059923D02*
X176422183Y-108107542D01*
X176422183Y-108107542D02*
X176612659Y-108107542D01*
X176612659Y-108107542D02*
X176707897Y-108155161D01*
X176707897Y-108155161D02*
X176755516Y-108202780D01*
X176755516Y-108202780D02*
X176803135Y-108298018D01*
X176803135Y-108298018D02*
X176803135Y-108488494D01*
X176803135Y-108488494D02*
X176755516Y-108583732D01*
X176755516Y-108583732D02*
X176707897Y-108631352D01*
X176707897Y-108631352D02*
X176612659Y-108678971D01*
X176612659Y-108678971D02*
X176422183Y-108678971D01*
X176422183Y-108678971D02*
X176326945Y-108631352D01*
X176326945Y-108631352D02*
X176279326Y-108583732D01*
X176279326Y-108583732D02*
X176231707Y-108488494D01*
X176231707Y-108488494D02*
X176231707Y-108298018D01*
X176231707Y-108298018D02*
X176279326Y-108202780D01*
X176279326Y-108202780D02*
X176326945Y-108155161D01*
X176326945Y-108155161D02*
X176422183Y-108107542D01*
X176565040Y-84818972D02*
X176469802Y-84818972D01*
X176469802Y-84818972D02*
X176374564Y-84866591D01*
X176374564Y-84866591D02*
X176326945Y-84914210D01*
X176326945Y-84914210D02*
X176279326Y-85009448D01*
X176279326Y-85009448D02*
X176231707Y-85199924D01*
X176231707Y-85199924D02*
X176231707Y-85438019D01*
X176231707Y-85438019D02*
X176279326Y-85628495D01*
X176279326Y-85628495D02*
X176326945Y-85723733D01*
X176326945Y-85723733D02*
X176374564Y-85771353D01*
X176374564Y-85771353D02*
X176469802Y-85818972D01*
X176469802Y-85818972D02*
X176565040Y-85818972D01*
X176565040Y-85818972D02*
X176660278Y-85771353D01*
X176660278Y-85771353D02*
X176707897Y-85723733D01*
X176707897Y-85723733D02*
X176755516Y-85628495D01*
X176755516Y-85628495D02*
X176803135Y-85438019D01*
X176803135Y-85438019D02*
X176803135Y-85199924D01*
X176803135Y-85199924D02*
X176755516Y-85009448D01*
X176755516Y-85009448D02*
X176707897Y-84914210D01*
X176707897Y-84914210D02*
X176660278Y-84866591D01*
X176660278Y-84866591D02*
X176565040Y-84818972D01*
X187618522Y-107678969D02*
X186951856Y-107678969D01*
X186951856Y-107678969D02*
X187380427Y-108678969D01*
X181919475Y-108678971D02*
X182490903Y-108678971D01*
X182205189Y-108678971D02*
X182205189Y-107678971D01*
X182205189Y-107678971D02*
X182300427Y-107821828D01*
X182300427Y-107821828D02*
X182395665Y-107917066D01*
X182395665Y-107917066D02*
X182490903Y-107964685D01*
X183506517Y-89946590D02*
X183601755Y-89898971D01*
X183601755Y-89898971D02*
X183744612Y-89898971D01*
X183744612Y-89898971D02*
X183887469Y-89946590D01*
X183887469Y-89946590D02*
X183982707Y-90041828D01*
X183982707Y-90041828D02*
X184030326Y-90137066D01*
X184030326Y-90137066D02*
X184077945Y-90327542D01*
X184077945Y-90327542D02*
X184077945Y-90470399D01*
X184077945Y-90470399D02*
X184030326Y-90660875D01*
X184030326Y-90660875D02*
X183982707Y-90756113D01*
X183982707Y-90756113D02*
X183887469Y-90851352D01*
X183887469Y-90851352D02*
X183744612Y-90898971D01*
X183744612Y-90898971D02*
X183649374Y-90898971D01*
X183649374Y-90898971D02*
X183506517Y-90851352D01*
X183506517Y-90851352D02*
X183458898Y-90803732D01*
X183458898Y-90803732D02*
X183458898Y-90470399D01*
X183458898Y-90470399D02*
X183649374Y-90470399D01*
X183030326Y-90898971D02*
X183030326Y-89898971D01*
X183030326Y-89898971D02*
X182458898Y-90898971D01*
X182458898Y-90898971D02*
X182458898Y-89898971D01*
X181982707Y-90898971D02*
X181982707Y-89898971D01*
X181982707Y-89898971D02*
X181744612Y-89898971D01*
X181744612Y-89898971D02*
X181601755Y-89946590D01*
X181601755Y-89946590D02*
X181506517Y-90041828D01*
X181506517Y-90041828D02*
X181458898Y-90137066D01*
X181458898Y-90137066D02*
X181411279Y-90327542D01*
X181411279Y-90327542D02*
X181411279Y-90470399D01*
X181411279Y-90470399D02*
X181458898Y-90660875D01*
X181458898Y-90660875D02*
X181506517Y-90756113D01*
X181506517Y-90756113D02*
X181601755Y-90851352D01*
X181601755Y-90851352D02*
X181744612Y-90898971D01*
X181744612Y-90898971D02*
X181982707Y-90898971D01*
X199291053Y-95074209D02*
X199243434Y-95026590D01*
X199243434Y-95026590D02*
X199148196Y-94978971D01*
X199148196Y-94978971D02*
X198910101Y-94978971D01*
X198910101Y-94978971D02*
X198814863Y-95026590D01*
X198814863Y-95026590D02*
X198767244Y-95074209D01*
X198767244Y-95074209D02*
X198719625Y-95169447D01*
X198719625Y-95169447D02*
X198719625Y-95264685D01*
X198719625Y-95264685D02*
X198767244Y-95407542D01*
X198767244Y-95407542D02*
X199338672Y-95978971D01*
X199338672Y-95978971D02*
X198719625Y-95978971D01*
X198100577Y-94978971D02*
X198005339Y-94978971D01*
X198005339Y-94978971D02*
X197910101Y-95026590D01*
X197910101Y-95026590D02*
X197862482Y-95074209D01*
X197862482Y-95074209D02*
X197814863Y-95169447D01*
X197814863Y-95169447D02*
X197767244Y-95359923D01*
X197767244Y-95359923D02*
X197767244Y-95598018D01*
X197767244Y-95598018D02*
X197814863Y-95788494D01*
X197814863Y-95788494D02*
X197862482Y-95883732D01*
X197862482Y-95883732D02*
X197910101Y-95931352D01*
X197910101Y-95931352D02*
X198005339Y-95978971D01*
X198005339Y-95978971D02*
X198100577Y-95978971D01*
X198100577Y-95978971D02*
X198195815Y-95931352D01*
X198195815Y-95931352D02*
X198243434Y-95883732D01*
X198243434Y-95883732D02*
X198291053Y-95788494D01*
X198291053Y-95788494D02*
X198338672Y-95598018D01*
X198338672Y-95598018D02*
X198338672Y-95359923D01*
X198338672Y-95359923D02*
X198291053Y-95169447D01*
X198291053Y-95169447D02*
X198243434Y-95074209D01*
X198243434Y-95074209D02*
X198195815Y-95026590D01*
X198195815Y-95026590D02*
X198100577Y-94978971D01*
X176707897Y-111218971D02*
X176517421Y-111218971D01*
X176517421Y-111218971D02*
X176422183Y-111171352D01*
X176422183Y-111171352D02*
X176374564Y-111123732D01*
X176374564Y-111123732D02*
X176279326Y-110980875D01*
X176279326Y-110980875D02*
X176231707Y-110790399D01*
X176231707Y-110790399D02*
X176231707Y-110409447D01*
X176231707Y-110409447D02*
X176279326Y-110314209D01*
X176279326Y-110314209D02*
X176326945Y-110266590D01*
X176326945Y-110266590D02*
X176422183Y-110218971D01*
X176422183Y-110218971D02*
X176612659Y-110218971D01*
X176612659Y-110218971D02*
X176707897Y-110266590D01*
X176707897Y-110266590D02*
X176755516Y-110314209D01*
X176755516Y-110314209D02*
X176803135Y-110409447D01*
X176803135Y-110409447D02*
X176803135Y-110647542D01*
X176803135Y-110647542D02*
X176755516Y-110742780D01*
X176755516Y-110742780D02*
X176707897Y-110790399D01*
X176707897Y-110790399D02*
X176612659Y-110838018D01*
X176612659Y-110838018D02*
X176422183Y-110838018D01*
X176422183Y-110838018D02*
X176326945Y-110790399D01*
X176326945Y-110790399D02*
X176279326Y-110742780D01*
X176279326Y-110742780D02*
X176231707Y-110647542D01*
X200576767Y-89898971D02*
X199957720Y-89898971D01*
X199957720Y-89898971D02*
X200291053Y-90279923D01*
X200291053Y-90279923D02*
X200148196Y-90279923D01*
X200148196Y-90279923D02*
X200052958Y-90327542D01*
X200052958Y-90327542D02*
X200005339Y-90375161D01*
X200005339Y-90375161D02*
X199957720Y-90470399D01*
X199957720Y-90470399D02*
X199957720Y-90708494D01*
X199957720Y-90708494D02*
X200005339Y-90803732D01*
X200005339Y-90803732D02*
X200052958Y-90851352D01*
X200052958Y-90851352D02*
X200148196Y-90898971D01*
X200148196Y-90898971D02*
X200433910Y-90898971D01*
X200433910Y-90898971D02*
X200529148Y-90851352D01*
X200529148Y-90851352D02*
X200576767Y-90803732D01*
X199529148Y-90803732D02*
X199481529Y-90851352D01*
X199481529Y-90851352D02*
X199529148Y-90898971D01*
X199529148Y-90898971D02*
X199576767Y-90851352D01*
X199576767Y-90851352D02*
X199529148Y-90803732D01*
X199529148Y-90803732D02*
X199529148Y-90898971D01*
X199148196Y-89898971D02*
X198529149Y-89898971D01*
X198529149Y-89898971D02*
X198862482Y-90279923D01*
X198862482Y-90279923D02*
X198719625Y-90279923D01*
X198719625Y-90279923D02*
X198624387Y-90327542D01*
X198624387Y-90327542D02*
X198576768Y-90375161D01*
X198576768Y-90375161D02*
X198529149Y-90470399D01*
X198529149Y-90470399D02*
X198529149Y-90708494D01*
X198529149Y-90708494D02*
X198576768Y-90803732D01*
X198576768Y-90803732D02*
X198624387Y-90851352D01*
X198624387Y-90851352D02*
X198719625Y-90898971D01*
X198719625Y-90898971D02*
X199005339Y-90898971D01*
X199005339Y-90898971D02*
X199100577Y-90851352D01*
X199100577Y-90851352D02*
X199148196Y-90803732D01*
X198195815Y-90232304D02*
X197957720Y-90898971D01*
X197957720Y-90898971D02*
X197719625Y-90232304D01*
X198719625Y-101058971D02*
X199291053Y-101058971D01*
X199005339Y-101058971D02*
X199005339Y-100058971D01*
X199005339Y-100058971D02*
X199100577Y-100201828D01*
X199100577Y-100201828D02*
X199195815Y-100297066D01*
X199195815Y-100297066D02*
X199291053Y-100344685D01*
X198148196Y-100487542D02*
X198243434Y-100439923D01*
X198243434Y-100439923D02*
X198291053Y-100392304D01*
X198291053Y-100392304D02*
X198338672Y-100297066D01*
X198338672Y-100297066D02*
X198338672Y-100249447D01*
X198338672Y-100249447D02*
X198291053Y-100154209D01*
X198291053Y-100154209D02*
X198243434Y-100106590D01*
X198243434Y-100106590D02*
X198148196Y-100058971D01*
X198148196Y-100058971D02*
X197957720Y-100058971D01*
X197957720Y-100058971D02*
X197862482Y-100106590D01*
X197862482Y-100106590D02*
X197814863Y-100154209D01*
X197814863Y-100154209D02*
X197767244Y-100249447D01*
X197767244Y-100249447D02*
X197767244Y-100297066D01*
X197767244Y-100297066D02*
X197814863Y-100392304D01*
X197814863Y-100392304D02*
X197862482Y-100439923D01*
X197862482Y-100439923D02*
X197957720Y-100487542D01*
X197957720Y-100487542D02*
X198148196Y-100487542D01*
X198148196Y-100487542D02*
X198243434Y-100535161D01*
X198243434Y-100535161D02*
X198291053Y-100582780D01*
X198291053Y-100582780D02*
X198338672Y-100678018D01*
X198338672Y-100678018D02*
X198338672Y-100868494D01*
X198338672Y-100868494D02*
X198291053Y-100963732D01*
X198291053Y-100963732D02*
X198243434Y-101011352D01*
X198243434Y-101011352D02*
X198148196Y-101058971D01*
X198148196Y-101058971D02*
X197957720Y-101058971D01*
X197957720Y-101058971D02*
X197862482Y-101011352D01*
X197862482Y-101011352D02*
X197814863Y-100963732D01*
X197814863Y-100963732D02*
X197767244Y-100868494D01*
X197767244Y-100868494D02*
X197767244Y-100678018D01*
X197767244Y-100678018D02*
X197814863Y-100582780D01*
X197814863Y-100582780D02*
X197862482Y-100535161D01*
X197862482Y-100535161D02*
X197957720Y-100487542D01*
X198719625Y-106138971D02*
X199291053Y-106138971D01*
X199005339Y-106138971D02*
X199005339Y-105138971D01*
X199005339Y-105138971D02*
X199100577Y-105281828D01*
X199100577Y-105281828D02*
X199195815Y-105377066D01*
X199195815Y-105377066D02*
X199291053Y-105424685D01*
X197862482Y-105472304D02*
X197862482Y-106138971D01*
X198100577Y-105091352D02*
X198338672Y-105805637D01*
X198338672Y-105805637D02*
X197719625Y-105805637D01*
X176326945Y-102598971D02*
X176517421Y-102598971D01*
X176517421Y-102598971D02*
X176612659Y-102646590D01*
X176612659Y-102646590D02*
X176660278Y-102694209D01*
X176660278Y-102694209D02*
X176755516Y-102837066D01*
X176755516Y-102837066D02*
X176803135Y-103027542D01*
X176803135Y-103027542D02*
X176803135Y-103408494D01*
X176803135Y-103408494D02*
X176755516Y-103503732D01*
X176755516Y-103503732D02*
X176707897Y-103551352D01*
X176707897Y-103551352D02*
X176612659Y-103598971D01*
X176612659Y-103598971D02*
X176422183Y-103598971D01*
X176422183Y-103598971D02*
X176326945Y-103551352D01*
X176326945Y-103551352D02*
X176279326Y-103503732D01*
X176279326Y-103503732D02*
X176231707Y-103408494D01*
X176231707Y-103408494D02*
X176231707Y-103170399D01*
X176231707Y-103170399D02*
X176279326Y-103075161D01*
X176279326Y-103075161D02*
X176326945Y-103027542D01*
X176326945Y-103027542D02*
X176422183Y-102979923D01*
X176422183Y-102979923D02*
X176612659Y-102979923D01*
X176612659Y-102979923D02*
X176707897Y-103027542D01*
X176707897Y-103027542D02*
X176755516Y-103075161D01*
X176755516Y-103075161D02*
X176803135Y-103170399D01*
X176326945Y-97852304D02*
X176326945Y-98518971D01*
X176565040Y-97471352D02*
X176803135Y-98185637D01*
X176803135Y-98185637D02*
X176184088Y-98185637D01*
X198719625Y-103598971D02*
X199291053Y-103598971D01*
X199005339Y-103598971D02*
X199005339Y-102598971D01*
X199005339Y-102598971D02*
X199100577Y-102741828D01*
X199100577Y-102741828D02*
X199195815Y-102837066D01*
X199195815Y-102837066D02*
X199291053Y-102884685D01*
X197814863Y-102598971D02*
X198291053Y-102598971D01*
X198291053Y-102598971D02*
X198338672Y-103075161D01*
X198338672Y-103075161D02*
X198291053Y-103027542D01*
X198291053Y-103027542D02*
X198195815Y-102979923D01*
X198195815Y-102979923D02*
X197957720Y-102979923D01*
X197957720Y-102979923D02*
X197862482Y-103027542D01*
X197862482Y-103027542D02*
X197814863Y-103075161D01*
X197814863Y-103075161D02*
X197767244Y-103170399D01*
X197767244Y-103170399D02*
X197767244Y-103408494D01*
X197767244Y-103408494D02*
X197814863Y-103503732D01*
X197814863Y-103503732D02*
X197862482Y-103551352D01*
X197862482Y-103551352D02*
X197957720Y-103598971D01*
X197957720Y-103598971D02*
X198195815Y-103598971D01*
X198195815Y-103598971D02*
X198291053Y-103551352D01*
X198291053Y-103551352D02*
X198338672Y-103503732D01*
X185030903Y-107774209D02*
X184983284Y-107726590D01*
X184983284Y-107726590D02*
X184888046Y-107678971D01*
X184888046Y-107678971D02*
X184649951Y-107678971D01*
X184649951Y-107678971D02*
X184554713Y-107726590D01*
X184554713Y-107726590D02*
X184507094Y-107774209D01*
X184507094Y-107774209D02*
X184459475Y-107869447D01*
X184459475Y-107869447D02*
X184459475Y-107964685D01*
X184459475Y-107964685D02*
X184507094Y-108107542D01*
X184507094Y-108107542D02*
X185078522Y-108678971D01*
X185078522Y-108678971D02*
X184459475Y-108678971D01*
X183506517Y-87406590D02*
X183601755Y-87358971D01*
X183601755Y-87358971D02*
X183744612Y-87358971D01*
X183744612Y-87358971D02*
X183887469Y-87406590D01*
X183887469Y-87406590D02*
X183982707Y-87501828D01*
X183982707Y-87501828D02*
X184030326Y-87597066D01*
X184030326Y-87597066D02*
X184077945Y-87787542D01*
X184077945Y-87787542D02*
X184077945Y-87930399D01*
X184077945Y-87930399D02*
X184030326Y-88120875D01*
X184030326Y-88120875D02*
X183982707Y-88216113D01*
X183982707Y-88216113D02*
X183887469Y-88311352D01*
X183887469Y-88311352D02*
X183744612Y-88358971D01*
X183744612Y-88358971D02*
X183649374Y-88358971D01*
X183649374Y-88358971D02*
X183506517Y-88311352D01*
X183506517Y-88311352D02*
X183458898Y-88263732D01*
X183458898Y-88263732D02*
X183458898Y-87930399D01*
X183458898Y-87930399D02*
X183649374Y-87930399D01*
X183030326Y-88358971D02*
X183030326Y-87358971D01*
X183030326Y-87358971D02*
X182458898Y-88358971D01*
X182458898Y-88358971D02*
X182458898Y-87358971D01*
X181982707Y-88358971D02*
X181982707Y-87358971D01*
X181982707Y-87358971D02*
X181744612Y-87358971D01*
X181744612Y-87358971D02*
X181601755Y-87406590D01*
X181601755Y-87406590D02*
X181506517Y-87501828D01*
X181506517Y-87501828D02*
X181458898Y-87597066D01*
X181458898Y-87597066D02*
X181411279Y-87787542D01*
X181411279Y-87787542D02*
X181411279Y-87930399D01*
X181411279Y-87930399D02*
X181458898Y-88120875D01*
X181458898Y-88120875D02*
X181506517Y-88216113D01*
X181506517Y-88216113D02*
X181601755Y-88311352D01*
X181601755Y-88311352D02*
X181744612Y-88358971D01*
X181744612Y-88358971D02*
X181982707Y-88358971D01*
X198719626Y-98518971D02*
X199291054Y-98518971D01*
X199005340Y-98518971D02*
X199005340Y-97518971D01*
X199005340Y-97518971D02*
X199100578Y-97661828D01*
X199100578Y-97661828D02*
X199195816Y-97757066D01*
X199195816Y-97757066D02*
X199291054Y-97804685D01*
X198243435Y-98518971D02*
X198052959Y-98518971D01*
X198052959Y-98518971D02*
X197957721Y-98471352D01*
X197957721Y-98471352D02*
X197910102Y-98423732D01*
X197910102Y-98423732D02*
X197814864Y-98280875D01*
X197814864Y-98280875D02*
X197767245Y-98090399D01*
X197767245Y-98090399D02*
X197767245Y-97709447D01*
X197767245Y-97709447D02*
X197814864Y-97614209D01*
X197814864Y-97614209D02*
X197862483Y-97566590D01*
X197862483Y-97566590D02*
X197957721Y-97518971D01*
X197957721Y-97518971D02*
X198148197Y-97518971D01*
X198148197Y-97518971D02*
X198243435Y-97566590D01*
X198243435Y-97566590D02*
X198291054Y-97614209D01*
X198291054Y-97614209D02*
X198338673Y-97709447D01*
X198338673Y-97709447D02*
X198338673Y-97947542D01*
X198338673Y-97947542D02*
X198291054Y-98042780D01*
X198291054Y-98042780D02*
X198243435Y-98090399D01*
X198243435Y-98090399D02*
X198148197Y-98138018D01*
X198148197Y-98138018D02*
X197957721Y-98138018D01*
X197957721Y-98138018D02*
X197862483Y-98090399D01*
X197862483Y-98090399D02*
X197814864Y-98042780D01*
X197814864Y-98042780D02*
X197767245Y-97947542D01*
X176231707Y-83278971D02*
X176803135Y-83278971D01*
X176517421Y-83278971D02*
X176517421Y-82278971D01*
X176517421Y-82278971D02*
X176612659Y-82421828D01*
X176612659Y-82421828D02*
X176707897Y-82517066D01*
X176707897Y-82517066D02*
X176803135Y-82564685D01*
X199291051Y-92534210D02*
X199243432Y-92486591D01*
X199243432Y-92486591D02*
X199148194Y-92438972D01*
X199148194Y-92438972D02*
X198910099Y-92438972D01*
X198910099Y-92438972D02*
X198814861Y-92486591D01*
X198814861Y-92486591D02*
X198767242Y-92534210D01*
X198767242Y-92534210D02*
X198719623Y-92629448D01*
X198719623Y-92629448D02*
X198719623Y-92724686D01*
X198719623Y-92724686D02*
X198767242Y-92867543D01*
X198767242Y-92867543D02*
X199338670Y-93438972D01*
X199338670Y-93438972D02*
X198719623Y-93438972D01*
X197767242Y-93438972D02*
X198338670Y-93438972D01*
X198052956Y-93438972D02*
X198052956Y-92438972D01*
X198052956Y-92438972D02*
X198148194Y-92581829D01*
X198148194Y-92581829D02*
X198243432Y-92677067D01*
X198243432Y-92677067D02*
X198338670Y-92724686D01*
X198719625Y-111218971D02*
X199291053Y-111218971D01*
X199005339Y-111218971D02*
X199005339Y-110218971D01*
X199005339Y-110218971D02*
X199100577Y-110361828D01*
X199100577Y-110361828D02*
X199195815Y-110457066D01*
X199195815Y-110457066D02*
X199291053Y-110504685D01*
X198100577Y-110218971D02*
X198005339Y-110218971D01*
X198005339Y-110218971D02*
X197910101Y-110266590D01*
X197910101Y-110266590D02*
X197862482Y-110314209D01*
X197862482Y-110314209D02*
X197814863Y-110409447D01*
X197814863Y-110409447D02*
X197767244Y-110599923D01*
X197767244Y-110599923D02*
X197767244Y-110838018D01*
X197767244Y-110838018D02*
X197814863Y-111028494D01*
X197814863Y-111028494D02*
X197862482Y-111123732D01*
X197862482Y-111123732D02*
X197910101Y-111171352D01*
X197910101Y-111171352D02*
X198005339Y-111218971D01*
X198005339Y-111218971D02*
X198100577Y-111218971D01*
X198100577Y-111218971D02*
X198195815Y-111171352D01*
X198195815Y-111171352D02*
X198243434Y-111123732D01*
X198243434Y-111123732D02*
X198291053Y-111028494D01*
X198291053Y-111028494D02*
X198338672Y-110838018D01*
X198338672Y-110838018D02*
X198338672Y-110599923D01*
X198338672Y-110599923D02*
X198291053Y-110409447D01*
X198291053Y-110409447D02*
X198243434Y-110314209D01*
X198243434Y-110314209D02*
X198195815Y-110266590D01*
X198195815Y-110266590D02*
X198100577Y-110218971D01*
X176850754Y-105138971D02*
X176184088Y-105138971D01*
X176184088Y-105138971D02*
X176612659Y-106138971D01*
X192698244Y-82755161D02*
X192555387Y-82802780D01*
X192555387Y-82802780D02*
X192507768Y-82850399D01*
X192507768Y-82850399D02*
X192460149Y-82945637D01*
X192460149Y-82945637D02*
X192460149Y-83088494D01*
X192460149Y-83088494D02*
X192507768Y-83183732D01*
X192507768Y-83183732D02*
X192555387Y-83231352D01*
X192555387Y-83231352D02*
X192650625Y-83278971D01*
X192650625Y-83278971D02*
X193031577Y-83278971D01*
X193031577Y-83278971D02*
X193031577Y-82278971D01*
X193031577Y-82278971D02*
X192698244Y-82278971D01*
X192698244Y-82278971D02*
X192603006Y-82326590D01*
X192603006Y-82326590D02*
X192555387Y-82374209D01*
X192555387Y-82374209D02*
X192507768Y-82469447D01*
X192507768Y-82469447D02*
X192507768Y-82564685D01*
X192507768Y-82564685D02*
X192555387Y-82659923D01*
X192555387Y-82659923D02*
X192603006Y-82707542D01*
X192603006Y-82707542D02*
X192698244Y-82755161D01*
X192698244Y-82755161D02*
X193031577Y-82755161D01*
X192031577Y-82898018D02*
X191269673Y-82898018D01*
X191650625Y-83278971D02*
X191650625Y-82517066D01*
X176279326Y-100058971D02*
X176755516Y-100058971D01*
X176755516Y-100058971D02*
X176803135Y-100535161D01*
X176803135Y-100535161D02*
X176755516Y-100487542D01*
X176755516Y-100487542D02*
X176660278Y-100439923D01*
X176660278Y-100439923D02*
X176422183Y-100439923D01*
X176422183Y-100439923D02*
X176326945Y-100487542D01*
X176326945Y-100487542D02*
X176279326Y-100535161D01*
X176279326Y-100535161D02*
X176231707Y-100630399D01*
X176231707Y-100630399D02*
X176231707Y-100868494D01*
X176231707Y-100868494D02*
X176279326Y-100963732D01*
X176279326Y-100963732D02*
X176326945Y-101011352D01*
X176326945Y-101011352D02*
X176422183Y-101058971D01*
X176422183Y-101058971D02*
X176660278Y-101058971D01*
X176660278Y-101058971D02*
X176755516Y-101011352D01*
X176755516Y-101011352D02*
X176803135Y-100963732D01*
X169917491Y-83257845D02*
X170488919Y-83257845D01*
X170203205Y-83257845D02*
X170203205Y-82257845D01*
X170203205Y-82257845D02*
X170298443Y-82400702D01*
X170298443Y-82400702D02*
X170393681Y-82495940D01*
X170393681Y-82495940D02*
X170488919Y-82543559D01*
X169965111Y-100037845D02*
X170441301Y-100037845D01*
X170441301Y-100037845D02*
X170488920Y-100514035D01*
X170488920Y-100514035D02*
X170441301Y-100466416D01*
X170441301Y-100466416D02*
X170346063Y-100418797D01*
X170346063Y-100418797D02*
X170107968Y-100418797D01*
X170107968Y-100418797D02*
X170012730Y-100466416D01*
X170012730Y-100466416D02*
X169965111Y-100514035D01*
X169965111Y-100514035D02*
X169917492Y-100609273D01*
X169917492Y-100609273D02*
X169917492Y-100847368D01*
X169917492Y-100847368D02*
X169965111Y-100942606D01*
X169965111Y-100942606D02*
X170012730Y-100990226D01*
X170012730Y-100990226D02*
X170107968Y-101037845D01*
X170107968Y-101037845D02*
X170346063Y-101037845D01*
X170346063Y-101037845D02*
X170441301Y-100990226D01*
X170441301Y-100990226D02*
X170488920Y-100942606D01*
X149226064Y-89877845D02*
X148607017Y-89877845D01*
X148607017Y-89877845D02*
X148940350Y-90258797D01*
X148940350Y-90258797D02*
X148797493Y-90258797D01*
X148797493Y-90258797D02*
X148702255Y-90306416D01*
X148702255Y-90306416D02*
X148654636Y-90354035D01*
X148654636Y-90354035D02*
X148607017Y-90449273D01*
X148607017Y-90449273D02*
X148607017Y-90687368D01*
X148607017Y-90687368D02*
X148654636Y-90782606D01*
X148654636Y-90782606D02*
X148702255Y-90830226D01*
X148702255Y-90830226D02*
X148797493Y-90877845D01*
X148797493Y-90877845D02*
X149083207Y-90877845D01*
X149083207Y-90877845D02*
X149178445Y-90830226D01*
X149178445Y-90830226D02*
X149226064Y-90782606D01*
X148178445Y-90782606D02*
X148130826Y-90830226D01*
X148130826Y-90830226D02*
X148178445Y-90877845D01*
X148178445Y-90877845D02*
X148226064Y-90830226D01*
X148226064Y-90830226D02*
X148178445Y-90782606D01*
X148178445Y-90782606D02*
X148178445Y-90877845D01*
X147797493Y-89877845D02*
X147178446Y-89877845D01*
X147178446Y-89877845D02*
X147511779Y-90258797D01*
X147511779Y-90258797D02*
X147368922Y-90258797D01*
X147368922Y-90258797D02*
X147273684Y-90306416D01*
X147273684Y-90306416D02*
X147226065Y-90354035D01*
X147226065Y-90354035D02*
X147178446Y-90449273D01*
X147178446Y-90449273D02*
X147178446Y-90687368D01*
X147178446Y-90687368D02*
X147226065Y-90782606D01*
X147226065Y-90782606D02*
X147273684Y-90830226D01*
X147273684Y-90830226D02*
X147368922Y-90877845D01*
X147368922Y-90877845D02*
X147654636Y-90877845D01*
X147654636Y-90877845D02*
X147749874Y-90830226D01*
X147749874Y-90830226D02*
X147797493Y-90782606D01*
X146845112Y-90211178D02*
X146607017Y-90877845D01*
X146607017Y-90877845D02*
X146368922Y-90211178D01*
X148953383Y-95053083D02*
X148905764Y-95005464D01*
X148905764Y-95005464D02*
X148810526Y-94957845D01*
X148810526Y-94957845D02*
X148572431Y-94957845D01*
X148572431Y-94957845D02*
X148477193Y-95005464D01*
X148477193Y-95005464D02*
X148429574Y-95053083D01*
X148429574Y-95053083D02*
X148381955Y-95148321D01*
X148381955Y-95148321D02*
X148381955Y-95243559D01*
X148381955Y-95243559D02*
X148429574Y-95386416D01*
X148429574Y-95386416D02*
X149001002Y-95957845D01*
X149001002Y-95957845D02*
X148381955Y-95957845D01*
X147762907Y-94957845D02*
X147667669Y-94957845D01*
X147667669Y-94957845D02*
X147572431Y-95005464D01*
X147572431Y-95005464D02*
X147524812Y-95053083D01*
X147524812Y-95053083D02*
X147477193Y-95148321D01*
X147477193Y-95148321D02*
X147429574Y-95338797D01*
X147429574Y-95338797D02*
X147429574Y-95576892D01*
X147429574Y-95576892D02*
X147477193Y-95767368D01*
X147477193Y-95767368D02*
X147524812Y-95862606D01*
X147524812Y-95862606D02*
X147572431Y-95910226D01*
X147572431Y-95910226D02*
X147667669Y-95957845D01*
X147667669Y-95957845D02*
X147762907Y-95957845D01*
X147762907Y-95957845D02*
X147858145Y-95910226D01*
X147858145Y-95910226D02*
X147905764Y-95862606D01*
X147905764Y-95862606D02*
X147953383Y-95767368D01*
X147953383Y-95767368D02*
X148001002Y-95576892D01*
X148001002Y-95576892D02*
X148001002Y-95338797D01*
X148001002Y-95338797D02*
X147953383Y-95148321D01*
X147953383Y-95148321D02*
X147905764Y-95053083D01*
X147905764Y-95053083D02*
X147858145Y-95005464D01*
X147858145Y-95005464D02*
X147762907Y-94957845D01*
X159768770Y-107657843D02*
X159102104Y-107657843D01*
X159102104Y-107657843D02*
X159530675Y-108657843D01*
X170536539Y-94957845D02*
X169917492Y-94957845D01*
X169917492Y-94957845D02*
X170250825Y-95338797D01*
X170250825Y-95338797D02*
X170107968Y-95338797D01*
X170107968Y-95338797D02*
X170012730Y-95386416D01*
X170012730Y-95386416D02*
X169965111Y-95434035D01*
X169965111Y-95434035D02*
X169917492Y-95529273D01*
X169917492Y-95529273D02*
X169917492Y-95767368D01*
X169917492Y-95767368D02*
X169965111Y-95862606D01*
X169965111Y-95862606D02*
X170012730Y-95910226D01*
X170012730Y-95910226D02*
X170107968Y-95957845D01*
X170107968Y-95957845D02*
X170393682Y-95957845D01*
X170393682Y-95957845D02*
X170488920Y-95910226D01*
X170488920Y-95910226D02*
X170536539Y-95862606D01*
X155059398Y-88337845D02*
X155392731Y-87861654D01*
X155630826Y-88337845D02*
X155630826Y-87337845D01*
X155630826Y-87337845D02*
X155249874Y-87337845D01*
X155249874Y-87337845D02*
X155154636Y-87385464D01*
X155154636Y-87385464D02*
X155107017Y-87433083D01*
X155107017Y-87433083D02*
X155059398Y-87528321D01*
X155059398Y-87528321D02*
X155059398Y-87671178D01*
X155059398Y-87671178D02*
X155107017Y-87766416D01*
X155107017Y-87766416D02*
X155154636Y-87814035D01*
X155154636Y-87814035D02*
X155249874Y-87861654D01*
X155249874Y-87861654D02*
X155630826Y-87861654D01*
X154678445Y-88290226D02*
X154535588Y-88337845D01*
X154535588Y-88337845D02*
X154297493Y-88337845D01*
X154297493Y-88337845D02*
X154202255Y-88290226D01*
X154202255Y-88290226D02*
X154154636Y-88242606D01*
X154154636Y-88242606D02*
X154107017Y-88147368D01*
X154107017Y-88147368D02*
X154107017Y-88052130D01*
X154107017Y-88052130D02*
X154154636Y-87956892D01*
X154154636Y-87956892D02*
X154202255Y-87909273D01*
X154202255Y-87909273D02*
X154297493Y-87861654D01*
X154297493Y-87861654D02*
X154487969Y-87814035D01*
X154487969Y-87814035D02*
X154583207Y-87766416D01*
X154583207Y-87766416D02*
X154630826Y-87718797D01*
X154630826Y-87718797D02*
X154678445Y-87623559D01*
X154678445Y-87623559D02*
X154678445Y-87528321D01*
X154678445Y-87528321D02*
X154630826Y-87433083D01*
X154630826Y-87433083D02*
X154583207Y-87385464D01*
X154583207Y-87385464D02*
X154487969Y-87337845D01*
X154487969Y-87337845D02*
X154249874Y-87337845D01*
X154249874Y-87337845D02*
X154107017Y-87385464D01*
X153821302Y-87337845D02*
X153249874Y-87337845D01*
X153535588Y-88337845D02*
X153535588Y-87337845D01*
X170012730Y-97831178D02*
X170012730Y-98497845D01*
X170250825Y-97450226D02*
X170488920Y-98164511D01*
X170488920Y-98164511D02*
X169869873Y-98164511D01*
X148953385Y-92513084D02*
X148905766Y-92465465D01*
X148905766Y-92465465D02*
X148810528Y-92417846D01*
X148810528Y-92417846D02*
X148572433Y-92417846D01*
X148572433Y-92417846D02*
X148477195Y-92465465D01*
X148477195Y-92465465D02*
X148429576Y-92513084D01*
X148429576Y-92513084D02*
X148381957Y-92608322D01*
X148381957Y-92608322D02*
X148381957Y-92703560D01*
X148381957Y-92703560D02*
X148429576Y-92846417D01*
X148429576Y-92846417D02*
X149001004Y-93417846D01*
X149001004Y-93417846D02*
X148381957Y-93417846D01*
X147429576Y-93417846D02*
X148001004Y-93417846D01*
X147715290Y-93417846D02*
X147715290Y-92417846D01*
X147715290Y-92417846D02*
X147810528Y-92560703D01*
X147810528Y-92560703D02*
X147905766Y-92655941D01*
X147905766Y-92655941D02*
X148001004Y-92703560D01*
X165191904Y-89959434D02*
X165287142Y-89911815D01*
X165287142Y-89911815D02*
X165429999Y-89911815D01*
X165429999Y-89911815D02*
X165572856Y-89959434D01*
X165572856Y-89959434D02*
X165668094Y-90054672D01*
X165668094Y-90054672D02*
X165715713Y-90149910D01*
X165715713Y-90149910D02*
X165763332Y-90340386D01*
X165763332Y-90340386D02*
X165763332Y-90483243D01*
X165763332Y-90483243D02*
X165715713Y-90673719D01*
X165715713Y-90673719D02*
X165668094Y-90768957D01*
X165668094Y-90768957D02*
X165572856Y-90864196D01*
X165572856Y-90864196D02*
X165429999Y-90911815D01*
X165429999Y-90911815D02*
X165334761Y-90911815D01*
X165334761Y-90911815D02*
X165191904Y-90864196D01*
X165191904Y-90864196D02*
X165144285Y-90816576D01*
X165144285Y-90816576D02*
X165144285Y-90483243D01*
X165144285Y-90483243D02*
X165334761Y-90483243D01*
X164715713Y-90911815D02*
X164715713Y-89911815D01*
X164715713Y-89911815D02*
X164144285Y-90911815D01*
X164144285Y-90911815D02*
X164144285Y-89911815D01*
X163668094Y-90911815D02*
X163668094Y-89911815D01*
X163668094Y-89911815D02*
X163429999Y-89911815D01*
X163429999Y-89911815D02*
X163287142Y-89959434D01*
X163287142Y-89959434D02*
X163191904Y-90054672D01*
X163191904Y-90054672D02*
X163144285Y-90149910D01*
X163144285Y-90149910D02*
X163096666Y-90340386D01*
X163096666Y-90340386D02*
X163096666Y-90483243D01*
X163096666Y-90483243D02*
X163144285Y-90673719D01*
X163144285Y-90673719D02*
X163191904Y-90768957D01*
X163191904Y-90768957D02*
X163287142Y-90864196D01*
X163287142Y-90864196D02*
X163429999Y-90911815D01*
X163429999Y-90911815D02*
X163668094Y-90911815D01*
X164229723Y-108657845D02*
X164801151Y-108657845D01*
X164515437Y-108657845D02*
X164515437Y-107657845D01*
X164515437Y-107657845D02*
X164610675Y-107800702D01*
X164610675Y-107800702D02*
X164705913Y-107895940D01*
X164705913Y-107895940D02*
X164801151Y-107943559D01*
X148381955Y-103577845D02*
X148953383Y-103577845D01*
X148667669Y-103577845D02*
X148667669Y-102577845D01*
X148667669Y-102577845D02*
X148762907Y-102720702D01*
X148762907Y-102720702D02*
X148858145Y-102815940D01*
X148858145Y-102815940D02*
X148953383Y-102863559D01*
X147477193Y-102577845D02*
X147953383Y-102577845D01*
X147953383Y-102577845D02*
X148001002Y-103054035D01*
X148001002Y-103054035D02*
X147953383Y-103006416D01*
X147953383Y-103006416D02*
X147858145Y-102958797D01*
X147858145Y-102958797D02*
X147620050Y-102958797D01*
X147620050Y-102958797D02*
X147524812Y-103006416D01*
X147524812Y-103006416D02*
X147477193Y-103054035D01*
X147477193Y-103054035D02*
X147429574Y-103149273D01*
X147429574Y-103149273D02*
X147429574Y-103387368D01*
X147429574Y-103387368D02*
X147477193Y-103482606D01*
X147477193Y-103482606D02*
X147524812Y-103530226D01*
X147524812Y-103530226D02*
X147620050Y-103577845D01*
X147620050Y-103577845D02*
X147858145Y-103577845D01*
X147858145Y-103577845D02*
X147953383Y-103530226D01*
X147953383Y-103530226D02*
X148001002Y-103482606D01*
X170393682Y-111197845D02*
X170203206Y-111197845D01*
X170203206Y-111197845D02*
X170107968Y-111150226D01*
X170107968Y-111150226D02*
X170060349Y-111102606D01*
X170060349Y-111102606D02*
X169965111Y-110959749D01*
X169965111Y-110959749D02*
X169917492Y-110769273D01*
X169917492Y-110769273D02*
X169917492Y-110388321D01*
X169917492Y-110388321D02*
X169965111Y-110293083D01*
X169965111Y-110293083D02*
X170012730Y-110245464D01*
X170012730Y-110245464D02*
X170107968Y-110197845D01*
X170107968Y-110197845D02*
X170298444Y-110197845D01*
X170298444Y-110197845D02*
X170393682Y-110245464D01*
X170393682Y-110245464D02*
X170441301Y-110293083D01*
X170441301Y-110293083D02*
X170488920Y-110388321D01*
X170488920Y-110388321D02*
X170488920Y-110626416D01*
X170488920Y-110626416D02*
X170441301Y-110721654D01*
X170441301Y-110721654D02*
X170393682Y-110769273D01*
X170393682Y-110769273D02*
X170298444Y-110816892D01*
X170298444Y-110816892D02*
X170107968Y-110816892D01*
X170107968Y-110816892D02*
X170012730Y-110769273D01*
X170012730Y-110769273D02*
X169965111Y-110721654D01*
X169965111Y-110721654D02*
X169917492Y-110626416D01*
X148381956Y-108657845D02*
X148953384Y-108657845D01*
X148667670Y-108657845D02*
X148667670Y-107657845D01*
X148667670Y-107657845D02*
X148762908Y-107800702D01*
X148762908Y-107800702D02*
X148858146Y-107895940D01*
X148858146Y-107895940D02*
X148953384Y-107943559D01*
X147524813Y-107657845D02*
X147715289Y-107657845D01*
X147715289Y-107657845D02*
X147810527Y-107705464D01*
X147810527Y-107705464D02*
X147858146Y-107753083D01*
X147858146Y-107753083D02*
X147953384Y-107895940D01*
X147953384Y-107895940D02*
X148001003Y-108086416D01*
X148001003Y-108086416D02*
X148001003Y-108467368D01*
X148001003Y-108467368D02*
X147953384Y-108562606D01*
X147953384Y-108562606D02*
X147905765Y-108610226D01*
X147905765Y-108610226D02*
X147810527Y-108657845D01*
X147810527Y-108657845D02*
X147620051Y-108657845D01*
X147620051Y-108657845D02*
X147524813Y-108610226D01*
X147524813Y-108610226D02*
X147477194Y-108562606D01*
X147477194Y-108562606D02*
X147429575Y-108467368D01*
X147429575Y-108467368D02*
X147429575Y-108229273D01*
X147429575Y-108229273D02*
X147477194Y-108134035D01*
X147477194Y-108134035D02*
X147524813Y-108086416D01*
X147524813Y-108086416D02*
X147620051Y-108038797D01*
X147620051Y-108038797D02*
X147810527Y-108038797D01*
X147810527Y-108038797D02*
X147905765Y-108086416D01*
X147905765Y-108086416D02*
X147953384Y-108134035D01*
X147953384Y-108134035D02*
X148001003Y-108229273D01*
X170012730Y-102577845D02*
X170203206Y-102577845D01*
X170203206Y-102577845D02*
X170298444Y-102625464D01*
X170298444Y-102625464D02*
X170346063Y-102673083D01*
X170346063Y-102673083D02*
X170441301Y-102815940D01*
X170441301Y-102815940D02*
X170488920Y-103006416D01*
X170488920Y-103006416D02*
X170488920Y-103387368D01*
X170488920Y-103387368D02*
X170441301Y-103482606D01*
X170441301Y-103482606D02*
X170393682Y-103530226D01*
X170393682Y-103530226D02*
X170298444Y-103577845D01*
X170298444Y-103577845D02*
X170107968Y-103577845D01*
X170107968Y-103577845D02*
X170012730Y-103530226D01*
X170012730Y-103530226D02*
X169965111Y-103482606D01*
X169965111Y-103482606D02*
X169917492Y-103387368D01*
X169917492Y-103387368D02*
X169917492Y-103149273D01*
X169917492Y-103149273D02*
X169965111Y-103054035D01*
X169965111Y-103054035D02*
X170012730Y-103006416D01*
X170012730Y-103006416D02*
X170107968Y-102958797D01*
X170107968Y-102958797D02*
X170298444Y-102958797D01*
X170298444Y-102958797D02*
X170393682Y-103006416D01*
X170393682Y-103006416D02*
X170441301Y-103054035D01*
X170441301Y-103054035D02*
X170488920Y-103149273D01*
X170298444Y-108086416D02*
X170393682Y-108038797D01*
X170393682Y-108038797D02*
X170441301Y-107991178D01*
X170441301Y-107991178D02*
X170488920Y-107895940D01*
X170488920Y-107895940D02*
X170488920Y-107848321D01*
X170488920Y-107848321D02*
X170441301Y-107753083D01*
X170441301Y-107753083D02*
X170393682Y-107705464D01*
X170393682Y-107705464D02*
X170298444Y-107657845D01*
X170298444Y-107657845D02*
X170107968Y-107657845D01*
X170107968Y-107657845D02*
X170012730Y-107705464D01*
X170012730Y-107705464D02*
X169965111Y-107753083D01*
X169965111Y-107753083D02*
X169917492Y-107848321D01*
X169917492Y-107848321D02*
X169917492Y-107895940D01*
X169917492Y-107895940D02*
X169965111Y-107991178D01*
X169965111Y-107991178D02*
X170012730Y-108038797D01*
X170012730Y-108038797D02*
X170107968Y-108086416D01*
X170107968Y-108086416D02*
X170298444Y-108086416D01*
X170298444Y-108086416D02*
X170393682Y-108134035D01*
X170393682Y-108134035D02*
X170441301Y-108181654D01*
X170441301Y-108181654D02*
X170488920Y-108276892D01*
X170488920Y-108276892D02*
X170488920Y-108467368D01*
X170488920Y-108467368D02*
X170441301Y-108562606D01*
X170441301Y-108562606D02*
X170393682Y-108610226D01*
X170393682Y-108610226D02*
X170298444Y-108657845D01*
X170298444Y-108657845D02*
X170107968Y-108657845D01*
X170107968Y-108657845D02*
X170012730Y-108610226D01*
X170012730Y-108610226D02*
X169965111Y-108562606D01*
X169965111Y-108562606D02*
X169917492Y-108467368D01*
X169917492Y-108467368D02*
X169917492Y-108276892D01*
X169917492Y-108276892D02*
X169965111Y-108181654D01*
X169965111Y-108181654D02*
X170012730Y-108134035D01*
X170012730Y-108134035D02*
X170107968Y-108086416D01*
X170536539Y-105117845D02*
X169869873Y-105117845D01*
X169869873Y-105117845D02*
X170298444Y-106117845D01*
X148381955Y-111197845D02*
X148953383Y-111197845D01*
X148667669Y-111197845D02*
X148667669Y-110197845D01*
X148667669Y-110197845D02*
X148762907Y-110340702D01*
X148762907Y-110340702D02*
X148858145Y-110435940D01*
X148858145Y-110435940D02*
X148953383Y-110483559D01*
X147762907Y-110197845D02*
X147667669Y-110197845D01*
X147667669Y-110197845D02*
X147572431Y-110245464D01*
X147572431Y-110245464D02*
X147524812Y-110293083D01*
X147524812Y-110293083D02*
X147477193Y-110388321D01*
X147477193Y-110388321D02*
X147429574Y-110578797D01*
X147429574Y-110578797D02*
X147429574Y-110816892D01*
X147429574Y-110816892D02*
X147477193Y-111007368D01*
X147477193Y-111007368D02*
X147524812Y-111102606D01*
X147524812Y-111102606D02*
X147572431Y-111150226D01*
X147572431Y-111150226D02*
X147667669Y-111197845D01*
X147667669Y-111197845D02*
X147762907Y-111197845D01*
X147762907Y-111197845D02*
X147858145Y-111150226D01*
X147858145Y-111150226D02*
X147905764Y-111102606D01*
X147905764Y-111102606D02*
X147953383Y-111007368D01*
X147953383Y-111007368D02*
X148001002Y-110816892D01*
X148001002Y-110816892D02*
X148001002Y-110578797D01*
X148001002Y-110578797D02*
X147953383Y-110388321D01*
X147953383Y-110388321D02*
X147905764Y-110293083D01*
X147905764Y-110293083D02*
X147858145Y-110245464D01*
X147858145Y-110245464D02*
X147762907Y-110197845D01*
X148381954Y-98497845D02*
X148953382Y-98497845D01*
X148667668Y-98497845D02*
X148667668Y-97497845D01*
X148667668Y-97497845D02*
X148762906Y-97640702D01*
X148762906Y-97640702D02*
X148858144Y-97735940D01*
X148858144Y-97735940D02*
X148953382Y-97783559D01*
X147905763Y-98497845D02*
X147715287Y-98497845D01*
X147715287Y-98497845D02*
X147620049Y-98450226D01*
X147620049Y-98450226D02*
X147572430Y-98402606D01*
X147572430Y-98402606D02*
X147477192Y-98259749D01*
X147477192Y-98259749D02*
X147429573Y-98069273D01*
X147429573Y-98069273D02*
X147429573Y-97688321D01*
X147429573Y-97688321D02*
X147477192Y-97593083D01*
X147477192Y-97593083D02*
X147524811Y-97545464D01*
X147524811Y-97545464D02*
X147620049Y-97497845D01*
X147620049Y-97497845D02*
X147810525Y-97497845D01*
X147810525Y-97497845D02*
X147905763Y-97545464D01*
X147905763Y-97545464D02*
X147953382Y-97593083D01*
X147953382Y-97593083D02*
X148001001Y-97688321D01*
X148001001Y-97688321D02*
X148001001Y-97926416D01*
X148001001Y-97926416D02*
X147953382Y-98021654D01*
X147953382Y-98021654D02*
X147905763Y-98069273D01*
X147905763Y-98069273D02*
X147810525Y-98116892D01*
X147810525Y-98116892D02*
X147620049Y-98116892D01*
X147620049Y-98116892D02*
X147524811Y-98069273D01*
X147524811Y-98069273D02*
X147477192Y-98021654D01*
X147477192Y-98021654D02*
X147429573Y-97926416D01*
X165191904Y-87419435D02*
X165287142Y-87371816D01*
X165287142Y-87371816D02*
X165429999Y-87371816D01*
X165429999Y-87371816D02*
X165572856Y-87419435D01*
X165572856Y-87419435D02*
X165668094Y-87514673D01*
X165668094Y-87514673D02*
X165715713Y-87609911D01*
X165715713Y-87609911D02*
X165763332Y-87800387D01*
X165763332Y-87800387D02*
X165763332Y-87943244D01*
X165763332Y-87943244D02*
X165715713Y-88133720D01*
X165715713Y-88133720D02*
X165668094Y-88228958D01*
X165668094Y-88228958D02*
X165572856Y-88324197D01*
X165572856Y-88324197D02*
X165429999Y-88371816D01*
X165429999Y-88371816D02*
X165334761Y-88371816D01*
X165334761Y-88371816D02*
X165191904Y-88324197D01*
X165191904Y-88324197D02*
X165144285Y-88276577D01*
X165144285Y-88276577D02*
X165144285Y-87943244D01*
X165144285Y-87943244D02*
X165334761Y-87943244D01*
X164715713Y-88371816D02*
X164715713Y-87371816D01*
X164715713Y-87371816D02*
X164144285Y-88371816D01*
X164144285Y-88371816D02*
X164144285Y-87371816D01*
X163668094Y-88371816D02*
X163668094Y-87371816D01*
X163668094Y-87371816D02*
X163429999Y-87371816D01*
X163429999Y-87371816D02*
X163287142Y-87419435D01*
X163287142Y-87419435D02*
X163191904Y-87514673D01*
X163191904Y-87514673D02*
X163144285Y-87609911D01*
X163144285Y-87609911D02*
X163096666Y-87800387D01*
X163096666Y-87800387D02*
X163096666Y-87943244D01*
X163096666Y-87943244D02*
X163144285Y-88133720D01*
X163144285Y-88133720D02*
X163191904Y-88228958D01*
X163191904Y-88228958D02*
X163287142Y-88324197D01*
X163287142Y-88324197D02*
X163429999Y-88371816D01*
X163429999Y-88371816D02*
X163668094Y-88371816D01*
X162261151Y-107753083D02*
X162213532Y-107705464D01*
X162213532Y-107705464D02*
X162118294Y-107657845D01*
X162118294Y-107657845D02*
X161880199Y-107657845D01*
X161880199Y-107657845D02*
X161784961Y-107705464D01*
X161784961Y-107705464D02*
X161737342Y-107753083D01*
X161737342Y-107753083D02*
X161689723Y-107848321D01*
X161689723Y-107848321D02*
X161689723Y-107943559D01*
X161689723Y-107943559D02*
X161737342Y-108086416D01*
X161737342Y-108086416D02*
X162308770Y-108657845D01*
X162308770Y-108657845D02*
X161689723Y-108657845D01*
X170250825Y-84797846D02*
X170155587Y-84797846D01*
X170155587Y-84797846D02*
X170060349Y-84845465D01*
X170060349Y-84845465D02*
X170012730Y-84893084D01*
X170012730Y-84893084D02*
X169965111Y-84988322D01*
X169965111Y-84988322D02*
X169917492Y-85178798D01*
X169917492Y-85178798D02*
X169917492Y-85416893D01*
X169917492Y-85416893D02*
X169965111Y-85607369D01*
X169965111Y-85607369D02*
X170012730Y-85702607D01*
X170012730Y-85702607D02*
X170060349Y-85750227D01*
X170060349Y-85750227D02*
X170155587Y-85797846D01*
X170155587Y-85797846D02*
X170250825Y-85797846D01*
X170250825Y-85797846D02*
X170346063Y-85750227D01*
X170346063Y-85750227D02*
X170393682Y-85702607D01*
X170393682Y-85702607D02*
X170441301Y-85607369D01*
X170441301Y-85607369D02*
X170488920Y-85416893D01*
X170488920Y-85416893D02*
X170488920Y-85178798D01*
X170488920Y-85178798D02*
X170441301Y-84988322D01*
X170441301Y-84988322D02*
X170393682Y-84893084D01*
X170393682Y-84893084D02*
X170346063Y-84845465D01*
X170346063Y-84845465D02*
X170250825Y-84797846D01*
X148381955Y-106117845D02*
X148953383Y-106117845D01*
X148667669Y-106117845D02*
X148667669Y-105117845D01*
X148667669Y-105117845D02*
X148762907Y-105260702D01*
X148762907Y-105260702D02*
X148858145Y-105355940D01*
X148858145Y-105355940D02*
X148953383Y-105403559D01*
X147524812Y-105451178D02*
X147524812Y-106117845D01*
X147762907Y-105070226D02*
X148001002Y-105784511D01*
X148001002Y-105784511D02*
X147381955Y-105784511D01*
X155607017Y-84845463D02*
X155702255Y-84797844D01*
X155702255Y-84797844D02*
X155845112Y-84797844D01*
X155845112Y-84797844D02*
X155987969Y-84845463D01*
X155987969Y-84845463D02*
X156083207Y-84940701D01*
X156083207Y-84940701D02*
X156130826Y-85035939D01*
X156130826Y-85035939D02*
X156178445Y-85226415D01*
X156178445Y-85226415D02*
X156178445Y-85369272D01*
X156178445Y-85369272D02*
X156130826Y-85559748D01*
X156130826Y-85559748D02*
X156083207Y-85654986D01*
X156083207Y-85654986D02*
X155987969Y-85750225D01*
X155987969Y-85750225D02*
X155845112Y-85797844D01*
X155845112Y-85797844D02*
X155749874Y-85797844D01*
X155749874Y-85797844D02*
X155607017Y-85750225D01*
X155607017Y-85750225D02*
X155559398Y-85702605D01*
X155559398Y-85702605D02*
X155559398Y-85369272D01*
X155559398Y-85369272D02*
X155749874Y-85369272D01*
X155130826Y-85797844D02*
X155130826Y-84797844D01*
X155130826Y-84797844D02*
X154559398Y-85797844D01*
X154559398Y-85797844D02*
X154559398Y-84797844D01*
X154083207Y-85797844D02*
X154083207Y-84797844D01*
X154083207Y-84797844D02*
X153845112Y-84797844D01*
X153845112Y-84797844D02*
X153702255Y-84845463D01*
X153702255Y-84845463D02*
X153607017Y-84940701D01*
X153607017Y-84940701D02*
X153559398Y-85035939D01*
X153559398Y-85035939D02*
X153511779Y-85226415D01*
X153511779Y-85226415D02*
X153511779Y-85369272D01*
X153511779Y-85369272D02*
X153559398Y-85559748D01*
X153559398Y-85559748D02*
X153607017Y-85654986D01*
X153607017Y-85654986D02*
X153702255Y-85750225D01*
X153702255Y-85750225D02*
X153845112Y-85797844D01*
X153845112Y-85797844D02*
X154083207Y-85797844D01*
X170488920Y-92513083D02*
X170441301Y-92465464D01*
X170441301Y-92465464D02*
X170346063Y-92417845D01*
X170346063Y-92417845D02*
X170107968Y-92417845D01*
X170107968Y-92417845D02*
X170012730Y-92465464D01*
X170012730Y-92465464D02*
X169965111Y-92513083D01*
X169965111Y-92513083D02*
X169917492Y-92608321D01*
X169917492Y-92608321D02*
X169917492Y-92703559D01*
X169917492Y-92703559D02*
X169965111Y-92846416D01*
X169965111Y-92846416D02*
X170536539Y-93417845D01*
X170536539Y-93417845D02*
X169917492Y-93417845D01*
X148381955Y-101037845D02*
X148953383Y-101037845D01*
X148667669Y-101037845D02*
X148667669Y-100037845D01*
X148667669Y-100037845D02*
X148762907Y-100180702D01*
X148762907Y-100180702D02*
X148858145Y-100275940D01*
X148858145Y-100275940D02*
X148953383Y-100323559D01*
X147810526Y-100466416D02*
X147905764Y-100418797D01*
X147905764Y-100418797D02*
X147953383Y-100371178D01*
X147953383Y-100371178D02*
X148001002Y-100275940D01*
X148001002Y-100275940D02*
X148001002Y-100228321D01*
X148001002Y-100228321D02*
X147953383Y-100133083D01*
X147953383Y-100133083D02*
X147905764Y-100085464D01*
X147905764Y-100085464D02*
X147810526Y-100037845D01*
X147810526Y-100037845D02*
X147620050Y-100037845D01*
X147620050Y-100037845D02*
X147524812Y-100085464D01*
X147524812Y-100085464D02*
X147477193Y-100133083D01*
X147477193Y-100133083D02*
X147429574Y-100228321D01*
X147429574Y-100228321D02*
X147429574Y-100275940D01*
X147429574Y-100275940D02*
X147477193Y-100371178D01*
X147477193Y-100371178D02*
X147524812Y-100418797D01*
X147524812Y-100418797D02*
X147620050Y-100466416D01*
X147620050Y-100466416D02*
X147810526Y-100466416D01*
X147810526Y-100466416D02*
X147905764Y-100514035D01*
X147905764Y-100514035D02*
X147953383Y-100561654D01*
X147953383Y-100561654D02*
X148001002Y-100656892D01*
X148001002Y-100656892D02*
X148001002Y-100847368D01*
X148001002Y-100847368D02*
X147953383Y-100942606D01*
X147953383Y-100942606D02*
X147905764Y-100990226D01*
X147905764Y-100990226D02*
X147810526Y-101037845D01*
X147810526Y-101037845D02*
X147620050Y-101037845D01*
X147620050Y-101037845D02*
X147524812Y-100990226D01*
X147524812Y-100990226D02*
X147477193Y-100942606D01*
X147477193Y-100942606D02*
X147429574Y-100847368D01*
X147429574Y-100847368D02*
X147429574Y-100656892D01*
X147429574Y-100656892D02*
X147477193Y-100561654D01*
X147477193Y-100561654D02*
X147524812Y-100514035D01*
X147524812Y-100514035D02*
X147620050Y-100466416D01*
G04 #@! TO.C,MCU2*
X178135190Y-112036752D02*
X178135190Y-78736752D01*
X196435190Y-78736752D02*
X178135190Y-78736752D01*
X196435190Y-112036752D02*
X178135190Y-112036752D01*
X196435190Y-112036752D02*
X196435190Y-78736752D01*
G04 #@! TO.C,MCU1*
X150285438Y-112015626D02*
X150285438Y-78715626D01*
X168585438Y-78715626D02*
X150285438Y-78715626D01*
X168585438Y-112015626D02*
X150285438Y-112015626D01*
X168585438Y-112015626D02*
X168585438Y-78715626D01*
D12*
G04 #@! TO.C,G\u002A\u002A\u002A*
G36*
X257195402Y-134678615D02*
G01*
X257898285Y-134754830D01*
X258511746Y-134893680D01*
X259247167Y-135217038D01*
X259966529Y-135710247D01*
X260619663Y-136331948D01*
X261166506Y-137043927D01*
X261566996Y-137807970D01*
X261745186Y-138348859D01*
X261894800Y-139285828D01*
X261872155Y-140249795D01*
X261679992Y-141193254D01*
X261321054Y-142068699D01*
X261302523Y-142102841D01*
X260851733Y-142748643D01*
X260250965Y-143357950D01*
X259552255Y-143890785D01*
X258807638Y-144307168D01*
X258069149Y-144567123D01*
X257730921Y-144629968D01*
X256874577Y-144672534D01*
X255983816Y-144577130D01*
X255128414Y-144354209D01*
X254378145Y-144014223D01*
X254329472Y-143985134D01*
X253799565Y-143600248D01*
X253284865Y-143115992D01*
X252827096Y-142580658D01*
X252467979Y-142042543D01*
X252249235Y-141549941D01*
X252232150Y-141433235D01*
X252310762Y-141320766D01*
X252548569Y-141225833D01*
X252911067Y-141114579D01*
X253162457Y-141610673D01*
X253216889Y-141716420D01*
X253400489Y-142026625D01*
X253551935Y-142166691D01*
X253702998Y-142153983D01*
X253885446Y-142005866D01*
X254127011Y-141762796D01*
X253797981Y-141100546D01*
X253626127Y-140728171D01*
X253525855Y-140412888D01*
X253480445Y-140071520D01*
X253470246Y-139614984D01*
X253476534Y-139271805D01*
X253514130Y-138888973D01*
X253601097Y-138564561D01*
X253754905Y-138212495D01*
X253912003Y-137924025D01*
X254401021Y-137277966D01*
X255000345Y-136760375D01*
X255676469Y-136396631D01*
X256395887Y-136212113D01*
X256900000Y-136152409D01*
X256900000Y-136576352D01*
X256899197Y-136691608D01*
X256875282Y-136901655D01*
X256786155Y-136985274D01*
X256589452Y-137000296D01*
X256573908Y-137000471D01*
X256255055Y-137046306D01*
X255923767Y-137148682D01*
X255706442Y-137255981D01*
X255413474Y-137433189D01*
X255137346Y-137626641D01*
X254932220Y-137797923D01*
X254852261Y-137908621D01*
X254854653Y-137917780D01*
X254958098Y-138016795D01*
X255166982Y-138152033D01*
X255294109Y-138221995D01*
X255455755Y-138273492D01*
X255609295Y-138222609D01*
X255839448Y-138057427D01*
X256297644Y-137811896D01*
X256828344Y-137718070D01*
X257365567Y-137781559D01*
X257870943Y-137986448D01*
X258306100Y-138316823D01*
X258632666Y-138756770D01*
X258812268Y-139290375D01*
X258872769Y-139663199D01*
X258449691Y-139663199D01*
X258400713Y-139663029D01*
X258155161Y-139644857D01*
X258049321Y-139573253D01*
X258026613Y-139415029D01*
X258021974Y-139366199D01*
X257916966Y-139114835D01*
X257711477Y-138851722D01*
X257481779Y-138675727D01*
X257079101Y-138540931D01*
X256662905Y-138561825D01*
X256281507Y-138724047D01*
X255983221Y-139013236D01*
X255816361Y-139415031D01*
X255806329Y-139808390D01*
X255948051Y-140214832D01*
X256221361Y-140528091D01*
X256588880Y-140720450D01*
X257013229Y-140764193D01*
X257457027Y-140631600D01*
X257492718Y-140613117D01*
X257689254Y-140534196D01*
X257833533Y-140570592D01*
X258020333Y-140740655D01*
X258282661Y-141006660D01*
X258042523Y-141204157D01*
X257662944Y-141430516D01*
X257133598Y-141557080D01*
X256575992Y-141525508D01*
X256040689Y-141339901D01*
X255578256Y-141004358D01*
X255503757Y-140925385D01*
X255184624Y-140443654D01*
X255009220Y-139903372D01*
X255001068Y-139371107D01*
X255024235Y-139122222D01*
X254956994Y-138963315D01*
X254754547Y-138824316D01*
X254653694Y-138770550D01*
X254486534Y-138719166D01*
X254382595Y-138787338D01*
X254317719Y-139003422D01*
X254267752Y-139395777D01*
X254279919Y-140012328D01*
X254462851Y-140662074D01*
X254799961Y-141238951D01*
X255265128Y-141716839D01*
X255832232Y-142069624D01*
X256475153Y-142271187D01*
X257167770Y-142295412D01*
X257199211Y-142291984D01*
X257907418Y-142113209D01*
X258534285Y-141762287D01*
X259047441Y-141263075D01*
X259414517Y-140639432D01*
X259420173Y-140625738D01*
X259564520Y-140021799D01*
X259550651Y-139364124D01*
X259392005Y-138708858D01*
X259102023Y-138112147D01*
X258694145Y-137630137D01*
X258305026Y-137288485D01*
X258474323Y-136933465D01*
X258643621Y-136578444D01*
X258937663Y-136787820D01*
X259354447Y-137151318D01*
X259788207Y-137671533D01*
X260115312Y-138224124D01*
X260203969Y-138443038D01*
X260280704Y-138750710D01*
X260319736Y-139136446D01*
X260330480Y-139663199D01*
X260328803Y-139937280D01*
X260312221Y-140338785D01*
X260267691Y-140635585D01*
X260182865Y-140893264D01*
X260045395Y-141177403D01*
X259687508Y-141729218D01*
X259083935Y-142341019D01*
X258350223Y-142809115D01*
X258082106Y-142931074D01*
X257764043Y-143032624D01*
X257411176Y-143081171D01*
X256938923Y-143093775D01*
X256818170Y-143093477D01*
X256406281Y-143078648D01*
X256089131Y-143026083D01*
X255777916Y-142914614D01*
X255383834Y-142723071D01*
X254660387Y-142351894D01*
X254386430Y-142637844D01*
X254112473Y-142923793D01*
X254661277Y-143240979D01*
X255465099Y-143611793D01*
X256340939Y-143824625D01*
X257212636Y-143855926D01*
X258055981Y-143712598D01*
X258846762Y-143401539D01*
X259560770Y-142929649D01*
X260173794Y-142303827D01*
X260661623Y-141530974D01*
X260735058Y-141381513D01*
X260883472Y-141058514D01*
X260975562Y-140790013D01*
X261024737Y-140511180D01*
X261044407Y-140157185D01*
X261047984Y-139663199D01*
X261047691Y-139462982D01*
X261039745Y-139027114D01*
X261010848Y-138707867D01*
X260947704Y-138440579D01*
X260837012Y-138160585D01*
X260665476Y-137803221D01*
X260518856Y-137526473D01*
X260031130Y-136835223D01*
X259423480Y-136284712D01*
X258659525Y-135839323D01*
X258648475Y-135834093D01*
X258322187Y-135687687D01*
X258048547Y-135594450D01*
X257763203Y-135542528D01*
X257401805Y-135520068D01*
X256900000Y-135515215D01*
X256882639Y-135515218D01*
X256385881Y-135520419D01*
X256027637Y-135543576D01*
X255743556Y-135596544D01*
X255469286Y-135691175D01*
X255140476Y-135839323D01*
X254771543Y-136037993D01*
X254335288Y-136320858D01*
X253986693Y-136596350D01*
X253911073Y-136669248D01*
X253497074Y-137180841D01*
X253137143Y-137803457D01*
X252869520Y-138461402D01*
X252732445Y-139078984D01*
X252672149Y-139663199D01*
X252276800Y-139663199D01*
X252194613Y-139662795D01*
X251980683Y-139640058D01*
X251896272Y-139545430D01*
X251881452Y-139328119D01*
X251894269Y-139131031D01*
X251983136Y-138652847D01*
X252137064Y-138111184D01*
X252332910Y-137582023D01*
X252547530Y-137141344D01*
X252862899Y-136676137D01*
X253482949Y-136009693D01*
X254219371Y-135441979D01*
X255024317Y-135007763D01*
X255849939Y-134741809D01*
X255884823Y-134734824D01*
X256493960Y-134670218D01*
X257195402Y-134678615D01*
G37*
G36*
X89795902Y-134857659D02*
G01*
X90498785Y-134933874D01*
X91112246Y-135072724D01*
X91847667Y-135396082D01*
X92567029Y-135889291D01*
X93220163Y-136510992D01*
X93767006Y-137222971D01*
X94167496Y-137987014D01*
X94345686Y-138527903D01*
X94495300Y-139464872D01*
X94472655Y-140428839D01*
X94280492Y-141372298D01*
X93921554Y-142247743D01*
X93903023Y-142281885D01*
X93452233Y-142927687D01*
X92851465Y-143536994D01*
X92152755Y-144069829D01*
X91408138Y-144486212D01*
X90669649Y-144746167D01*
X90331421Y-144809012D01*
X89475077Y-144851578D01*
X88584316Y-144756174D01*
X87728914Y-144533253D01*
X86978645Y-144193267D01*
X86929972Y-144164178D01*
X86400065Y-143779292D01*
X85885365Y-143295036D01*
X85427596Y-142759702D01*
X85068479Y-142221587D01*
X84849735Y-141728985D01*
X84832650Y-141612279D01*
X84911262Y-141499810D01*
X85149069Y-141404877D01*
X85511567Y-141293623D01*
X85762957Y-141789717D01*
X85817389Y-141895464D01*
X86000989Y-142205669D01*
X86152435Y-142345735D01*
X86303498Y-142333027D01*
X86485946Y-142184910D01*
X86727511Y-141941840D01*
X86398481Y-141279590D01*
X86226627Y-140907215D01*
X86126355Y-140591932D01*
X86080945Y-140250564D01*
X86070746Y-139794028D01*
X86077034Y-139450849D01*
X86114630Y-139068017D01*
X86201597Y-138743605D01*
X86355405Y-138391539D01*
X86512503Y-138103069D01*
X87001521Y-137457010D01*
X87600845Y-136939419D01*
X88276969Y-136575675D01*
X88996387Y-136391157D01*
X89500500Y-136331453D01*
X89500500Y-136755396D01*
X89499697Y-136870652D01*
X89475782Y-137080699D01*
X89386655Y-137164318D01*
X89189952Y-137179340D01*
X89174408Y-137179515D01*
X88855555Y-137225350D01*
X88524267Y-137327726D01*
X88306942Y-137435025D01*
X88013974Y-137612233D01*
X87737846Y-137805685D01*
X87532720Y-137976967D01*
X87452761Y-138087665D01*
X87455153Y-138096824D01*
X87558598Y-138195839D01*
X87767482Y-138331077D01*
X87894609Y-138401039D01*
X88056255Y-138452536D01*
X88209795Y-138401653D01*
X88439948Y-138236471D01*
X88898144Y-137990940D01*
X89428844Y-137897114D01*
X89966067Y-137960603D01*
X90471443Y-138165492D01*
X90906600Y-138495867D01*
X91233166Y-138935814D01*
X91412768Y-139469419D01*
X91473269Y-139842243D01*
X91050191Y-139842243D01*
X91001213Y-139842073D01*
X90755661Y-139823901D01*
X90649821Y-139752297D01*
X90627113Y-139594073D01*
X90622474Y-139545243D01*
X90517466Y-139293879D01*
X90311977Y-139030766D01*
X90082279Y-138854771D01*
X89679601Y-138719975D01*
X89263405Y-138740869D01*
X88882007Y-138903091D01*
X88583721Y-139192280D01*
X88416861Y-139594075D01*
X88406829Y-139987434D01*
X88548551Y-140393876D01*
X88821861Y-140707135D01*
X89189380Y-140899494D01*
X89613729Y-140943237D01*
X90057527Y-140810644D01*
X90093218Y-140792161D01*
X90289754Y-140713240D01*
X90434033Y-140749636D01*
X90620833Y-140919699D01*
X90883161Y-141185704D01*
X90643023Y-141383201D01*
X90263444Y-141609560D01*
X89734098Y-141736124D01*
X89176492Y-141704552D01*
X88641189Y-141518945D01*
X88178756Y-141183402D01*
X88104257Y-141104429D01*
X87785124Y-140622698D01*
X87609720Y-140082416D01*
X87601568Y-139550151D01*
X87624735Y-139301266D01*
X87557494Y-139142359D01*
X87355047Y-139003360D01*
X87254194Y-138949594D01*
X87087034Y-138898210D01*
X86983095Y-138966382D01*
X86918219Y-139182466D01*
X86868252Y-139574821D01*
X86880419Y-140191372D01*
X87063351Y-140841118D01*
X87400461Y-141417995D01*
X87865628Y-141895883D01*
X88432732Y-142248668D01*
X89075653Y-142450231D01*
X89768270Y-142474456D01*
X89799711Y-142471028D01*
X90507918Y-142292253D01*
X91134785Y-141941331D01*
X91647941Y-141442119D01*
X92015017Y-140818476D01*
X92020673Y-140804782D01*
X92165020Y-140200843D01*
X92151151Y-139543168D01*
X91992505Y-138887902D01*
X91702523Y-138291191D01*
X91294645Y-137809181D01*
X90905526Y-137467529D01*
X91074823Y-137112509D01*
X91244121Y-136757488D01*
X91538163Y-136966864D01*
X91954947Y-137330362D01*
X92388707Y-137850577D01*
X92715812Y-138403168D01*
X92804469Y-138622082D01*
X92881204Y-138929754D01*
X92920236Y-139315490D01*
X92930980Y-139842243D01*
X92929303Y-140116324D01*
X92912721Y-140517829D01*
X92868191Y-140814629D01*
X92783365Y-141072308D01*
X92645895Y-141356447D01*
X92288008Y-141908262D01*
X91684435Y-142520063D01*
X90950723Y-142988159D01*
X90682606Y-143110118D01*
X90364543Y-143211668D01*
X90011676Y-143260215D01*
X89539423Y-143272819D01*
X89418670Y-143272521D01*
X89006781Y-143257692D01*
X88689631Y-143205127D01*
X88378416Y-143093658D01*
X87984334Y-142902115D01*
X87260887Y-142530938D01*
X86986930Y-142816888D01*
X86712973Y-143102837D01*
X87261777Y-143420023D01*
X88065599Y-143790837D01*
X88941439Y-144003669D01*
X89813136Y-144034970D01*
X90656481Y-143891642D01*
X91447262Y-143580583D01*
X92161270Y-143108693D01*
X92774294Y-142482871D01*
X93262123Y-141710018D01*
X93335558Y-141560557D01*
X93483972Y-141237558D01*
X93576062Y-140969057D01*
X93625237Y-140690224D01*
X93644907Y-140336229D01*
X93648484Y-139842243D01*
X93648191Y-139642026D01*
X93640245Y-139206158D01*
X93611348Y-138886911D01*
X93548204Y-138619623D01*
X93437512Y-138339629D01*
X93265976Y-137982265D01*
X93119356Y-137705517D01*
X92631630Y-137014267D01*
X92023980Y-136463756D01*
X91260025Y-136018367D01*
X91248975Y-136013137D01*
X90922687Y-135866731D01*
X90649047Y-135773494D01*
X90363703Y-135721572D01*
X90002305Y-135699112D01*
X89500500Y-135694259D01*
X89483139Y-135694262D01*
X88986381Y-135699463D01*
X88628137Y-135722620D01*
X88344056Y-135775588D01*
X88069786Y-135870219D01*
X87740976Y-136018367D01*
X87372043Y-136217037D01*
X86935788Y-136499902D01*
X86587193Y-136775394D01*
X86511573Y-136848292D01*
X86097574Y-137359885D01*
X85737643Y-137982501D01*
X85470020Y-138640446D01*
X85332945Y-139258028D01*
X85272649Y-139842243D01*
X84877300Y-139842243D01*
X84795113Y-139841839D01*
X84581183Y-139819102D01*
X84496772Y-139724474D01*
X84481952Y-139507163D01*
X84494769Y-139310075D01*
X84583636Y-138831891D01*
X84737564Y-138290228D01*
X84933410Y-137761067D01*
X85148030Y-137320388D01*
X85463399Y-136855181D01*
X86083449Y-136188737D01*
X86819871Y-135621023D01*
X87624817Y-135186807D01*
X88450439Y-134920853D01*
X88485323Y-134913868D01*
X89094460Y-134849262D01*
X89795902Y-134857659D01*
G37*
G04 #@! TD*
%LPC*%
D13*
G04 #@! TO.C,S17*
X145998631Y-150781510D03*
X142018410Y-147098055D03*
D14*
X145168800Y-154523352D03*
D15*
X140000491Y-152642241D03*
D14*
X134832182Y-150761130D03*
G04 #@! TD*
D16*
G04 #@! TO.C,H4*
X166600000Y-155000000D03*
G04 #@! TD*
D14*
G04 #@! TO.C,S21*
X290639318Y-96034639D03*
D15*
X296109188Y-96609546D03*
D14*
X301579058Y-97184453D03*
D13*
X296725906Y-90741867D03*
X301479006Y-93353005D03*
G04 #@! TD*
D16*
G04 #@! TO.C,H3*
X145600000Y-86100000D03*
G04 #@! TD*
D14*
G04 #@! TO.C,S35*
X201480985Y-154544628D03*
D15*
X206649294Y-152663517D03*
D14*
X211817603Y-150782406D03*
D13*
X204631375Y-147119331D03*
X210048081Y-147382584D03*
G04 #@! TD*
D14*
G04 #@! TO.C,S19*
X286682834Y-133830254D03*
D15*
X292152704Y-134405161D03*
D14*
X297622574Y-134980068D03*
D13*
X292769422Y-128537482D03*
X297522522Y-131148620D03*
G04 #@! TD*
D16*
G04 #@! TO.C,H7*
X286000000Y-86700000D03*
G04 #@! TD*
D14*
G04 #@! TO.C,S26*
X247148889Y-105636296D03*
D15*
X252648889Y-105636296D03*
D14*
X258148889Y-105636296D03*
D13*
X252648889Y-99736296D03*
X257648889Y-101836296D03*
G04 #@! TD*
D14*
G04 #@! TO.C,S24*
X268287777Y-92149822D03*
D15*
X273784427Y-92341769D03*
D14*
X279281077Y-92533716D03*
D13*
X273990334Y-86445363D03*
X278913999Y-88718581D03*
G04 #@! TD*
D14*
G04 #@! TO.C,S18*
X155092406Y-160390121D03*
D15*
X159305650Y-163925453D03*
D14*
X163518894Y-167460785D03*
D13*
X163098097Y-159405791D03*
X165578465Y-164228422D03*
G04 #@! TD*
D16*
G04 #@! TO.C,H5*
X201000000Y-86100000D03*
G04 #@! TD*
D14*
G04 #@! TO.C,S23*
X267690832Y-111131399D03*
D15*
X273187482Y-111323346D03*
D14*
X278684132Y-111515293D03*
D13*
X273393389Y-105426940D03*
X278317054Y-107700158D03*
G04 #@! TD*
D14*
G04 #@! TO.C,S30*
X227158901Y-91626313D03*
D15*
X232658901Y-91626313D03*
D14*
X238158901Y-91626313D03*
D13*
X232658901Y-85726313D03*
X237658901Y-87826313D03*
G04 #@! TD*
D14*
G04 #@! TO.C,S20*
X288668883Y-114934351D03*
D15*
X294138753Y-115509258D03*
D14*
X299608623Y-116084165D03*
D13*
X294755471Y-109641579D03*
X299508571Y-112252717D03*
G04 #@! TD*
G04 #@! TO.C,S15*
X139729235Y-82935866D03*
X134766646Y-80748924D03*
D14*
X140162839Y-86744013D03*
D15*
X134663677Y-86648025D03*
D14*
X129164515Y-86552037D03*
G04 #@! TD*
G04 #@! TO.C,S31*
X207132732Y-125011852D03*
D15*
X212631894Y-124915864D03*
D14*
X218131056Y-124819876D03*
D13*
X212528925Y-119016763D03*
X217564813Y-121029181D03*
G04 #@! TD*
D14*
G04 #@! TO.C,S14*
X128832935Y-105549147D03*
D15*
X134332097Y-105645135D03*
D14*
X139831259Y-105741123D03*
D13*
X134435066Y-99746034D03*
X139397655Y-101932976D03*
G04 #@! TD*
D14*
G04 #@! TO.C,S25*
X247148901Y-124636309D03*
D15*
X252648901Y-124636309D03*
D14*
X258148901Y-124636309D03*
D13*
X252648901Y-118736309D03*
X257648901Y-120836309D03*
G04 #@! TD*
D16*
G04 #@! TO.C,H6*
X180000000Y-155000000D03*
G04 #@! TD*
D14*
G04 #@! TO.C,S22*
X267027765Y-130119831D03*
D15*
X272524415Y-130311778D03*
D14*
X278021065Y-130503725D03*
D13*
X272730322Y-124415372D03*
X277653987Y-126688590D03*
G04 #@! TD*
D14*
G04 #@! TO.C,S27*
X247168901Y-86626316D03*
D15*
X252668901Y-86626316D03*
D14*
X258168901Y-86626316D03*
D13*
X252668901Y-80726316D03*
X257668901Y-82826316D03*
G04 #@! TD*
D14*
G04 #@! TO.C,S28*
X227148896Y-129616322D03*
D15*
X232648896Y-129616322D03*
D14*
X238148896Y-129616322D03*
D13*
X232648896Y-123716322D03*
X237648896Y-125816322D03*
G04 #@! TD*
D14*
G04 #@! TO.C,S29*
X227148894Y-110616314D03*
D15*
X232648894Y-110616314D03*
D14*
X238148894Y-110616314D03*
D13*
X232648894Y-104716314D03*
X237648894Y-106816314D03*
G04 #@! TD*
D14*
G04 #@! TO.C,S36*
X183145695Y-167460815D03*
D15*
X187358939Y-163925483D03*
D14*
X191572183Y-160390151D03*
D13*
X183566492Y-159405821D03*
X188746568Y-157800576D03*
G04 #@! TD*
D14*
G04 #@! TO.C,S33*
X206459011Y-86982304D03*
D15*
X211958173Y-86886316D03*
D14*
X217457335Y-86790328D03*
D13*
X211855204Y-80987215D03*
X216891092Y-82999633D03*
G04 #@! TD*
D17*
G04 #@! TO.C,EC11*
X151274610Y-132459595D03*
D18*
X151274610Y-137459595D03*
X151274610Y-134959595D03*
D19*
X158774610Y-129359595D03*
X158774610Y-140559595D03*
D18*
X165774610Y-137459595D03*
X165774610Y-132459595D03*
G04 #@! TD*
D14*
G04 #@! TO.C,S32*
X206830577Y-105998291D03*
D15*
X212329739Y-105902303D03*
D14*
X217828901Y-105806315D03*
D13*
X212226770Y-100003202D03*
X217262658Y-102015620D03*
G04 #@! TD*
D20*
G04 #@! TO.C,MCU2*
X179665190Y-82826752D03*
X179665190Y-85366752D03*
X179665190Y-87906752D03*
X179665190Y-90446752D03*
X179665190Y-92986752D03*
X179665190Y-95526752D03*
X179665190Y-98066752D03*
X179665190Y-100606752D03*
X179665190Y-103146752D03*
X179665190Y-105686752D03*
X179665190Y-108226752D03*
X179665190Y-110766752D03*
X194905190Y-110766752D03*
X194905190Y-108226752D03*
X194905190Y-105686752D03*
X194905190Y-103146752D03*
X194905190Y-100606752D03*
X194905190Y-98066752D03*
X194905190Y-95526752D03*
X194905190Y-92986752D03*
X194905190Y-90446752D03*
X194905190Y-87906752D03*
X194905190Y-85366752D03*
X194905190Y-82826752D03*
X182205190Y-105686752D03*
X184745190Y-105686752D03*
X187285190Y-105686752D03*
G04 #@! TD*
D14*
G04 #@! TO.C,S34*
X223168905Y-148646300D03*
D15*
X228668905Y-148646300D03*
D14*
X234168905Y-148646300D03*
D13*
X228668905Y-142746300D03*
X233668905Y-144846300D03*
G04 #@! TD*
D20*
G04 #@! TO.C,MCU1*
X167055438Y-82805626D03*
X167055438Y-85345626D03*
X167055438Y-87885626D03*
X167055438Y-90425626D03*
X167055438Y-92965626D03*
X167055439Y-95505626D03*
X167055438Y-98045626D03*
X167055438Y-100585626D03*
X167055438Y-103125626D03*
X167055438Y-105665626D03*
X167055438Y-108205626D03*
X167055438Y-110745626D03*
X151815438Y-110745626D03*
X151815438Y-108205626D03*
X151815438Y-105665626D03*
X151815438Y-103125626D03*
X151815438Y-100585626D03*
X151815438Y-98045626D03*
X151815438Y-95505626D03*
X151815438Y-92965626D03*
X151815438Y-90425626D03*
X151815438Y-87885626D03*
X151815439Y-85345626D03*
X151815438Y-82805626D03*
X164515438Y-105665626D03*
X161975438Y-105665626D03*
X159435438Y-105665626D03*
G04 #@! TD*
D16*
G04 #@! TO.C,H8*
X280500000Y-142500000D03*
G04 #@! TD*
D14*
G04 #@! TO.C,S5*
X68027419Y-111540702D03*
D15*
X73524069Y-111348755D03*
D14*
X79020719Y-111156808D03*
D13*
X73318162Y-105452349D03*
X78388405Y-107376572D03*
G04 #@! TD*
D14*
G04 #@! TO.C,S2*
X47049888Y-116095792D03*
D15*
X52519758Y-115520885D03*
D14*
X57989628Y-114945978D03*
D13*
X51903040Y-109653206D03*
X57095159Y-111219056D03*
G04 #@! TD*
D14*
G04 #@! TO.C,S11*
X108500497Y-110642237D03*
D15*
X114000497Y-110642237D03*
D14*
X119500497Y-110642237D03*
D13*
X114000497Y-104742237D03*
X119000497Y-106842237D03*
G04 #@! TD*
D14*
G04 #@! TO.C,S13*
X128501333Y-124546248D03*
D15*
X134000495Y-124642236D03*
D14*
X139499657Y-124738224D03*
D13*
X134103464Y-118743135D03*
X139066053Y-120930077D03*
G04 #@! TD*
D14*
G04 #@! TO.C,S6*
X67364343Y-92552272D03*
D15*
X72860993Y-92360325D03*
D14*
X78357643Y-92168378D03*
D13*
X72655086Y-86463919D03*
X77725329Y-88388142D03*
G04 #@! TD*
D14*
G04 #@! TO.C,S1*
X49035919Y-134991699D03*
D15*
X54505789Y-134416792D03*
D14*
X59975659Y-133841885D03*
D13*
X53889071Y-128549113D03*
X59081190Y-130114963D03*
G04 #@! TD*
D16*
G04 #@! TO.C,H2*
X66100000Y-142500000D03*
G04 #@! TD*
D13*
G04 #@! TO.C,S9*
X99000480Y-82842230D03*
X94000480Y-80742230D03*
D14*
X99500480Y-86642230D03*
D15*
X94000480Y-86642230D03*
D14*
X88500480Y-86642230D03*
G04 #@! TD*
D16*
G04 #@! TO.C,H1*
X60600000Y-86700000D03*
G04 #@! TD*
D14*
G04 #@! TO.C,S7*
X88500498Y-124642242D03*
D15*
X94000498Y-124642242D03*
D14*
X99500498Y-124642242D03*
D13*
X94000498Y-118742242D03*
X99000498Y-120842242D03*
G04 #@! TD*
D14*
G04 #@! TO.C,S3*
X45063842Y-97199873D03*
D15*
X50533712Y-96624966D03*
D14*
X56003582Y-96050059D03*
D13*
X49916994Y-90757287D03*
X55109113Y-92323137D03*
G04 #@! TD*
D14*
G04 #@! TO.C,S16*
X112500496Y-148642232D03*
D15*
X118000496Y-148642232D03*
D14*
X123500496Y-148642232D03*
D13*
X118000496Y-142742232D03*
X123000496Y-144842232D03*
G04 #@! TD*
D14*
G04 #@! TO.C,S8*
X88500489Y-105642233D03*
D15*
X94000489Y-105642233D03*
D14*
X99500489Y-105642233D03*
D13*
X94000489Y-99742233D03*
X99000489Y-101842233D03*
G04 #@! TD*
D14*
G04 #@! TO.C,S4*
X68690534Y-130529130D03*
D15*
X74187184Y-130337183D03*
D14*
X79683834Y-130145236D03*
D13*
X73981277Y-124440777D03*
X79051520Y-126365000D03*
G04 #@! TD*
D14*
G04 #@! TO.C,S10*
X108500498Y-129642244D03*
D15*
X114000498Y-129642244D03*
D14*
X119500498Y-129642244D03*
D13*
X114000498Y-123742244D03*
X119000498Y-125842244D03*
G04 #@! TD*
D14*
G04 #@! TO.C,S12*
X108500494Y-91642235D03*
D15*
X114000494Y-91642235D03*
D14*
X119500494Y-91642235D03*
D13*
X114000494Y-85742235D03*
X119000494Y-87842235D03*
G04 #@! TD*
%LPD*%
M02*
