%TF.GenerationSoftware,KiCad,Pcbnew,8.0.8*%
%TF.CreationDate,2025-05-06T09:20:43+01:00*%
%TF.ProjectId,main_wired,6d61696e-5f77-4697-9265-642e6b696361,0.1*%
%TF.SameCoordinates,Original*%
%TF.FileFunction,Drillmap*%
%TF.FilePolarity,Positive*%
%FSLAX45Y45*%
G04 Gerber Fmt 4.5, Leading zero omitted, Abs format (unit mm)*
G04 Created by KiCad (PCBNEW 8.0.8) date 2025-05-06 09:20:43*
%MOMM*%
%LPD*%
G01*
G04 APERTURE LIST*
%ADD10C,0.050000*%
%ADD11C,0.150000*%
%ADD12C,0.200000*%
%ADD13C,0.190000*%
%ADD14C,0.345000*%
G04 APERTURE END LIST*
D10*
X17200000Y-12425000D02*
G75*
G02*
X17100000Y-12425000I-50000J0D01*
G01*
X17100000Y-12425000D02*
G75*
G02*
X17200000Y-12425000I50000J0D01*
G01*
X17575000Y-15485000D02*
G75*
G02*
X17475000Y-15485000I-50000J0D01*
G01*
X17475000Y-15485000D02*
G75*
G02*
X17575000Y-15485000I50000J0D01*
G01*
D11*
X17080000Y-11475000D02*
X17580000Y-11475000D01*
X17585955Y-16355675D02*
X17580000Y-15940000D01*
D10*
X17575000Y-12175000D02*
G75*
G02*
X17475000Y-12175000I-50000J0D01*
G01*
X17475000Y-12175000D02*
G75*
G02*
X17575000Y-12175000I50000J0D01*
G01*
D11*
X17080000Y-14910000D02*
X17080000Y-12500000D01*
D10*
X17200000Y-8050000D02*
G75*
G02*
X17100000Y-8050000I-50000J0D01*
G01*
X17100000Y-8050000D02*
G75*
G02*
X17200000Y-8050000I50000J0D01*
G01*
D11*
X8425292Y-7714390D02*
X16899480Y-7714390D01*
D10*
X17575000Y-8675000D02*
G75*
G02*
X17475000Y-8675000I-50000J0D01*
G01*
X17475000Y-8675000D02*
G75*
G02*
X17575000Y-8675000I50000J0D01*
G01*
D11*
X17585955Y-7885472D02*
G75*
G02*
X17767737Y-7712488I173195J2D01*
G01*
D10*
X17200000Y-15735000D02*
G75*
G02*
X17100000Y-15735000I-50000J0D01*
G01*
X17100000Y-15735000D02*
G75*
G02*
X17200000Y-15735000I50000J0D01*
G01*
X17575000Y-11675000D02*
G75*
G02*
X17475000Y-11675000I-50000J0D01*
G01*
X17475000Y-11675000D02*
G75*
G02*
X17575000Y-11675000I50000J0D01*
G01*
X17200000Y-11800000D02*
G75*
G02*
X17100000Y-11800000I-50000J0D01*
G01*
X17100000Y-11800000D02*
G75*
G02*
X17200000Y-11800000I50000J0D01*
G01*
X17200000Y-15860000D02*
G75*
G02*
X17100000Y-15860000I-50000J0D01*
G01*
X17100000Y-15860000D02*
G75*
G02*
X17200000Y-15860000I50000J0D01*
G01*
D11*
X9727218Y-14618229D02*
X5055062Y-14618233D01*
X9727218Y-14618229D02*
X10927461Y-15845960D01*
D10*
X17575000Y-8300000D02*
G75*
G02*
X17475000Y-8300000I-50000J0D01*
G01*
X17475000Y-8300000D02*
G75*
G02*
X17575000Y-8300000I50000J0D01*
G01*
X17575000Y-14985000D02*
G75*
G02*
X17475000Y-14985000I-50000J0D01*
G01*
X17475000Y-14985000D02*
G75*
G02*
X17575000Y-14985000I50000J0D01*
G01*
D11*
X30560926Y-8783714D02*
X26291660Y-7718427D01*
D10*
X17200000Y-15610000D02*
G75*
G02*
X17100000Y-15610000I-50000J0D01*
G01*
X17100000Y-15610000D02*
G75*
G02*
X17200000Y-15610000I50000J0D01*
G01*
D11*
X26241939Y-7712481D02*
G75*
G02*
X26291660Y-7718427I1311J-199899D01*
G01*
D10*
X17200000Y-8175000D02*
G75*
G02*
X17100000Y-8175000I-50000J0D01*
G01*
X17100000Y-8175000D02*
G75*
G02*
X17200000Y-8175000I50000J0D01*
G01*
X17575000Y-12425000D02*
G75*
G02*
X17475000Y-12425000I-50000J0D01*
G01*
X17475000Y-12425000D02*
G75*
G02*
X17575000Y-12425000I50000J0D01*
G01*
X17575000Y-8175000D02*
G75*
G02*
X17475000Y-8175000I-50000J0D01*
G01*
X17475000Y-8175000D02*
G75*
G02*
X17575000Y-8175000I50000J0D01*
G01*
X17200000Y-15235000D02*
G75*
G02*
X17100000Y-15235000I-50000J0D01*
G01*
X17100000Y-15235000D02*
G75*
G02*
X17200000Y-15235000I50000J0D01*
G01*
X17575000Y-8925000D02*
G75*
G02*
X17475000Y-8925000I-50000J0D01*
G01*
X17475000Y-8925000D02*
G75*
G02*
X17575000Y-8925000I50000J0D01*
G01*
X17200000Y-11925000D02*
G75*
G02*
X17100000Y-11925000I-50000J0D01*
G01*
X17100000Y-11925000D02*
G75*
G02*
X17200000Y-11925000I50000J0D01*
G01*
D11*
X17080000Y-9000000D02*
X17580000Y-9000000D01*
X17585955Y-7885472D02*
X17580000Y-7975000D01*
D10*
X17200000Y-15485000D02*
G75*
G02*
X17100000Y-15485000I-50000J0D01*
G01*
X17100000Y-15485000D02*
G75*
G02*
X17200000Y-15485000I50000J0D01*
G01*
X17200000Y-15110000D02*
G75*
G02*
X17100000Y-15110000I-50000J0D01*
G01*
X17100000Y-15110000D02*
G75*
G02*
X17200000Y-15110000I50000J0D01*
G01*
D11*
X18601509Y-17611301D02*
X17585955Y-16355675D01*
D10*
X17200000Y-8300000D02*
G75*
G02*
X17100000Y-8300000I-50000J0D01*
G01*
X17100000Y-8300000D02*
G75*
G02*
X17200000Y-8300000I50000J0D01*
G01*
D11*
X5055062Y-14618233D02*
G75*
G02*
X4560092Y-14188943I-2J499993D01*
G01*
D10*
X17575000Y-15735000D02*
G75*
G02*
X17475000Y-15735000I-50000J0D01*
G01*
X17475000Y-15735000D02*
G75*
G02*
X17575000Y-15735000I50000J0D01*
G01*
X17575000Y-15860000D02*
G75*
G02*
X17475000Y-15860000I-50000J0D01*
G01*
X17475000Y-15860000D02*
G75*
G02*
X17575000Y-15860000I50000J0D01*
G01*
X17575000Y-8425000D02*
G75*
G02*
X17475000Y-8425000I-50000J0D01*
G01*
X17475000Y-8425000D02*
G75*
G02*
X17575000Y-8425000I50000J0D01*
G01*
D11*
X4106292Y-8785623D02*
X8375559Y-7720335D01*
X4560087Y-14188943D02*
X3955809Y-9000580D01*
D10*
X17200000Y-11550000D02*
G75*
G02*
X17100000Y-11550000I-50000J0D01*
G01*
X17100000Y-11550000D02*
G75*
G02*
X17200000Y-11550000I50000J0D01*
G01*
X17575000Y-11925000D02*
G75*
G02*
X17475000Y-11925000I-50000J0D01*
G01*
X17475000Y-11925000D02*
G75*
G02*
X17575000Y-11925000I50000J0D01*
G01*
D11*
X23739757Y-15844051D02*
X23389751Y-15845059D01*
X18891654Y-17640315D02*
G75*
G02*
X23389751Y-15845056I4460602J-4643512D01*
G01*
D10*
X17200000Y-11675000D02*
G75*
G02*
X17100000Y-11675000I-50000J0D01*
G01*
X17100000Y-11675000D02*
G75*
G02*
X17200000Y-11675000I50000J0D01*
G01*
D11*
X24940000Y-14616320D02*
X29612156Y-14616324D01*
X17080000Y-7975000D02*
X17580000Y-7975000D01*
X24940000Y-14616320D02*
X23739757Y-15844051D01*
X16065710Y-17613210D02*
G75*
G02*
X15775565Y-17642223I-157080J105570D01*
G01*
D10*
X17575000Y-8550000D02*
G75*
G02*
X17475000Y-8550000I-50000J0D01*
G01*
X17475000Y-8550000D02*
G75*
G02*
X17575000Y-8550000I50000J0D01*
G01*
D11*
X17080000Y-15940000D02*
X17580000Y-15940000D01*
D10*
X17200000Y-12050000D02*
G75*
G02*
X17100000Y-12050000I-50000J0D01*
G01*
X17100000Y-12050000D02*
G75*
G02*
X17200000Y-12050000I50000J0D01*
G01*
D11*
X10927461Y-15845960D02*
X11277467Y-15846967D01*
D10*
X17200000Y-8675000D02*
G75*
G02*
X17100000Y-8675000I-50000J0D01*
G01*
X17100000Y-8675000D02*
G75*
G02*
X17200000Y-8675000I50000J0D01*
G01*
X17575000Y-12300000D02*
G75*
G02*
X17475000Y-12300000I-50000J0D01*
G01*
X17475000Y-12300000D02*
G75*
G02*
X17575000Y-12300000I50000J0D01*
G01*
X17575000Y-15235000D02*
G75*
G02*
X17475000Y-15235000I-50000J0D01*
G01*
X17475000Y-15235000D02*
G75*
G02*
X17575000Y-15235000I50000J0D01*
G01*
X17575000Y-11550000D02*
G75*
G02*
X17475000Y-11550000I-50000J0D01*
G01*
X17475000Y-11550000D02*
G75*
G02*
X17575000Y-11550000I50000J0D01*
G01*
D11*
X11277467Y-15846965D02*
G75*
G02*
X15775564Y-17642224I37490J-6438781D01*
G01*
D10*
X17200000Y-12175000D02*
G75*
G02*
X17100000Y-12175000I-50000J0D01*
G01*
X17100000Y-12175000D02*
G75*
G02*
X17200000Y-12175000I50000J0D01*
G01*
D11*
X17080000Y-14910000D02*
X17580000Y-14910000D01*
D10*
X17575000Y-12050000D02*
G75*
G02*
X17475000Y-12050000I-50000J0D01*
G01*
X17475000Y-12050000D02*
G75*
G02*
X17575000Y-12050000I50000J0D01*
G01*
D11*
X17076658Y-7891497D02*
X17080000Y-7975000D01*
X30560926Y-8783714D02*
G75*
G02*
X30711401Y-8998670I-48426J-194046D01*
G01*
X16065710Y-17613210D02*
X17081263Y-16357584D01*
X17580000Y-11475000D02*
X17580000Y-9000000D01*
X17080000Y-12500000D02*
X17580000Y-12500000D01*
X17080000Y-11475000D02*
X17080000Y-9000000D01*
X26241939Y-7712481D02*
X17767738Y-7712481D01*
D10*
X17200000Y-12300000D02*
G75*
G02*
X17100000Y-12300000I-50000J0D01*
G01*
X17100000Y-12300000D02*
G75*
G02*
X17200000Y-12300000I50000J0D01*
G01*
X17200000Y-8425000D02*
G75*
G02*
X17100000Y-8425000I-50000J0D01*
G01*
X17100000Y-8425000D02*
G75*
G02*
X17200000Y-8425000I50000J0D01*
G01*
D11*
X18891654Y-17640315D02*
G75*
G02*
X18601509Y-17611301I-133064J134595D01*
G01*
D10*
X17200000Y-15360000D02*
G75*
G02*
X17100000Y-15360000I-50000J0D01*
G01*
X17100000Y-15360000D02*
G75*
G02*
X17200000Y-15360000I50000J0D01*
G01*
D11*
X30107131Y-14187035D02*
G75*
G02*
X29612156Y-14616326I-494981J70715D01*
G01*
D10*
X17200000Y-8800000D02*
G75*
G02*
X17100000Y-8800000I-50000J0D01*
G01*
X17100000Y-8800000D02*
G75*
G02*
X17200000Y-8800000I50000J0D01*
G01*
X17575000Y-8800000D02*
G75*
G02*
X17475000Y-8800000I-50000J0D01*
G01*
X17475000Y-8800000D02*
G75*
G02*
X17575000Y-8800000I50000J0D01*
G01*
X17575000Y-8050000D02*
G75*
G02*
X17475000Y-8050000I-50000J0D01*
G01*
X17475000Y-8050000D02*
G75*
G02*
X17575000Y-8050000I50000J0D01*
G01*
X17575000Y-15610000D02*
G75*
G02*
X17475000Y-15610000I-50000J0D01*
G01*
X17475000Y-15610000D02*
G75*
G02*
X17575000Y-15610000I50000J0D01*
G01*
X17200000Y-8925000D02*
G75*
G02*
X17100000Y-8925000I-50000J0D01*
G01*
X17100000Y-8925000D02*
G75*
G02*
X17200000Y-8925000I50000J0D01*
G01*
D11*
X17580000Y-14910000D02*
X17580000Y-12500000D01*
X8375559Y-7720335D02*
G75*
G02*
X8425292Y-7714390I48421J-194055D01*
G01*
D10*
X17575000Y-15110000D02*
G75*
G02*
X17475000Y-15110000I-50000J0D01*
G01*
X17475000Y-15110000D02*
G75*
G02*
X17575000Y-15110000I50000J0D01*
G01*
X17575000Y-15360000D02*
G75*
G02*
X17475000Y-15360000I-50000J0D01*
G01*
X17475000Y-15360000D02*
G75*
G02*
X17575000Y-15360000I50000J0D01*
G01*
D11*
X3955809Y-9000580D02*
G75*
G02*
X4106293Y-8785626I198911J20900D01*
G01*
X17081263Y-16357584D02*
X17080000Y-15940000D01*
D10*
X17200000Y-14985000D02*
G75*
G02*
X17100000Y-14985000I-50000J0D01*
G01*
X17100000Y-14985000D02*
G75*
G02*
X17200000Y-14985000I50000J0D01*
G01*
D11*
X30107131Y-14187035D02*
X30711409Y-8998671D01*
X16899480Y-7714390D02*
G75*
G02*
X17076653Y-7891497I8590J-168580D01*
G01*
D10*
X17200000Y-8550000D02*
G75*
G02*
X17100000Y-8550000I-50000J0D01*
G01*
X17100000Y-8550000D02*
G75*
G02*
X17200000Y-8550000I50000J0D01*
G01*
X17575000Y-11800000D02*
G75*
G02*
X17475000Y-11800000I-50000J0D01*
G01*
X17475000Y-11800000D02*
G75*
G02*
X17575000Y-11800000I50000J0D01*
G01*
D12*
D13*
X4411384Y-9624987D02*
X4601384Y-9814987D01*
X4601384Y-9624987D02*
X4411384Y-9814987D01*
X4609989Y-11514579D02*
X4799989Y-11704579D01*
X4799989Y-11514579D02*
X4609989Y-11704579D01*
X4808592Y-13404170D02*
X4998592Y-13594170D01*
X4998592Y-13404170D02*
X4808592Y-13594170D01*
X5505358Y-9510006D02*
X5695358Y-9700006D01*
X5695358Y-9510006D02*
X5505358Y-9700006D01*
X5703963Y-11399598D02*
X5893963Y-11589598D01*
X5893963Y-11399598D02*
X5703963Y-11589598D01*
X5902566Y-13289188D02*
X6092566Y-13479188D01*
X6092566Y-13289188D02*
X5902566Y-13479188D01*
X6641434Y-9160227D02*
X6831434Y-9350227D01*
X6831434Y-9160227D02*
X6641434Y-9350227D01*
X6707742Y-11059070D02*
X6897742Y-11249070D01*
X6897742Y-11059070D02*
X6707742Y-11249070D01*
X6774053Y-12957913D02*
X6964053Y-13147913D01*
X6964053Y-12957913D02*
X6774053Y-13147913D01*
X7740764Y-9121838D02*
X7930764Y-9311838D01*
X7930764Y-9121838D02*
X7740764Y-9311838D01*
X7807072Y-11020681D02*
X7997072Y-11210681D01*
X7997072Y-11020681D02*
X7807072Y-11210681D01*
X7873383Y-12919524D02*
X8063383Y-13109524D01*
X8063383Y-12919524D02*
X7873383Y-13109524D01*
X8755048Y-8569223D02*
X8945048Y-8759223D01*
X8945048Y-8569223D02*
X8755048Y-8759223D01*
X8755049Y-10469223D02*
X8945049Y-10659223D01*
X8945049Y-10469223D02*
X8755049Y-10659223D01*
X8755050Y-12369224D02*
X8945050Y-12559224D01*
X8945050Y-12369224D02*
X8755050Y-12559224D01*
X9855048Y-8569223D02*
X10045048Y-8759223D01*
X10045048Y-8569223D02*
X9855048Y-8759223D01*
X9855049Y-10469223D02*
X10045049Y-10659223D01*
X10045049Y-10469223D02*
X9855049Y-10659223D01*
X9855050Y-12369224D02*
X10045050Y-12559224D01*
X10045050Y-12369224D02*
X9855050Y-12559224D01*
X10755049Y-9069224D02*
X10945049Y-9259224D01*
X10945049Y-9069224D02*
X10755049Y-9259224D01*
X10755050Y-10969224D02*
X10945050Y-11159224D01*
X10945050Y-10969224D02*
X10755050Y-11159224D01*
X10755050Y-12869224D02*
X10945050Y-13059224D01*
X10945050Y-12869224D02*
X10755050Y-13059224D01*
X11155050Y-14769223D02*
X11345050Y-14959223D01*
X11345050Y-14769223D02*
X11155050Y-14959223D01*
X11855049Y-9069224D02*
X12045049Y-9259224D01*
X12045049Y-9069224D02*
X11855049Y-9259224D01*
X11855050Y-10969224D02*
X12045050Y-11159224D01*
X12045050Y-10969224D02*
X11855050Y-11159224D01*
X11855050Y-12869224D02*
X12045050Y-13059224D01*
X12045050Y-12869224D02*
X11855050Y-13059224D01*
X12255050Y-14769223D02*
X12445050Y-14959223D01*
X12445050Y-14769223D02*
X12255050Y-14959223D01*
X12755133Y-12359625D02*
X12945133Y-12549625D01*
X12945133Y-12359625D02*
X12755133Y-12549625D01*
X12788293Y-10459915D02*
X12978293Y-10649915D01*
X12978293Y-10459915D02*
X12788293Y-10649915D01*
X12821451Y-8560204D02*
X13011451Y-8750204D01*
X13011451Y-8560204D02*
X12821451Y-8750204D01*
X13388218Y-14981113D02*
X13578218Y-15171113D01*
X13578218Y-14981113D02*
X13388218Y-15171113D01*
X13854966Y-12378822D02*
X14044966Y-12568822D01*
X14044966Y-12378822D02*
X13854966Y-12568822D01*
X13888126Y-10479112D02*
X14078126Y-10669112D01*
X14078126Y-10479112D02*
X13888126Y-10669112D01*
X13921284Y-8579401D02*
X14111284Y-8769401D01*
X14111284Y-8579401D02*
X13921284Y-8769401D01*
X14421880Y-15357335D02*
X14611880Y-15547335D01*
X14611880Y-15357335D02*
X14421880Y-15547335D01*
X15414241Y-15944012D02*
X15604241Y-16134012D01*
X15604241Y-15944012D02*
X15414241Y-16134012D01*
X16256889Y-16651078D02*
X16446889Y-16841079D01*
X16446889Y-16651078D02*
X16256889Y-16841079D01*
X18219570Y-16651081D02*
X18409570Y-16841082D01*
X18409570Y-16651081D02*
X18219570Y-16841082D01*
X19062218Y-15944015D02*
X19252218Y-16134015D01*
X19252218Y-15944015D02*
X19062218Y-16134015D01*
X20053099Y-15359463D02*
X20243099Y-15549463D01*
X20243099Y-15359463D02*
X20053099Y-15549463D01*
X20550901Y-8603230D02*
X20740901Y-8793230D01*
X20740901Y-8603230D02*
X20550901Y-8793230D01*
X20588058Y-10504829D02*
X20778058Y-10694829D01*
X20778058Y-10504829D02*
X20588058Y-10694829D01*
X20618273Y-12406185D02*
X20808273Y-12596185D01*
X20808273Y-12406185D02*
X20618273Y-12596185D01*
X21086760Y-14983241D02*
X21276760Y-15173241D01*
X21276760Y-14983241D02*
X21086760Y-15173241D01*
X21650734Y-8584033D02*
X21840734Y-8774033D01*
X21840734Y-8584033D02*
X21650734Y-8774033D01*
X21687890Y-10485632D02*
X21877890Y-10675632D01*
X21877890Y-10485632D02*
X21687890Y-10675632D01*
X21718106Y-12386988D02*
X21908106Y-12576988D01*
X21908106Y-12386988D02*
X21718106Y-12576988D01*
X22221891Y-14769630D02*
X22411890Y-14959630D01*
X22411890Y-14769630D02*
X22221891Y-14959630D01*
X22619889Y-10966631D02*
X22809889Y-11156631D01*
X22809889Y-10966631D02*
X22619889Y-11156631D01*
X22619890Y-12866632D02*
X22809890Y-13056632D01*
X22809890Y-12866632D02*
X22619890Y-13056632D01*
X22620890Y-9067631D02*
X22810890Y-9257631D01*
X22810890Y-9067631D02*
X22620890Y-9257631D01*
X23321890Y-14769630D02*
X23511890Y-14959630D01*
X23511890Y-14769630D02*
X23321890Y-14959630D01*
X23719889Y-10966631D02*
X23909889Y-11156631D01*
X23909889Y-10966631D02*
X23719889Y-11156631D01*
X23719890Y-12866632D02*
X23909890Y-13056632D01*
X23909890Y-12866632D02*
X23719890Y-13056632D01*
X23720890Y-9067631D02*
X23910890Y-9257631D01*
X23910890Y-9067631D02*
X23720890Y-9257631D01*
X24619889Y-10468630D02*
X24809889Y-10658630D01*
X24809889Y-10468630D02*
X24619889Y-10658630D01*
X24619890Y-12368631D02*
X24809890Y-12558631D01*
X24809890Y-12368631D02*
X24619890Y-12558631D01*
X24621890Y-8567632D02*
X24811890Y-8757632D01*
X24811890Y-8567632D02*
X24621890Y-8757632D01*
X25719889Y-10468630D02*
X25909889Y-10658630D01*
X25909889Y-10468630D02*
X25719889Y-10658630D01*
X25719890Y-12368631D02*
X25909890Y-12558631D01*
X25909890Y-12368631D02*
X25719890Y-12558631D01*
X25721890Y-8567632D02*
X25911890Y-8757632D01*
X25911890Y-8567632D02*
X25721890Y-8757632D01*
X26607776Y-12916983D02*
X26797776Y-13106983D01*
X26797776Y-12916983D02*
X26607776Y-13106983D01*
X26674083Y-11018140D02*
X26864083Y-11208140D01*
X26864083Y-11018140D02*
X26674083Y-11208140D01*
X26733778Y-9119982D02*
X26923778Y-9309982D01*
X26923778Y-9119982D02*
X26733778Y-9309982D01*
X27707106Y-12955372D02*
X27897106Y-13145372D01*
X27897106Y-12955372D02*
X27707106Y-13145372D01*
X27773413Y-11056529D02*
X27963413Y-11246529D01*
X27963413Y-11056529D02*
X27773413Y-11246529D01*
X27833108Y-9158372D02*
X28023108Y-9348372D01*
X28023108Y-9158372D02*
X27833108Y-9348372D01*
X28573283Y-13288025D02*
X28763283Y-13478025D01*
X28763283Y-13288025D02*
X28573283Y-13478025D01*
X28771888Y-11398435D02*
X28961888Y-11588435D01*
X28961888Y-11398435D02*
X28771888Y-11588435D01*
X28968932Y-9508464D02*
X29158932Y-9698464D01*
X29158932Y-9508464D02*
X28968932Y-9698464D01*
X29667257Y-13403007D02*
X29857257Y-13593007D01*
X29857257Y-13403007D02*
X29667257Y-13593007D01*
X29865862Y-11513416D02*
X30055862Y-11703416D01*
X30055862Y-11513416D02*
X29865862Y-11703416D01*
X30062906Y-9623445D02*
X30252906Y-9813445D01*
X30252906Y-9623445D02*
X30062906Y-9813445D01*
D14*
X5225871Y-9662497D02*
G75*
G02*
X4880871Y-9662497I-172500J0D01*
G01*
X4880871Y-9662497D02*
G75*
G02*
X5225871Y-9662497I172500J0D01*
G01*
X5424476Y-11552088D02*
G75*
G02*
X5079476Y-11552088I-172500J0D01*
G01*
X5079476Y-11552088D02*
G75*
G02*
X5424476Y-11552088I172500J0D01*
G01*
X5623079Y-13441679D02*
G75*
G02*
X5278079Y-13441679I-172500J0D01*
G01*
X5278079Y-13441679D02*
G75*
G02*
X5623079Y-13441679I172500J0D01*
G01*
X7458599Y-9236033D02*
G75*
G02*
X7113599Y-9236033I-172500J0D01*
G01*
X7113599Y-9236033D02*
G75*
G02*
X7458599Y-9236033I172500J0D01*
G01*
X7524907Y-11134876D02*
G75*
G02*
X7179907Y-11134876I-172500J0D01*
G01*
X7179907Y-11134876D02*
G75*
G02*
X7524907Y-11134876I172500J0D01*
G01*
X7591218Y-13033718D02*
G75*
G02*
X7246218Y-13033718I-172500J0D01*
G01*
X7246218Y-13033718D02*
G75*
G02*
X7591218Y-13033718I172500J0D01*
G01*
X9572548Y-8664223D02*
G75*
G02*
X9227548Y-8664223I-172500J0D01*
G01*
X9227548Y-8664223D02*
G75*
G02*
X9572548Y-8664223I172500J0D01*
G01*
X9572549Y-10564223D02*
G75*
G02*
X9227549Y-10564223I-172500J0D01*
G01*
X9227549Y-10564223D02*
G75*
G02*
X9572549Y-10564223I172500J0D01*
G01*
X9572550Y-12464224D02*
G75*
G02*
X9227550Y-12464224I-172500J0D01*
G01*
X9227550Y-12464224D02*
G75*
G02*
X9572550Y-12464224I172500J0D01*
G01*
X11572549Y-9164224D02*
G75*
G02*
X11227549Y-9164224I-172500J0D01*
G01*
X11227549Y-9164224D02*
G75*
G02*
X11572549Y-9164224I172500J0D01*
G01*
X11572550Y-11064224D02*
G75*
G02*
X11227550Y-11064224I-172500J0D01*
G01*
X11227550Y-11064224D02*
G75*
G02*
X11572550Y-11064224I172500J0D01*
G01*
X11572550Y-12964224D02*
G75*
G02*
X11227550Y-12964224I-172500J0D01*
G01*
X11227550Y-12964224D02*
G75*
G02*
X11572550Y-12964224I172500J0D01*
G01*
X11972550Y-14864223D02*
G75*
G02*
X11627550Y-14864223I-172500J0D01*
G01*
X11627550Y-14864223D02*
G75*
G02*
X11972550Y-14864223I172500J0D01*
G01*
X13572549Y-12464224D02*
G75*
G02*
X13227549Y-12464224I-172500J0D01*
G01*
X13227549Y-12464224D02*
G75*
G02*
X13572549Y-12464224I172500J0D01*
G01*
X13605710Y-10564514D02*
G75*
G02*
X13260710Y-10564514I-172500J0D01*
G01*
X13260710Y-10564514D02*
G75*
G02*
X13605710Y-10564514I172500J0D01*
G01*
X13638868Y-8664803D02*
G75*
G02*
X13293868Y-8664803I-172500J0D01*
G01*
X13293868Y-8664803D02*
G75*
G02*
X13638868Y-8664803I172500J0D01*
G01*
X14172549Y-15264224D02*
G75*
G02*
X13827549Y-15264224I-172500J0D01*
G01*
X13827549Y-15264224D02*
G75*
G02*
X14172549Y-15264224I172500J0D01*
G01*
X16103065Y-16392545D02*
G75*
G02*
X15758065Y-16392545I-172500J0D01*
G01*
X15758065Y-16392545D02*
G75*
G02*
X16103065Y-16392545I172500J0D01*
G01*
X18908394Y-16392548D02*
G75*
G02*
X18563394Y-16392548I-172500J0D01*
G01*
X18563394Y-16392548D02*
G75*
G02*
X18908394Y-16392548I172500J0D01*
G01*
X20837429Y-15266352D02*
G75*
G02*
X20492429Y-15266352I-172500J0D01*
G01*
X20492429Y-15266352D02*
G75*
G02*
X20837429Y-15266352I172500J0D01*
G01*
X21368317Y-8688632D02*
G75*
G02*
X21023317Y-8688632I-172500J0D01*
G01*
X21023317Y-8688632D02*
G75*
G02*
X21368317Y-8688632I172500J0D01*
G01*
X21405474Y-10590230D02*
G75*
G02*
X21060474Y-10590230I-172500J0D01*
G01*
X21060474Y-10590230D02*
G75*
G02*
X21405474Y-10590230I172500J0D01*
G01*
X21435689Y-12491586D02*
G75*
G02*
X21090689Y-12491586I-172500J0D01*
G01*
X21090689Y-12491586D02*
G75*
G02*
X21435689Y-12491586I172500J0D01*
G01*
X23039390Y-14864630D02*
G75*
G02*
X22694390Y-14864630I-172500J0D01*
G01*
X22694390Y-14864630D02*
G75*
G02*
X23039390Y-14864630I172500J0D01*
G01*
X23437389Y-11061631D02*
G75*
G02*
X23092389Y-11061631I-172500J0D01*
G01*
X23092389Y-11061631D02*
G75*
G02*
X23437389Y-11061631I172500J0D01*
G01*
X23437390Y-12961632D02*
G75*
G02*
X23092390Y-12961632I-172500J0D01*
G01*
X23092390Y-12961632D02*
G75*
G02*
X23437390Y-12961632I172500J0D01*
G01*
X23438390Y-9162631D02*
G75*
G02*
X23093390Y-9162631I-172500J0D01*
G01*
X23093390Y-9162631D02*
G75*
G02*
X23438390Y-9162631I172500J0D01*
G01*
X25437389Y-10563630D02*
G75*
G02*
X25092389Y-10563630I-172500J0D01*
G01*
X25092389Y-10563630D02*
G75*
G02*
X25437389Y-10563630I172500J0D01*
G01*
X25437390Y-12463631D02*
G75*
G02*
X25092390Y-12463631I-172500J0D01*
G01*
X25092390Y-12463631D02*
G75*
G02*
X25437390Y-12463631I172500J0D01*
G01*
X25439390Y-8662632D02*
G75*
G02*
X25094390Y-8662632I-172500J0D01*
G01*
X25094390Y-8662632D02*
G75*
G02*
X25439390Y-8662632I172500J0D01*
G01*
X27424941Y-13031178D02*
G75*
G02*
X27079941Y-13031178I-172500J0D01*
G01*
X27079941Y-13031178D02*
G75*
G02*
X27424941Y-13031178I172500J0D01*
G01*
X27491248Y-11132335D02*
G75*
G02*
X27146248Y-11132335I-172500J0D01*
G01*
X27146248Y-11132335D02*
G75*
G02*
X27491248Y-11132335I172500J0D01*
G01*
X27550943Y-9234177D02*
G75*
G02*
X27205943Y-9234177I-172500J0D01*
G01*
X27205943Y-9234177D02*
G75*
G02*
X27550943Y-9234177I172500J0D01*
G01*
X29387770Y-13440516D02*
G75*
G02*
X29042770Y-13440516I-172500J0D01*
G01*
X29042770Y-13440516D02*
G75*
G02*
X29387770Y-13440516I172500J0D01*
G01*
X29586375Y-11550926D02*
G75*
G02*
X29241375Y-11550926I-172500J0D01*
G01*
X29241375Y-11550926D02*
G75*
G02*
X29586375Y-11550926I172500J0D01*
G01*
X29783419Y-9660955D02*
G75*
G02*
X29438419Y-9660955I-172500J0D01*
G01*
X29438419Y-9660955D02*
G75*
G02*
X29783419Y-9660955I172500J0D01*
G01*
D12*
X4207991Y-18015883D02*
X4207991Y-17815883D01*
X4207991Y-17815883D02*
X4255610Y-17815883D01*
X4255610Y-17815883D02*
X4284181Y-17825407D01*
X4284181Y-17825407D02*
X4303229Y-17844454D01*
X4303229Y-17844454D02*
X4312753Y-17863502D01*
X4312753Y-17863502D02*
X4322277Y-17901597D01*
X4322277Y-17901597D02*
X4322277Y-17930169D01*
X4322277Y-17930169D02*
X4312753Y-17968264D01*
X4312753Y-17968264D02*
X4303229Y-17987312D01*
X4303229Y-17987312D02*
X4284181Y-18006359D01*
X4284181Y-18006359D02*
X4255610Y-18015883D01*
X4255610Y-18015883D02*
X4207991Y-18015883D01*
X4407991Y-18015883D02*
X4407991Y-17882550D01*
X4407991Y-17920645D02*
X4417515Y-17901597D01*
X4417515Y-17901597D02*
X4427039Y-17892073D01*
X4427039Y-17892073D02*
X4446086Y-17882550D01*
X4446086Y-17882550D02*
X4465134Y-17882550D01*
X4531800Y-18015883D02*
X4531800Y-17882550D01*
X4531800Y-17815883D02*
X4522277Y-17825407D01*
X4522277Y-17825407D02*
X4531800Y-17834931D01*
X4531800Y-17834931D02*
X4541324Y-17825407D01*
X4541324Y-17825407D02*
X4531800Y-17815883D01*
X4531800Y-17815883D02*
X4531800Y-17834931D01*
X4655610Y-18015883D02*
X4636562Y-18006359D01*
X4636562Y-18006359D02*
X4627039Y-17987312D01*
X4627039Y-17987312D02*
X4627039Y-17815883D01*
X4760372Y-18015883D02*
X4741324Y-18006359D01*
X4741324Y-18006359D02*
X4731800Y-17987312D01*
X4731800Y-17987312D02*
X4731800Y-17815883D01*
X4988943Y-18015883D02*
X4988943Y-17815883D01*
X4988943Y-17815883D02*
X5055610Y-17958740D01*
X5055610Y-17958740D02*
X5122277Y-17815883D01*
X5122277Y-17815883D02*
X5122277Y-18015883D01*
X5303229Y-18015883D02*
X5303229Y-17911121D01*
X5303229Y-17911121D02*
X5293705Y-17892073D01*
X5293705Y-17892073D02*
X5274658Y-17882550D01*
X5274658Y-17882550D02*
X5236562Y-17882550D01*
X5236562Y-17882550D02*
X5217515Y-17892073D01*
X5303229Y-18006359D02*
X5284181Y-18015883D01*
X5284181Y-18015883D02*
X5236562Y-18015883D01*
X5236562Y-18015883D02*
X5217515Y-18006359D01*
X5217515Y-18006359D02*
X5207991Y-17987312D01*
X5207991Y-17987312D02*
X5207991Y-17968264D01*
X5207991Y-17968264D02*
X5217515Y-17949216D01*
X5217515Y-17949216D02*
X5236562Y-17939693D01*
X5236562Y-17939693D02*
X5284181Y-17939693D01*
X5284181Y-17939693D02*
X5303229Y-17930169D01*
X5398467Y-17882550D02*
X5398467Y-18082550D01*
X5398467Y-17892073D02*
X5417515Y-17882550D01*
X5417515Y-17882550D02*
X5455610Y-17882550D01*
X5455610Y-17882550D02*
X5474658Y-17892073D01*
X5474658Y-17892073D02*
X5484181Y-17901597D01*
X5484181Y-17901597D02*
X5493705Y-17920645D01*
X5493705Y-17920645D02*
X5493705Y-17977788D01*
X5493705Y-17977788D02*
X5484181Y-17996835D01*
X5484181Y-17996835D02*
X5474658Y-18006359D01*
X5474658Y-18006359D02*
X5455610Y-18015883D01*
X5455610Y-18015883D02*
X5417515Y-18015883D01*
X5417515Y-18015883D02*
X5398467Y-18006359D01*
X5579420Y-17996835D02*
X5588943Y-18006359D01*
X5588943Y-18006359D02*
X5579420Y-18015883D01*
X5579420Y-18015883D02*
X5569896Y-18006359D01*
X5569896Y-18006359D02*
X5579420Y-17996835D01*
X5579420Y-17996835D02*
X5579420Y-18015883D01*
X5579420Y-17892073D02*
X5588943Y-17901597D01*
X5588943Y-17901597D02*
X5579420Y-17911121D01*
X5579420Y-17911121D02*
X5569896Y-17901597D01*
X5569896Y-17901597D02*
X5579420Y-17892073D01*
X5579420Y-17892073D02*
X5579420Y-17911121D01*
D13*
X3757214Y-18249399D02*
X3947214Y-18439399D01*
X3947214Y-18249399D02*
X3757214Y-18439399D01*
D12*
X4312753Y-18435883D02*
X4198467Y-18435883D01*
X4255610Y-18435883D02*
X4255610Y-18235883D01*
X4255610Y-18235883D02*
X4236562Y-18264454D01*
X4236562Y-18264454D02*
X4217515Y-18283502D01*
X4217515Y-18283502D02*
X4198467Y-18293026D01*
X4398467Y-18416835D02*
X4407991Y-18426359D01*
X4407991Y-18426359D02*
X4398467Y-18435883D01*
X4398467Y-18435883D02*
X4388943Y-18426359D01*
X4388943Y-18426359D02*
X4398467Y-18416835D01*
X4398467Y-18416835D02*
X4398467Y-18435883D01*
X4503229Y-18435883D02*
X4541324Y-18435883D01*
X4541324Y-18435883D02*
X4560372Y-18426359D01*
X4560372Y-18426359D02*
X4569896Y-18416835D01*
X4569896Y-18416835D02*
X4588943Y-18388264D01*
X4588943Y-18388264D02*
X4598467Y-18350169D01*
X4598467Y-18350169D02*
X4598467Y-18273978D01*
X4598467Y-18273978D02*
X4588943Y-18254931D01*
X4588943Y-18254931D02*
X4579420Y-18245407D01*
X4579420Y-18245407D02*
X4560372Y-18235883D01*
X4560372Y-18235883D02*
X4522277Y-18235883D01*
X4522277Y-18235883D02*
X4503229Y-18245407D01*
X4503229Y-18245407D02*
X4493705Y-18254931D01*
X4493705Y-18254931D02*
X4484181Y-18273978D01*
X4484181Y-18273978D02*
X4484181Y-18321597D01*
X4484181Y-18321597D02*
X4493705Y-18340645D01*
X4493705Y-18340645D02*
X4503229Y-18350169D01*
X4503229Y-18350169D02*
X4522277Y-18359693D01*
X4522277Y-18359693D02*
X4560372Y-18359693D01*
X4560372Y-18359693D02*
X4579420Y-18350169D01*
X4579420Y-18350169D02*
X4588943Y-18340645D01*
X4588943Y-18340645D02*
X4598467Y-18321597D01*
X4722277Y-18235883D02*
X4741324Y-18235883D01*
X4741324Y-18235883D02*
X4760372Y-18245407D01*
X4760372Y-18245407D02*
X4769896Y-18254931D01*
X4769896Y-18254931D02*
X4779420Y-18273978D01*
X4779420Y-18273978D02*
X4788943Y-18312073D01*
X4788943Y-18312073D02*
X4788943Y-18359693D01*
X4788943Y-18359693D02*
X4779420Y-18397788D01*
X4779420Y-18397788D02*
X4769896Y-18416835D01*
X4769896Y-18416835D02*
X4760372Y-18426359D01*
X4760372Y-18426359D02*
X4741324Y-18435883D01*
X4741324Y-18435883D02*
X4722277Y-18435883D01*
X4722277Y-18435883D02*
X4703229Y-18426359D01*
X4703229Y-18426359D02*
X4693705Y-18416835D01*
X4693705Y-18416835D02*
X4684181Y-18397788D01*
X4684181Y-18397788D02*
X4674658Y-18359693D01*
X4674658Y-18359693D02*
X4674658Y-18312073D01*
X4674658Y-18312073D02*
X4684181Y-18273978D01*
X4684181Y-18273978D02*
X4693705Y-18254931D01*
X4693705Y-18254931D02*
X4703229Y-18245407D01*
X4703229Y-18245407D02*
X4722277Y-18235883D01*
X4912753Y-18235883D02*
X4931801Y-18235883D01*
X4931801Y-18235883D02*
X4950848Y-18245407D01*
X4950848Y-18245407D02*
X4960372Y-18254931D01*
X4960372Y-18254931D02*
X4969896Y-18273978D01*
X4969896Y-18273978D02*
X4979420Y-18312073D01*
X4979420Y-18312073D02*
X4979420Y-18359693D01*
X4979420Y-18359693D02*
X4969896Y-18397788D01*
X4969896Y-18397788D02*
X4960372Y-18416835D01*
X4960372Y-18416835D02*
X4950848Y-18426359D01*
X4950848Y-18426359D02*
X4931801Y-18435883D01*
X4931801Y-18435883D02*
X4912753Y-18435883D01*
X4912753Y-18435883D02*
X4893705Y-18426359D01*
X4893705Y-18426359D02*
X4884181Y-18416835D01*
X4884181Y-18416835D02*
X4874658Y-18397788D01*
X4874658Y-18397788D02*
X4865134Y-18359693D01*
X4865134Y-18359693D02*
X4865134Y-18312073D01*
X4865134Y-18312073D02*
X4874658Y-18273978D01*
X4874658Y-18273978D02*
X4884181Y-18254931D01*
X4884181Y-18254931D02*
X4893705Y-18245407D01*
X4893705Y-18245407D02*
X4912753Y-18235883D01*
X5065134Y-18435883D02*
X5065134Y-18302550D01*
X5065134Y-18321597D02*
X5074658Y-18312073D01*
X5074658Y-18312073D02*
X5093705Y-18302550D01*
X5093705Y-18302550D02*
X5122277Y-18302550D01*
X5122277Y-18302550D02*
X5141324Y-18312073D01*
X5141324Y-18312073D02*
X5150848Y-18331121D01*
X5150848Y-18331121D02*
X5150848Y-18435883D01*
X5150848Y-18331121D02*
X5160372Y-18312073D01*
X5160372Y-18312073D02*
X5179420Y-18302550D01*
X5179420Y-18302550D02*
X5207991Y-18302550D01*
X5207991Y-18302550D02*
X5227039Y-18312073D01*
X5227039Y-18312073D02*
X5236562Y-18331121D01*
X5236562Y-18331121D02*
X5236562Y-18435883D01*
X5331801Y-18435883D02*
X5331801Y-18302550D01*
X5331801Y-18321597D02*
X5341324Y-18312073D01*
X5341324Y-18312073D02*
X5360372Y-18302550D01*
X5360372Y-18302550D02*
X5388943Y-18302550D01*
X5388943Y-18302550D02*
X5407991Y-18312073D01*
X5407991Y-18312073D02*
X5417515Y-18331121D01*
X5417515Y-18331121D02*
X5417515Y-18435883D01*
X5417515Y-18331121D02*
X5427039Y-18312073D01*
X5427039Y-18312073D02*
X5446086Y-18302550D01*
X5446086Y-18302550D02*
X5474658Y-18302550D01*
X5474658Y-18302550D02*
X5493705Y-18312073D01*
X5493705Y-18312073D02*
X5503229Y-18331121D01*
X5503229Y-18331121D02*
X5503229Y-18435883D01*
X5893705Y-18226359D02*
X5722277Y-18483502D01*
X6150848Y-18235883D02*
X6169896Y-18235883D01*
X6169896Y-18235883D02*
X6188943Y-18245407D01*
X6188943Y-18245407D02*
X6198467Y-18254931D01*
X6198467Y-18254931D02*
X6207991Y-18273978D01*
X6207991Y-18273978D02*
X6217515Y-18312073D01*
X6217515Y-18312073D02*
X6217515Y-18359693D01*
X6217515Y-18359693D02*
X6207991Y-18397788D01*
X6207991Y-18397788D02*
X6198467Y-18416835D01*
X6198467Y-18416835D02*
X6188943Y-18426359D01*
X6188943Y-18426359D02*
X6169896Y-18435883D01*
X6169896Y-18435883D02*
X6150848Y-18435883D01*
X6150848Y-18435883D02*
X6131801Y-18426359D01*
X6131801Y-18426359D02*
X6122277Y-18416835D01*
X6122277Y-18416835D02*
X6112753Y-18397788D01*
X6112753Y-18397788D02*
X6103229Y-18359693D01*
X6103229Y-18359693D02*
X6103229Y-18312073D01*
X6103229Y-18312073D02*
X6112753Y-18273978D01*
X6112753Y-18273978D02*
X6122277Y-18254931D01*
X6122277Y-18254931D02*
X6131801Y-18245407D01*
X6131801Y-18245407D02*
X6150848Y-18235883D01*
X6303229Y-18416835D02*
X6312753Y-18426359D01*
X6312753Y-18426359D02*
X6303229Y-18435883D01*
X6303229Y-18435883D02*
X6293705Y-18426359D01*
X6293705Y-18426359D02*
X6303229Y-18416835D01*
X6303229Y-18416835D02*
X6303229Y-18435883D01*
X6436562Y-18235883D02*
X6455610Y-18235883D01*
X6455610Y-18235883D02*
X6474658Y-18245407D01*
X6474658Y-18245407D02*
X6484182Y-18254931D01*
X6484182Y-18254931D02*
X6493705Y-18273978D01*
X6493705Y-18273978D02*
X6503229Y-18312073D01*
X6503229Y-18312073D02*
X6503229Y-18359693D01*
X6503229Y-18359693D02*
X6493705Y-18397788D01*
X6493705Y-18397788D02*
X6484182Y-18416835D01*
X6484182Y-18416835D02*
X6474658Y-18426359D01*
X6474658Y-18426359D02*
X6455610Y-18435883D01*
X6455610Y-18435883D02*
X6436562Y-18435883D01*
X6436562Y-18435883D02*
X6417515Y-18426359D01*
X6417515Y-18426359D02*
X6407991Y-18416835D01*
X6407991Y-18416835D02*
X6398467Y-18397788D01*
X6398467Y-18397788D02*
X6388943Y-18359693D01*
X6388943Y-18359693D02*
X6388943Y-18312073D01*
X6388943Y-18312073D02*
X6398467Y-18273978D01*
X6398467Y-18273978D02*
X6407991Y-18254931D01*
X6407991Y-18254931D02*
X6417515Y-18245407D01*
X6417515Y-18245407D02*
X6436562Y-18235883D01*
X6569896Y-18235883D02*
X6703229Y-18235883D01*
X6703229Y-18235883D02*
X6617515Y-18435883D01*
X6865134Y-18302550D02*
X6865134Y-18435883D01*
X6817515Y-18226359D02*
X6769896Y-18369216D01*
X6769896Y-18369216D02*
X6893705Y-18369216D01*
X6998467Y-18321597D02*
X6979420Y-18312073D01*
X6979420Y-18312073D02*
X6969896Y-18302550D01*
X6969896Y-18302550D02*
X6960372Y-18283502D01*
X6960372Y-18283502D02*
X6960372Y-18273978D01*
X6960372Y-18273978D02*
X6969896Y-18254931D01*
X6969896Y-18254931D02*
X6979420Y-18245407D01*
X6979420Y-18245407D02*
X6998467Y-18235883D01*
X6998467Y-18235883D02*
X7036563Y-18235883D01*
X7036563Y-18235883D02*
X7055610Y-18245407D01*
X7055610Y-18245407D02*
X7065134Y-18254931D01*
X7065134Y-18254931D02*
X7074658Y-18273978D01*
X7074658Y-18273978D02*
X7074658Y-18283502D01*
X7074658Y-18283502D02*
X7065134Y-18302550D01*
X7065134Y-18302550D02*
X7055610Y-18312073D01*
X7055610Y-18312073D02*
X7036563Y-18321597D01*
X7036563Y-18321597D02*
X6998467Y-18321597D01*
X6998467Y-18321597D02*
X6979420Y-18331121D01*
X6979420Y-18331121D02*
X6969896Y-18340645D01*
X6969896Y-18340645D02*
X6960372Y-18359693D01*
X6960372Y-18359693D02*
X6960372Y-18397788D01*
X6960372Y-18397788D02*
X6969896Y-18416835D01*
X6969896Y-18416835D02*
X6979420Y-18426359D01*
X6979420Y-18426359D02*
X6998467Y-18435883D01*
X6998467Y-18435883D02*
X7036563Y-18435883D01*
X7036563Y-18435883D02*
X7055610Y-18426359D01*
X7055610Y-18426359D02*
X7065134Y-18416835D01*
X7065134Y-18416835D02*
X7074658Y-18397788D01*
X7074658Y-18397788D02*
X7074658Y-18359693D01*
X7074658Y-18359693D02*
X7065134Y-18340645D01*
X7065134Y-18340645D02*
X7055610Y-18331121D01*
X7055610Y-18331121D02*
X7036563Y-18321597D01*
X7150848Y-18235883D02*
X7150848Y-18273978D01*
X7227039Y-18235883D02*
X7227039Y-18273978D01*
X7522277Y-18512073D02*
X7512753Y-18502550D01*
X7512753Y-18502550D02*
X7493705Y-18473978D01*
X7493705Y-18473978D02*
X7484182Y-18454931D01*
X7484182Y-18454931D02*
X7474658Y-18426359D01*
X7474658Y-18426359D02*
X7465134Y-18378740D01*
X7465134Y-18378740D02*
X7465134Y-18340645D01*
X7465134Y-18340645D02*
X7474658Y-18293026D01*
X7474658Y-18293026D02*
X7484182Y-18264454D01*
X7484182Y-18264454D02*
X7493705Y-18245407D01*
X7493705Y-18245407D02*
X7512753Y-18216835D01*
X7512753Y-18216835D02*
X7522277Y-18207312D01*
X7579420Y-18235883D02*
X7712753Y-18235883D01*
X7712753Y-18235883D02*
X7627039Y-18435883D01*
X7779420Y-18254931D02*
X7788944Y-18245407D01*
X7788944Y-18245407D02*
X7807991Y-18235883D01*
X7807991Y-18235883D02*
X7855610Y-18235883D01*
X7855610Y-18235883D02*
X7874658Y-18245407D01*
X7874658Y-18245407D02*
X7884182Y-18254931D01*
X7884182Y-18254931D02*
X7893705Y-18273978D01*
X7893705Y-18273978D02*
X7893705Y-18293026D01*
X7893705Y-18293026D02*
X7884182Y-18321597D01*
X7884182Y-18321597D02*
X7769896Y-18435883D01*
X7769896Y-18435883D02*
X7893705Y-18435883D01*
X8131801Y-18435883D02*
X8131801Y-18235883D01*
X8217515Y-18435883D02*
X8217515Y-18331121D01*
X8217515Y-18331121D02*
X8207991Y-18312073D01*
X8207991Y-18312073D02*
X8188944Y-18302550D01*
X8188944Y-18302550D02*
X8160372Y-18302550D01*
X8160372Y-18302550D02*
X8141325Y-18312073D01*
X8141325Y-18312073D02*
X8131801Y-18321597D01*
X8341325Y-18435883D02*
X8322277Y-18426359D01*
X8322277Y-18426359D02*
X8312753Y-18416835D01*
X8312753Y-18416835D02*
X8303229Y-18397788D01*
X8303229Y-18397788D02*
X8303229Y-18340645D01*
X8303229Y-18340645D02*
X8312753Y-18321597D01*
X8312753Y-18321597D02*
X8322277Y-18312073D01*
X8322277Y-18312073D02*
X8341325Y-18302550D01*
X8341325Y-18302550D02*
X8369896Y-18302550D01*
X8369896Y-18302550D02*
X8388944Y-18312073D01*
X8388944Y-18312073D02*
X8398468Y-18321597D01*
X8398468Y-18321597D02*
X8407991Y-18340645D01*
X8407991Y-18340645D02*
X8407991Y-18397788D01*
X8407991Y-18397788D02*
X8398468Y-18416835D01*
X8398468Y-18416835D02*
X8388944Y-18426359D01*
X8388944Y-18426359D02*
X8369896Y-18435883D01*
X8369896Y-18435883D02*
X8341325Y-18435883D01*
X8522277Y-18435883D02*
X8503229Y-18426359D01*
X8503229Y-18426359D02*
X8493706Y-18407312D01*
X8493706Y-18407312D02*
X8493706Y-18235883D01*
X8674658Y-18426359D02*
X8655610Y-18435883D01*
X8655610Y-18435883D02*
X8617515Y-18435883D01*
X8617515Y-18435883D02*
X8598468Y-18426359D01*
X8598468Y-18426359D02*
X8588944Y-18407312D01*
X8588944Y-18407312D02*
X8588944Y-18331121D01*
X8588944Y-18331121D02*
X8598468Y-18312073D01*
X8598468Y-18312073D02*
X8617515Y-18302550D01*
X8617515Y-18302550D02*
X8655610Y-18302550D01*
X8655610Y-18302550D02*
X8674658Y-18312073D01*
X8674658Y-18312073D02*
X8684182Y-18331121D01*
X8684182Y-18331121D02*
X8684182Y-18350169D01*
X8684182Y-18350169D02*
X8588944Y-18369216D01*
X8760372Y-18426359D02*
X8779420Y-18435883D01*
X8779420Y-18435883D02*
X8817515Y-18435883D01*
X8817515Y-18435883D02*
X8836563Y-18426359D01*
X8836563Y-18426359D02*
X8846087Y-18407312D01*
X8846087Y-18407312D02*
X8846087Y-18397788D01*
X8846087Y-18397788D02*
X8836563Y-18378740D01*
X8836563Y-18378740D02*
X8817515Y-18369216D01*
X8817515Y-18369216D02*
X8788944Y-18369216D01*
X8788944Y-18369216D02*
X8769896Y-18359693D01*
X8769896Y-18359693D02*
X8760372Y-18340645D01*
X8760372Y-18340645D02*
X8760372Y-18331121D01*
X8760372Y-18331121D02*
X8769896Y-18312073D01*
X8769896Y-18312073D02*
X8788944Y-18302550D01*
X8788944Y-18302550D02*
X8817515Y-18302550D01*
X8817515Y-18302550D02*
X8836563Y-18312073D01*
X8912753Y-18512073D02*
X8922277Y-18502550D01*
X8922277Y-18502550D02*
X8941325Y-18473978D01*
X8941325Y-18473978D02*
X8950849Y-18454931D01*
X8950849Y-18454931D02*
X8960372Y-18426359D01*
X8960372Y-18426359D02*
X8969896Y-18378740D01*
X8969896Y-18378740D02*
X8969896Y-18340645D01*
X8969896Y-18340645D02*
X8960372Y-18293026D01*
X8960372Y-18293026D02*
X8950849Y-18264454D01*
X8950849Y-18264454D02*
X8941325Y-18245407D01*
X8941325Y-18245407D02*
X8922277Y-18216835D01*
X8922277Y-18216835D02*
X8912753Y-18207312D01*
X9274658Y-18512073D02*
X9265134Y-18502550D01*
X9265134Y-18502550D02*
X9246087Y-18473978D01*
X9246087Y-18473978D02*
X9236563Y-18454931D01*
X9236563Y-18454931D02*
X9227039Y-18426359D01*
X9227039Y-18426359D02*
X9217515Y-18378740D01*
X9217515Y-18378740D02*
X9217515Y-18340645D01*
X9217515Y-18340645D02*
X9227039Y-18293026D01*
X9227039Y-18293026D02*
X9236563Y-18264454D01*
X9236563Y-18264454D02*
X9246087Y-18245407D01*
X9246087Y-18245407D02*
X9265134Y-18216835D01*
X9265134Y-18216835D02*
X9274658Y-18207312D01*
X9350849Y-18302550D02*
X9350849Y-18435883D01*
X9350849Y-18321597D02*
X9360372Y-18312073D01*
X9360372Y-18312073D02*
X9379420Y-18302550D01*
X9379420Y-18302550D02*
X9407991Y-18302550D01*
X9407991Y-18302550D02*
X9427039Y-18312073D01*
X9427039Y-18312073D02*
X9436563Y-18331121D01*
X9436563Y-18331121D02*
X9436563Y-18435883D01*
X9560372Y-18435883D02*
X9541325Y-18426359D01*
X9541325Y-18426359D02*
X9531801Y-18416835D01*
X9531801Y-18416835D02*
X9522277Y-18397788D01*
X9522277Y-18397788D02*
X9522277Y-18340645D01*
X9522277Y-18340645D02*
X9531801Y-18321597D01*
X9531801Y-18321597D02*
X9541325Y-18312073D01*
X9541325Y-18312073D02*
X9560372Y-18302550D01*
X9560372Y-18302550D02*
X9588944Y-18302550D01*
X9588944Y-18302550D02*
X9607991Y-18312073D01*
X9607991Y-18312073D02*
X9617515Y-18321597D01*
X9617515Y-18321597D02*
X9627039Y-18340645D01*
X9627039Y-18340645D02*
X9627039Y-18397788D01*
X9627039Y-18397788D02*
X9617515Y-18416835D01*
X9617515Y-18416835D02*
X9607991Y-18426359D01*
X9607991Y-18426359D02*
X9588944Y-18435883D01*
X9588944Y-18435883D02*
X9560372Y-18435883D01*
X9684182Y-18302550D02*
X9760372Y-18302550D01*
X9712753Y-18235883D02*
X9712753Y-18407312D01*
X9712753Y-18407312D02*
X9722277Y-18426359D01*
X9722277Y-18426359D02*
X9741325Y-18435883D01*
X9741325Y-18435883D02*
X9760372Y-18435883D01*
X9979420Y-18302550D02*
X9979420Y-18502550D01*
X9979420Y-18312073D02*
X9998468Y-18302550D01*
X9998468Y-18302550D02*
X10036563Y-18302550D01*
X10036563Y-18302550D02*
X10055611Y-18312073D01*
X10055611Y-18312073D02*
X10065134Y-18321597D01*
X10065134Y-18321597D02*
X10074658Y-18340645D01*
X10074658Y-18340645D02*
X10074658Y-18397788D01*
X10074658Y-18397788D02*
X10065134Y-18416835D01*
X10065134Y-18416835D02*
X10055611Y-18426359D01*
X10055611Y-18426359D02*
X10036563Y-18435883D01*
X10036563Y-18435883D02*
X9998468Y-18435883D01*
X9998468Y-18435883D02*
X9979420Y-18426359D01*
X10188944Y-18435883D02*
X10169896Y-18426359D01*
X10169896Y-18426359D02*
X10160372Y-18407312D01*
X10160372Y-18407312D02*
X10160372Y-18235883D01*
X10350849Y-18435883D02*
X10350849Y-18331121D01*
X10350849Y-18331121D02*
X10341325Y-18312073D01*
X10341325Y-18312073D02*
X10322277Y-18302550D01*
X10322277Y-18302550D02*
X10284182Y-18302550D01*
X10284182Y-18302550D02*
X10265134Y-18312073D01*
X10350849Y-18426359D02*
X10331801Y-18435883D01*
X10331801Y-18435883D02*
X10284182Y-18435883D01*
X10284182Y-18435883D02*
X10265134Y-18426359D01*
X10265134Y-18426359D02*
X10255611Y-18407312D01*
X10255611Y-18407312D02*
X10255611Y-18388264D01*
X10255611Y-18388264D02*
X10265134Y-18369216D01*
X10265134Y-18369216D02*
X10284182Y-18359693D01*
X10284182Y-18359693D02*
X10331801Y-18359693D01*
X10331801Y-18359693D02*
X10350849Y-18350169D01*
X10417515Y-18302550D02*
X10493706Y-18302550D01*
X10446087Y-18235883D02*
X10446087Y-18407312D01*
X10446087Y-18407312D02*
X10455611Y-18426359D01*
X10455611Y-18426359D02*
X10474658Y-18435883D01*
X10474658Y-18435883D02*
X10493706Y-18435883D01*
X10636563Y-18426359D02*
X10617515Y-18435883D01*
X10617515Y-18435883D02*
X10579420Y-18435883D01*
X10579420Y-18435883D02*
X10560372Y-18426359D01*
X10560372Y-18426359D02*
X10550849Y-18407312D01*
X10550849Y-18407312D02*
X10550849Y-18331121D01*
X10550849Y-18331121D02*
X10560372Y-18312073D01*
X10560372Y-18312073D02*
X10579420Y-18302550D01*
X10579420Y-18302550D02*
X10617515Y-18302550D01*
X10617515Y-18302550D02*
X10636563Y-18312073D01*
X10636563Y-18312073D02*
X10646087Y-18331121D01*
X10646087Y-18331121D02*
X10646087Y-18350169D01*
X10646087Y-18350169D02*
X10550849Y-18369216D01*
X10817515Y-18435883D02*
X10817515Y-18235883D01*
X10817515Y-18426359D02*
X10798468Y-18435883D01*
X10798468Y-18435883D02*
X10760372Y-18435883D01*
X10760372Y-18435883D02*
X10741325Y-18426359D01*
X10741325Y-18426359D02*
X10731801Y-18416835D01*
X10731801Y-18416835D02*
X10722277Y-18397788D01*
X10722277Y-18397788D02*
X10722277Y-18340645D01*
X10722277Y-18340645D02*
X10731801Y-18321597D01*
X10731801Y-18321597D02*
X10741325Y-18312073D01*
X10741325Y-18312073D02*
X10760372Y-18302550D01*
X10760372Y-18302550D02*
X10798468Y-18302550D01*
X10798468Y-18302550D02*
X10817515Y-18312073D01*
X10893706Y-18512073D02*
X10903230Y-18502550D01*
X10903230Y-18502550D02*
X10922277Y-18473978D01*
X10922277Y-18473978D02*
X10931801Y-18454931D01*
X10931801Y-18454931D02*
X10941325Y-18426359D01*
X10941325Y-18426359D02*
X10950849Y-18378740D01*
X10950849Y-18378740D02*
X10950849Y-18340645D01*
X10950849Y-18340645D02*
X10941325Y-18293026D01*
X10941325Y-18293026D02*
X10931801Y-18264454D01*
X10931801Y-18264454D02*
X10922277Y-18245407D01*
X10922277Y-18245407D02*
X10903230Y-18216835D01*
X10903230Y-18216835D02*
X10893706Y-18207312D01*
X3947214Y-18654399D02*
G75*
G02*
X3747214Y-18654399I-100000J0D01*
G01*
X3747214Y-18654399D02*
G75*
G02*
X3947214Y-18654399I100000J0D01*
G01*
X4188943Y-18545883D02*
X4312753Y-18545883D01*
X4312753Y-18545883D02*
X4246086Y-18622073D01*
X4246086Y-18622073D02*
X4274658Y-18622073D01*
X4274658Y-18622073D02*
X4293705Y-18631597D01*
X4293705Y-18631597D02*
X4303229Y-18641121D01*
X4303229Y-18641121D02*
X4312753Y-18660169D01*
X4312753Y-18660169D02*
X4312753Y-18707788D01*
X4312753Y-18707788D02*
X4303229Y-18726835D01*
X4303229Y-18726835D02*
X4293705Y-18736359D01*
X4293705Y-18736359D02*
X4274658Y-18745883D01*
X4274658Y-18745883D02*
X4217515Y-18745883D01*
X4217515Y-18745883D02*
X4198467Y-18736359D01*
X4198467Y-18736359D02*
X4188943Y-18726835D01*
X4398467Y-18726835D02*
X4407991Y-18736359D01*
X4407991Y-18736359D02*
X4398467Y-18745883D01*
X4398467Y-18745883D02*
X4388943Y-18736359D01*
X4388943Y-18736359D02*
X4398467Y-18726835D01*
X4398467Y-18726835D02*
X4398467Y-18745883D01*
X4579420Y-18612550D02*
X4579420Y-18745883D01*
X4531800Y-18536359D02*
X4484181Y-18679216D01*
X4484181Y-18679216D02*
X4607991Y-18679216D01*
X4779420Y-18545883D02*
X4684181Y-18545883D01*
X4684181Y-18545883D02*
X4674658Y-18641121D01*
X4674658Y-18641121D02*
X4684181Y-18631597D01*
X4684181Y-18631597D02*
X4703229Y-18622073D01*
X4703229Y-18622073D02*
X4750848Y-18622073D01*
X4750848Y-18622073D02*
X4769896Y-18631597D01*
X4769896Y-18631597D02*
X4779420Y-18641121D01*
X4779420Y-18641121D02*
X4788943Y-18660169D01*
X4788943Y-18660169D02*
X4788943Y-18707788D01*
X4788943Y-18707788D02*
X4779420Y-18726835D01*
X4779420Y-18726835D02*
X4769896Y-18736359D01*
X4769896Y-18736359D02*
X4750848Y-18745883D01*
X4750848Y-18745883D02*
X4703229Y-18745883D01*
X4703229Y-18745883D02*
X4684181Y-18736359D01*
X4684181Y-18736359D02*
X4674658Y-18726835D01*
X4912753Y-18545883D02*
X4931801Y-18545883D01*
X4931801Y-18545883D02*
X4950848Y-18555407D01*
X4950848Y-18555407D02*
X4960372Y-18564931D01*
X4960372Y-18564931D02*
X4969896Y-18583978D01*
X4969896Y-18583978D02*
X4979420Y-18622073D01*
X4979420Y-18622073D02*
X4979420Y-18669693D01*
X4979420Y-18669693D02*
X4969896Y-18707788D01*
X4969896Y-18707788D02*
X4960372Y-18726835D01*
X4960372Y-18726835D02*
X4950848Y-18736359D01*
X4950848Y-18736359D02*
X4931801Y-18745883D01*
X4931801Y-18745883D02*
X4912753Y-18745883D01*
X4912753Y-18745883D02*
X4893705Y-18736359D01*
X4893705Y-18736359D02*
X4884181Y-18726835D01*
X4884181Y-18726835D02*
X4874658Y-18707788D01*
X4874658Y-18707788D02*
X4865134Y-18669693D01*
X4865134Y-18669693D02*
X4865134Y-18622073D01*
X4865134Y-18622073D02*
X4874658Y-18583978D01*
X4874658Y-18583978D02*
X4884181Y-18564931D01*
X4884181Y-18564931D02*
X4893705Y-18555407D01*
X4893705Y-18555407D02*
X4912753Y-18545883D01*
X5065134Y-18745883D02*
X5065134Y-18612550D01*
X5065134Y-18631597D02*
X5074658Y-18622073D01*
X5074658Y-18622073D02*
X5093705Y-18612550D01*
X5093705Y-18612550D02*
X5122277Y-18612550D01*
X5122277Y-18612550D02*
X5141324Y-18622073D01*
X5141324Y-18622073D02*
X5150848Y-18641121D01*
X5150848Y-18641121D02*
X5150848Y-18745883D01*
X5150848Y-18641121D02*
X5160372Y-18622073D01*
X5160372Y-18622073D02*
X5179420Y-18612550D01*
X5179420Y-18612550D02*
X5207991Y-18612550D01*
X5207991Y-18612550D02*
X5227039Y-18622073D01*
X5227039Y-18622073D02*
X5236562Y-18641121D01*
X5236562Y-18641121D02*
X5236562Y-18745883D01*
X5331801Y-18745883D02*
X5331801Y-18612550D01*
X5331801Y-18631597D02*
X5341324Y-18622073D01*
X5341324Y-18622073D02*
X5360372Y-18612550D01*
X5360372Y-18612550D02*
X5388943Y-18612550D01*
X5388943Y-18612550D02*
X5407991Y-18622073D01*
X5407991Y-18622073D02*
X5417515Y-18641121D01*
X5417515Y-18641121D02*
X5417515Y-18745883D01*
X5417515Y-18641121D02*
X5427039Y-18622073D01*
X5427039Y-18622073D02*
X5446086Y-18612550D01*
X5446086Y-18612550D02*
X5474658Y-18612550D01*
X5474658Y-18612550D02*
X5493705Y-18622073D01*
X5493705Y-18622073D02*
X5503229Y-18641121D01*
X5503229Y-18641121D02*
X5503229Y-18745883D01*
X5893705Y-18536359D02*
X5722277Y-18793502D01*
X6150848Y-18545883D02*
X6169896Y-18545883D01*
X6169896Y-18545883D02*
X6188943Y-18555407D01*
X6188943Y-18555407D02*
X6198467Y-18564931D01*
X6198467Y-18564931D02*
X6207991Y-18583978D01*
X6207991Y-18583978D02*
X6217515Y-18622073D01*
X6217515Y-18622073D02*
X6217515Y-18669693D01*
X6217515Y-18669693D02*
X6207991Y-18707788D01*
X6207991Y-18707788D02*
X6198467Y-18726835D01*
X6198467Y-18726835D02*
X6188943Y-18736359D01*
X6188943Y-18736359D02*
X6169896Y-18745883D01*
X6169896Y-18745883D02*
X6150848Y-18745883D01*
X6150848Y-18745883D02*
X6131801Y-18736359D01*
X6131801Y-18736359D02*
X6122277Y-18726835D01*
X6122277Y-18726835D02*
X6112753Y-18707788D01*
X6112753Y-18707788D02*
X6103229Y-18669693D01*
X6103229Y-18669693D02*
X6103229Y-18622073D01*
X6103229Y-18622073D02*
X6112753Y-18583978D01*
X6112753Y-18583978D02*
X6122277Y-18564931D01*
X6122277Y-18564931D02*
X6131801Y-18555407D01*
X6131801Y-18555407D02*
X6150848Y-18545883D01*
X6303229Y-18726835D02*
X6312753Y-18736359D01*
X6312753Y-18736359D02*
X6303229Y-18745883D01*
X6303229Y-18745883D02*
X6293705Y-18736359D01*
X6293705Y-18736359D02*
X6303229Y-18726835D01*
X6303229Y-18726835D02*
X6303229Y-18745883D01*
X6503229Y-18745883D02*
X6388943Y-18745883D01*
X6446086Y-18745883D02*
X6446086Y-18545883D01*
X6446086Y-18545883D02*
X6427039Y-18574454D01*
X6427039Y-18574454D02*
X6407991Y-18593502D01*
X6407991Y-18593502D02*
X6388943Y-18603026D01*
X6569896Y-18545883D02*
X6693705Y-18545883D01*
X6693705Y-18545883D02*
X6627039Y-18622073D01*
X6627039Y-18622073D02*
X6655610Y-18622073D01*
X6655610Y-18622073D02*
X6674658Y-18631597D01*
X6674658Y-18631597D02*
X6684182Y-18641121D01*
X6684182Y-18641121D02*
X6693705Y-18660169D01*
X6693705Y-18660169D02*
X6693705Y-18707788D01*
X6693705Y-18707788D02*
X6684182Y-18726835D01*
X6684182Y-18726835D02*
X6674658Y-18736359D01*
X6674658Y-18736359D02*
X6655610Y-18745883D01*
X6655610Y-18745883D02*
X6598467Y-18745883D01*
X6598467Y-18745883D02*
X6579420Y-18736359D01*
X6579420Y-18736359D02*
X6569896Y-18726835D01*
X6874658Y-18545883D02*
X6779420Y-18545883D01*
X6779420Y-18545883D02*
X6769896Y-18641121D01*
X6769896Y-18641121D02*
X6779420Y-18631597D01*
X6779420Y-18631597D02*
X6798467Y-18622073D01*
X6798467Y-18622073D02*
X6846086Y-18622073D01*
X6846086Y-18622073D02*
X6865134Y-18631597D01*
X6865134Y-18631597D02*
X6874658Y-18641121D01*
X6874658Y-18641121D02*
X6884182Y-18660169D01*
X6884182Y-18660169D02*
X6884182Y-18707788D01*
X6884182Y-18707788D02*
X6874658Y-18726835D01*
X6874658Y-18726835D02*
X6865134Y-18736359D01*
X6865134Y-18736359D02*
X6846086Y-18745883D01*
X6846086Y-18745883D02*
X6798467Y-18745883D01*
X6798467Y-18745883D02*
X6779420Y-18736359D01*
X6779420Y-18736359D02*
X6769896Y-18726835D01*
X6998467Y-18631597D02*
X6979420Y-18622073D01*
X6979420Y-18622073D02*
X6969896Y-18612550D01*
X6969896Y-18612550D02*
X6960372Y-18593502D01*
X6960372Y-18593502D02*
X6960372Y-18583978D01*
X6960372Y-18583978D02*
X6969896Y-18564931D01*
X6969896Y-18564931D02*
X6979420Y-18555407D01*
X6979420Y-18555407D02*
X6998467Y-18545883D01*
X6998467Y-18545883D02*
X7036563Y-18545883D01*
X7036563Y-18545883D02*
X7055610Y-18555407D01*
X7055610Y-18555407D02*
X7065134Y-18564931D01*
X7065134Y-18564931D02*
X7074658Y-18583978D01*
X7074658Y-18583978D02*
X7074658Y-18593502D01*
X7074658Y-18593502D02*
X7065134Y-18612550D01*
X7065134Y-18612550D02*
X7055610Y-18622073D01*
X7055610Y-18622073D02*
X7036563Y-18631597D01*
X7036563Y-18631597D02*
X6998467Y-18631597D01*
X6998467Y-18631597D02*
X6979420Y-18641121D01*
X6979420Y-18641121D02*
X6969896Y-18650645D01*
X6969896Y-18650645D02*
X6960372Y-18669693D01*
X6960372Y-18669693D02*
X6960372Y-18707788D01*
X6960372Y-18707788D02*
X6969896Y-18726835D01*
X6969896Y-18726835D02*
X6979420Y-18736359D01*
X6979420Y-18736359D02*
X6998467Y-18745883D01*
X6998467Y-18745883D02*
X7036563Y-18745883D01*
X7036563Y-18745883D02*
X7055610Y-18736359D01*
X7055610Y-18736359D02*
X7065134Y-18726835D01*
X7065134Y-18726835D02*
X7074658Y-18707788D01*
X7074658Y-18707788D02*
X7074658Y-18669693D01*
X7074658Y-18669693D02*
X7065134Y-18650645D01*
X7065134Y-18650645D02*
X7055610Y-18641121D01*
X7055610Y-18641121D02*
X7036563Y-18631597D01*
X7150848Y-18545883D02*
X7150848Y-18583978D01*
X7227039Y-18545883D02*
X7227039Y-18583978D01*
X7522277Y-18822073D02*
X7512753Y-18812550D01*
X7512753Y-18812550D02*
X7493705Y-18783978D01*
X7493705Y-18783978D02*
X7484182Y-18764931D01*
X7484182Y-18764931D02*
X7474658Y-18736359D01*
X7474658Y-18736359D02*
X7465134Y-18688740D01*
X7465134Y-18688740D02*
X7465134Y-18650645D01*
X7465134Y-18650645D02*
X7474658Y-18603026D01*
X7474658Y-18603026D02*
X7484182Y-18574454D01*
X7484182Y-18574454D02*
X7493705Y-18555407D01*
X7493705Y-18555407D02*
X7512753Y-18526835D01*
X7512753Y-18526835D02*
X7522277Y-18517312D01*
X7579420Y-18545883D02*
X7703229Y-18545883D01*
X7703229Y-18545883D02*
X7636563Y-18622073D01*
X7636563Y-18622073D02*
X7665134Y-18622073D01*
X7665134Y-18622073D02*
X7684182Y-18631597D01*
X7684182Y-18631597D02*
X7693705Y-18641121D01*
X7693705Y-18641121D02*
X7703229Y-18660169D01*
X7703229Y-18660169D02*
X7703229Y-18707788D01*
X7703229Y-18707788D02*
X7693705Y-18726835D01*
X7693705Y-18726835D02*
X7684182Y-18736359D01*
X7684182Y-18736359D02*
X7665134Y-18745883D01*
X7665134Y-18745883D02*
X7607991Y-18745883D01*
X7607991Y-18745883D02*
X7588944Y-18736359D01*
X7588944Y-18736359D02*
X7579420Y-18726835D01*
X7874658Y-18545883D02*
X7836563Y-18545883D01*
X7836563Y-18545883D02*
X7817515Y-18555407D01*
X7817515Y-18555407D02*
X7807991Y-18564931D01*
X7807991Y-18564931D02*
X7788944Y-18593502D01*
X7788944Y-18593502D02*
X7779420Y-18631597D01*
X7779420Y-18631597D02*
X7779420Y-18707788D01*
X7779420Y-18707788D02*
X7788944Y-18726835D01*
X7788944Y-18726835D02*
X7798467Y-18736359D01*
X7798467Y-18736359D02*
X7817515Y-18745883D01*
X7817515Y-18745883D02*
X7855610Y-18745883D01*
X7855610Y-18745883D02*
X7874658Y-18736359D01*
X7874658Y-18736359D02*
X7884182Y-18726835D01*
X7884182Y-18726835D02*
X7893705Y-18707788D01*
X7893705Y-18707788D02*
X7893705Y-18660169D01*
X7893705Y-18660169D02*
X7884182Y-18641121D01*
X7884182Y-18641121D02*
X7874658Y-18631597D01*
X7874658Y-18631597D02*
X7855610Y-18622073D01*
X7855610Y-18622073D02*
X7817515Y-18622073D01*
X7817515Y-18622073D02*
X7798467Y-18631597D01*
X7798467Y-18631597D02*
X7788944Y-18641121D01*
X7788944Y-18641121D02*
X7779420Y-18660169D01*
X8131801Y-18745883D02*
X8131801Y-18545883D01*
X8217515Y-18745883D02*
X8217515Y-18641121D01*
X8217515Y-18641121D02*
X8207991Y-18622073D01*
X8207991Y-18622073D02*
X8188944Y-18612550D01*
X8188944Y-18612550D02*
X8160372Y-18612550D01*
X8160372Y-18612550D02*
X8141325Y-18622073D01*
X8141325Y-18622073D02*
X8131801Y-18631597D01*
X8341325Y-18745883D02*
X8322277Y-18736359D01*
X8322277Y-18736359D02*
X8312753Y-18726835D01*
X8312753Y-18726835D02*
X8303229Y-18707788D01*
X8303229Y-18707788D02*
X8303229Y-18650645D01*
X8303229Y-18650645D02*
X8312753Y-18631597D01*
X8312753Y-18631597D02*
X8322277Y-18622073D01*
X8322277Y-18622073D02*
X8341325Y-18612550D01*
X8341325Y-18612550D02*
X8369896Y-18612550D01*
X8369896Y-18612550D02*
X8388944Y-18622073D01*
X8388944Y-18622073D02*
X8398468Y-18631597D01*
X8398468Y-18631597D02*
X8407991Y-18650645D01*
X8407991Y-18650645D02*
X8407991Y-18707788D01*
X8407991Y-18707788D02*
X8398468Y-18726835D01*
X8398468Y-18726835D02*
X8388944Y-18736359D01*
X8388944Y-18736359D02*
X8369896Y-18745883D01*
X8369896Y-18745883D02*
X8341325Y-18745883D01*
X8522277Y-18745883D02*
X8503229Y-18736359D01*
X8503229Y-18736359D02*
X8493706Y-18717312D01*
X8493706Y-18717312D02*
X8493706Y-18545883D01*
X8674658Y-18736359D02*
X8655610Y-18745883D01*
X8655610Y-18745883D02*
X8617515Y-18745883D01*
X8617515Y-18745883D02*
X8598468Y-18736359D01*
X8598468Y-18736359D02*
X8588944Y-18717312D01*
X8588944Y-18717312D02*
X8588944Y-18641121D01*
X8588944Y-18641121D02*
X8598468Y-18622073D01*
X8598468Y-18622073D02*
X8617515Y-18612550D01*
X8617515Y-18612550D02*
X8655610Y-18612550D01*
X8655610Y-18612550D02*
X8674658Y-18622073D01*
X8674658Y-18622073D02*
X8684182Y-18641121D01*
X8684182Y-18641121D02*
X8684182Y-18660169D01*
X8684182Y-18660169D02*
X8588944Y-18679216D01*
X8760372Y-18736359D02*
X8779420Y-18745883D01*
X8779420Y-18745883D02*
X8817515Y-18745883D01*
X8817515Y-18745883D02*
X8836563Y-18736359D01*
X8836563Y-18736359D02*
X8846087Y-18717312D01*
X8846087Y-18717312D02*
X8846087Y-18707788D01*
X8846087Y-18707788D02*
X8836563Y-18688740D01*
X8836563Y-18688740D02*
X8817515Y-18679216D01*
X8817515Y-18679216D02*
X8788944Y-18679216D01*
X8788944Y-18679216D02*
X8769896Y-18669693D01*
X8769896Y-18669693D02*
X8760372Y-18650645D01*
X8760372Y-18650645D02*
X8760372Y-18641121D01*
X8760372Y-18641121D02*
X8769896Y-18622073D01*
X8769896Y-18622073D02*
X8788944Y-18612550D01*
X8788944Y-18612550D02*
X8817515Y-18612550D01*
X8817515Y-18612550D02*
X8836563Y-18622073D01*
X8912753Y-18822073D02*
X8922277Y-18812550D01*
X8922277Y-18812550D02*
X8941325Y-18783978D01*
X8941325Y-18783978D02*
X8950849Y-18764931D01*
X8950849Y-18764931D02*
X8960372Y-18736359D01*
X8960372Y-18736359D02*
X8969896Y-18688740D01*
X8969896Y-18688740D02*
X8969896Y-18650645D01*
X8969896Y-18650645D02*
X8960372Y-18603026D01*
X8960372Y-18603026D02*
X8950849Y-18574454D01*
X8950849Y-18574454D02*
X8941325Y-18555407D01*
X8941325Y-18555407D02*
X8922277Y-18526835D01*
X8922277Y-18526835D02*
X8912753Y-18517312D01*
X9274658Y-18822073D02*
X9265134Y-18812550D01*
X9265134Y-18812550D02*
X9246087Y-18783978D01*
X9246087Y-18783978D02*
X9236563Y-18764931D01*
X9236563Y-18764931D02*
X9227039Y-18736359D01*
X9227039Y-18736359D02*
X9217515Y-18688740D01*
X9217515Y-18688740D02*
X9217515Y-18650645D01*
X9217515Y-18650645D02*
X9227039Y-18603026D01*
X9227039Y-18603026D02*
X9236563Y-18574454D01*
X9236563Y-18574454D02*
X9246087Y-18555407D01*
X9246087Y-18555407D02*
X9265134Y-18526835D01*
X9265134Y-18526835D02*
X9274658Y-18517312D01*
X9350849Y-18612550D02*
X9350849Y-18745883D01*
X9350849Y-18631597D02*
X9360372Y-18622073D01*
X9360372Y-18622073D02*
X9379420Y-18612550D01*
X9379420Y-18612550D02*
X9407991Y-18612550D01*
X9407991Y-18612550D02*
X9427039Y-18622073D01*
X9427039Y-18622073D02*
X9436563Y-18641121D01*
X9436563Y-18641121D02*
X9436563Y-18745883D01*
X9560372Y-18745883D02*
X9541325Y-18736359D01*
X9541325Y-18736359D02*
X9531801Y-18726835D01*
X9531801Y-18726835D02*
X9522277Y-18707788D01*
X9522277Y-18707788D02*
X9522277Y-18650645D01*
X9522277Y-18650645D02*
X9531801Y-18631597D01*
X9531801Y-18631597D02*
X9541325Y-18622073D01*
X9541325Y-18622073D02*
X9560372Y-18612550D01*
X9560372Y-18612550D02*
X9588944Y-18612550D01*
X9588944Y-18612550D02*
X9607991Y-18622073D01*
X9607991Y-18622073D02*
X9617515Y-18631597D01*
X9617515Y-18631597D02*
X9627039Y-18650645D01*
X9627039Y-18650645D02*
X9627039Y-18707788D01*
X9627039Y-18707788D02*
X9617515Y-18726835D01*
X9617515Y-18726835D02*
X9607991Y-18736359D01*
X9607991Y-18736359D02*
X9588944Y-18745883D01*
X9588944Y-18745883D02*
X9560372Y-18745883D01*
X9684182Y-18612550D02*
X9760372Y-18612550D01*
X9712753Y-18545883D02*
X9712753Y-18717312D01*
X9712753Y-18717312D02*
X9722277Y-18736359D01*
X9722277Y-18736359D02*
X9741325Y-18745883D01*
X9741325Y-18745883D02*
X9760372Y-18745883D01*
X9979420Y-18612550D02*
X9979420Y-18812550D01*
X9979420Y-18622073D02*
X9998468Y-18612550D01*
X9998468Y-18612550D02*
X10036563Y-18612550D01*
X10036563Y-18612550D02*
X10055611Y-18622073D01*
X10055611Y-18622073D02*
X10065134Y-18631597D01*
X10065134Y-18631597D02*
X10074658Y-18650645D01*
X10074658Y-18650645D02*
X10074658Y-18707788D01*
X10074658Y-18707788D02*
X10065134Y-18726835D01*
X10065134Y-18726835D02*
X10055611Y-18736359D01*
X10055611Y-18736359D02*
X10036563Y-18745883D01*
X10036563Y-18745883D02*
X9998468Y-18745883D01*
X9998468Y-18745883D02*
X9979420Y-18736359D01*
X10188944Y-18745883D02*
X10169896Y-18736359D01*
X10169896Y-18736359D02*
X10160372Y-18717312D01*
X10160372Y-18717312D02*
X10160372Y-18545883D01*
X10350849Y-18745883D02*
X10350849Y-18641121D01*
X10350849Y-18641121D02*
X10341325Y-18622073D01*
X10341325Y-18622073D02*
X10322277Y-18612550D01*
X10322277Y-18612550D02*
X10284182Y-18612550D01*
X10284182Y-18612550D02*
X10265134Y-18622073D01*
X10350849Y-18736359D02*
X10331801Y-18745883D01*
X10331801Y-18745883D02*
X10284182Y-18745883D01*
X10284182Y-18745883D02*
X10265134Y-18736359D01*
X10265134Y-18736359D02*
X10255611Y-18717312D01*
X10255611Y-18717312D02*
X10255611Y-18698264D01*
X10255611Y-18698264D02*
X10265134Y-18679216D01*
X10265134Y-18679216D02*
X10284182Y-18669693D01*
X10284182Y-18669693D02*
X10331801Y-18669693D01*
X10331801Y-18669693D02*
X10350849Y-18660169D01*
X10417515Y-18612550D02*
X10493706Y-18612550D01*
X10446087Y-18545883D02*
X10446087Y-18717312D01*
X10446087Y-18717312D02*
X10455611Y-18736359D01*
X10455611Y-18736359D02*
X10474658Y-18745883D01*
X10474658Y-18745883D02*
X10493706Y-18745883D01*
X10636563Y-18736359D02*
X10617515Y-18745883D01*
X10617515Y-18745883D02*
X10579420Y-18745883D01*
X10579420Y-18745883D02*
X10560372Y-18736359D01*
X10560372Y-18736359D02*
X10550849Y-18717312D01*
X10550849Y-18717312D02*
X10550849Y-18641121D01*
X10550849Y-18641121D02*
X10560372Y-18622073D01*
X10560372Y-18622073D02*
X10579420Y-18612550D01*
X10579420Y-18612550D02*
X10617515Y-18612550D01*
X10617515Y-18612550D02*
X10636563Y-18622073D01*
X10636563Y-18622073D02*
X10646087Y-18641121D01*
X10646087Y-18641121D02*
X10646087Y-18660169D01*
X10646087Y-18660169D02*
X10550849Y-18679216D01*
X10817515Y-18745883D02*
X10817515Y-18545883D01*
X10817515Y-18736359D02*
X10798468Y-18745883D01*
X10798468Y-18745883D02*
X10760372Y-18745883D01*
X10760372Y-18745883D02*
X10741325Y-18736359D01*
X10741325Y-18736359D02*
X10731801Y-18726835D01*
X10731801Y-18726835D02*
X10722277Y-18707788D01*
X10722277Y-18707788D02*
X10722277Y-18650645D01*
X10722277Y-18650645D02*
X10731801Y-18631597D01*
X10731801Y-18631597D02*
X10741325Y-18622073D01*
X10741325Y-18622073D02*
X10760372Y-18612550D01*
X10760372Y-18612550D02*
X10798468Y-18612550D01*
X10798468Y-18612550D02*
X10817515Y-18622073D01*
X10893706Y-18822073D02*
X10903230Y-18812550D01*
X10903230Y-18812550D02*
X10922277Y-18783978D01*
X10922277Y-18783978D02*
X10931801Y-18764931D01*
X10931801Y-18764931D02*
X10941325Y-18736359D01*
X10941325Y-18736359D02*
X10950849Y-18688740D01*
X10950849Y-18688740D02*
X10950849Y-18650645D01*
X10950849Y-18650645D02*
X10941325Y-18603026D01*
X10941325Y-18603026D02*
X10931801Y-18574454D01*
X10931801Y-18574454D02*
X10922277Y-18555407D01*
X10922277Y-18555407D02*
X10903230Y-18526835D01*
X10903230Y-18526835D02*
X10893706Y-18517312D01*
M02*
